<?xml version="1.0" standalone="no"?>
<!DOCTYPE svg PUBLIC "-//W3C//DTD SVG 1.1//EN" "http://www.w3.org/Graphics/SVG/1.1/DTD/svg11.dtd" >
<svg xmlns="http://www.w3.org/2000/svg" xmlns:xlink="http://www.w3.org/1999/xlink" version="1.1">
<metadata></metadata>
<defs>
<font id="vtc_screamitloudoutlineitalic" horiz-adv-x="1071" >
<font-face units-per-em="2048" ascent="1638" descent="-410" />
<missing-glyph horiz-adv-x="677" />
<glyph horiz-adv-x="0" />
<glyph horiz-adv-x="682" />
<glyph unicode=" "  horiz-adv-x="677" />
<glyph unicode="&#x09;" horiz-adv-x="677" />
<glyph unicode="&#xa0;" horiz-adv-x="677" />
<glyph unicode="!" horiz-adv-x="1259" d="M6 401q51 123 112.5 233.5t125.5 221.5q94 -43 166.5 -60.5t140.5 -27.5q35 -6 72 -12.5t82 -18.5l14 -57q-29 -59 -57.5 -119.5t-57.5 -120.5q-12 -25 -28.5 -57.5t-33 -67t-31.5 -68.5t-26 -59q-66 6 -134 14.5t-132.5 30t-120 61.5t-92.5 107zM68 426q29 -55 73.5 -88 t98 -50.5t111 -24.5t110.5 -11q49 111 104.5 217.5t102.5 212.5q-49 12 -101.5 20.5t-105.5 17.5t-105.5 22.5t-103.5 37.5q-49 -86 -96 -171t-88 -183zM336 1063q35 59 71.5 124.5t72.5 131t69 129t61.5 119t62.5 120t68.5 129t69.5 126t63 108.5q53 -14 109.5 -34.5 t108 -48.5t93 -64.5t68.5 -85.5l-6 -48q-39 -78 -80 -159.5t-80 -167.5q-27 -53 -58.5 -117.5t-65 -133.5t-67.5 -137.5t-62 -127.5l-45 10t-54.5 14t-55.5 15.5t-46 11.5q-59 16 -131 33.5t-166 52.5zM414 1104q104 -39 205.5 -59.5t199.5 -47.5q104 215 194.5 406 t182.5 371q-25 45 -60.5 78.5t-76.5 58t-85 42t-87 29.5q-115 -195 -225.5 -417t-247.5 -461z" />
<glyph unicode="&#x22;" horiz-adv-x="1001" d="M6 1384q55 129 135 237t191 194q59 -16 100 -33t80 -33q18 -10 38 -18.5t40 -16.5l-2 -72q-45 -49 -86 -106t-88 -121q-10 -12 -25.5 -33.5t-33 -46t-33 -46t-25.5 -34.5q-66 39 -100.5 53.5t-63.5 24.5q-23 10 -63.5 25.5t-63.5 25.5zM78 1421q53 -27 108.5 -45 t108.5 -47q70 92 128 178t128 158q-57 23 -112.5 48.5t-112.5 41.5q-86 -63 -145.5 -146t-102.5 -188zM461 1155q53 74 88 126t61 93q16 25 31.5 49.5t32 51t37 58.5t49.5 71q72 -31 126 -58.5t95 -52.5l14 -39q-4 -25 -14 -51.5t-23 -54.5q-29 -63 -73.5 -134t-102.5 -145 q-78 10 -125 24.5t-96 28.5q-8 2 -22.5 7.5t-29.5 9.5t-28.5 9t-19.5 7zM545 1192q55 -18 110.5 -35.5t114.5 -28.5q55 72 99 149t67 169q-41 23 -82 45t-86 43q-53 -78 -107.5 -167t-115.5 -175z" />
<glyph unicode="#" horiz-adv-x="1947" d="M6 858q47 92 98.5 171t112.5 171q12 -4 33.5 -10t45 -14.5t45 -14.5t34.5 -10q29 -8 57.5 -15.5t56.5 -15.5q18 27 40 56.5t44 72.5q-37 10 -73.5 18.5t-75.5 18.5l-143 33q6 8 18 26.5t25.5 39t24.5 39t16 26.5q14 20 34.5 51t42 63.5t42 62.5t36.5 50q78 -29 140.5 -49 t113.5 -37q8 10 14.5 22.5t16.5 22.5v-2q12 20 28.5 47t35 55.5t35 54.5t26.5 44q47 -2 82 -6t62.5 -9t51 -11.5t45.5 -12.5q12 -4 33 -8t42.5 -9t41 -8.5t29.5 -5.5q-2 -4 -9.5 -18t-15.5 -29.5t-16 -30t-12 -18.5v2q-23 -49 -50.5 -99t-62.5 -104q59 -16 115.5 -32.5 t109.5 -34.5q33 57 68 118.5t74 122.5q92 -35 170.5 -71.5t140.5 -73.5q-16 -39 -40 -95t-40 -95q-6 -10 -10 -21.5t-13 -21.5l22.5 -7.5t20.5 -7.5v2q39 -14 75 -27.5t75 -25.5l23 -47q-2 -12 -7.5 -24.5t-11.5 -28.5q-8 -25 -23.5 -73t-37.5 -140q-23 6 -56.5 15 t-70.5 20.5t-72 20.5t-59 15q-16 0 -23 2q-8 -20 -19.5 -39.5t-21.5 -39.5q-4 -10 -8 -18.5t-8 -16.5q41 -10 84 -15.5t86 -11.5q12 0 30.5 -2t39 -5t39 -6t30.5 -5l-70 -164q-6 -14 -16 -39t-21.5 -51.5t-21.5 -51t-16 -38.5q-12 0 -34 2t-44.5 5t-43 5t-30.5 2 q-39 4 -78 7t-80 9q-20 -41 -41.5 -84t-44.5 -86q-6 -12 -16 -31.5t-22.5 -42t-23.5 -43t-20 -32.5q-43 4 -101 10t-120.5 13.5t-121 14.5t-101.5 13q59 125 106.5 209t88.5 156l-56 12q-43 6 -81 14t-79 15q-29 -47 -56 -95.5t-52 -97.5l-84 -149q-43 12 -101.5 28.5 t-119 34.5t-118.5 36.5t-101 35.5q45 94 90 176t86 153q-33 10 -63.5 23.5t-61.5 28.5q-14 6 -24.5 11t-26 11t-40 15.5t-67.5 23.5zM90 901q74 -27 141.5 -60.5t145.5 -52.5q-51 -78 -97.5 -160.5t-91.5 -170.5q86 -31 172 -57.5t172 -49.5q47 88 94.5 172t96.5 164 q88 -10 169 -25.5t159 -29.5q-53 -88 -104.5 -176t-98.5 -189q86 -12 169 -22.5t171 -16.5q41 86 84 165t82 157q80 -10 156.5 -16.5t148.5 -14.5q25 59 48.5 116.5t47.5 113.5q-76 10 -153.5 21t-159.5 28q29 63 60.5 119.5t56.5 115.5q72 -16 135 -31.5t127 -35.5 q14 47 30.5 91t32.5 87q-59 18 -117.5 39.5t-115.5 42.5q29 61 54.5 118.5t53.5 116.5q-106 63 -225 107q-35 -53 -69.5 -117t-65.5 -125q-78 29 -159 53.5t-173 48.5q47 72 88 146t76 145q-68 12 -135.5 33t-145.5 25l-77 -121t-82 -133q-66 16 -132.5 36.5t-132.5 45.5 q-41 -59 -78.5 -119t-76.5 -121q74 -18 144.5 -34.5t139.5 -39.5q-35 -59 -74.5 -119.5t-78.5 -126.5q-61 25 -132 43.5t-145 40.5q-39 -59 -70.5 -113t-64.5 -114zM825 950q39 61 70 125t61 125q92 -23 174 -45t162 -45q-29 -59 -57.5 -120.5t-63.5 -121.5 q-82 18 -167.5 41t-178.5 41zM907 993q94 -16 168 -37q20 -6 40 -11l36 -9q14 25 25.5 48t21.5 46q6 14 19 37q-59 16 -118 30.5t-122 30.5q-14 -33 -30.5 -66.5t-39.5 -68.5z" />
<glyph unicode="$" horiz-adv-x="1964" d="M6 -80q66 117 125 220.5t121 203.5q-113 74 -173.5 207t-66.5 283q14 12 38 29.5t48.5 34.5t47 33.5t38.5 29.5h-2q55 41 127 96t164 131q-12 47 -13 94t21 94q4 8 7.5 13.5t7.5 13.5q39 78 99 140.5t134 106.5t156 67.5t166 23.5h26q0 6 6 10l-4 -4v-6h6l58 137 q6 -2 23.5 -7t37 -10.5t36.5 -10.5t24 -7h-2q57 -14 116.5 -31.5t147.5 -58.5q-6 -8 -18.5 -23.5t-27 -33t-26.5 -33.5t-18 -25h2q-2 -4 -4 -5t-4 -5q8 -4 18 -8l20 -8q16 -6 35 -13.5t37 -15.5l4 4q0 2 1 6t4 17.5t8.5 39t13.5 72.5q72 -49 115 -74.5t63 -35.5 q25 -14 64.5 -35t64.5 -37l-7 -14q-7 -15 -16.5 -33t-18.5 -36.5t-13 -26.5q-4 -10 -10.5 -20.5t-10.5 -18.5q35 -41 56.5 -83t39.5 -85l-4 2q23 -33 36.5 -81t27.5 -95l-285 -336q-10 57 -21.5 95t-21.5 62.5t-21.5 42t-23.5 33.5l2 -2q-12 16 -23.5 32.5t-21.5 35.5 q-57 74 -126.5 140.5t-155.5 102.5l2 -2q-41 14 -81 26.5t-79 12.5q-6 0 -16.5 -1t-20.5 -3h-27q-16 0 -24 -2q16 -41 52 -69.5t77 -55.5q10 -8 22.5 -15t24.5 -18h-2q35 -25 68.5 -49t68.5 -49h-2q59 -43 118.5 -89t119.5 -93q33 -29 62.5 -64.5t50 -78.5t25.5 -92.5 t-13 -102.5q-4 -14 -7.5 -26.5t-13.5 -28.5q-53 -125 -156.5 -215t-226.5 -138q-23 -49 -47.5 -98t-48.5 -100q-6 -14 -17.5 -37t-22.5 -46.5t-22.5 -46t-17.5 -36.5h-88q-68 0 -137.5 5t-139.5 11h-16q-12 0 -25.5 1t-25.5 1h-12q37 70 60 119t36 78q18 41 36.5 82t36.5 82 q-16 4 -36.5 9t-38.5 11h2q-20 6 -39 12.5t-39 10.5q-27 -39 -49.5 -80t-46.5 -80l-115 -186q-6 2 -22.5 5t-35 7t-36 7t-25.5 5q-72 12 -152.5 30.5t-191.5 51.5zM74 823q4 -68 22.5 -133t50 -123.5t77.5 -106.5t106 -81q-63 -104 -119.5 -203.5t-120.5 -212.5 q92 -29 182 -46t177 -36q59 92 108 178t105 166q70 -10 128 -30.5t128 -30.5q-45 -80 -84 -169t-84 -181q86 -6 162.5 -12.5t162.5 -4.5q43 92 86 174t82 170q61 20 121.5 54t112 80.5t90.5 103.5t57 125q14 45 9 87t-22.5 80t-44 70.5t-57.5 57.5q-88 74 -182 141.5 t-186 138.5q-29 20 -60.5 41t-60.5 45.5t-48.5 55t-21.5 69.5q20 35 59.5 45.5t71.5 10.5q59 10 114.5 -3.5t107.5 -33.5q92 -39 164.5 -107.5t131.5 -144.5q31 -55 69 -103t48 -114l174 204q-10 35 -21 72t-32 70q-23 47 -45.5 92t-54.5 86q12 35 31.5 69.5t35.5 69.5 q-49 31 -99 53.5t-97 55.5q-10 -33 -24.5 -58.5t-24.5 -54.5q-49 33 -105.5 51.5t-107.5 44.5q25 31 47 63t45 60q-66 29 -134.5 47.5t-136.5 36.5q-12 -31 -32.5 -62.5t-32.5 -62.5q-80 12 -162 -2t-155.5 -51t-135 -94t-100.5 -131q-23 -41 -25 -84t10.5 -85t37 -80 t55.5 -69q78 -86 170 -153.5t184 -130.5q20 -20 46 -39t50.5 -39.5t45 -45t28.5 -57.5q-23 -39 -62.5 -45t-76.5 -6q-61 -4 -119.5 8.5t-112.5 32.5q-80 23 -146.5 72t-112.5 115.5t-68.5 145.5t-12.5 161q-80 -70 -176 -137.5t-190 -139.5zM510 1112q6 -82 31.5 -155.5 t65.5 -134t93.5 -102.5t114.5 -61q45 -16 96.5 -26t102.5 -10h22h37q-16 23 -39.5 41t-46.5 36q-18 12 -32.5 22.5t-26.5 22.5q-2 2 -2 3v2q0 2 -11 6q-92 63 -180 131.5t-164 146.5l2 -2q-16 16 -32.5 35.5t-30.5 44.5zM1008 1563.5q-4 -11.5 6 13.5t47 109l-4 -3 q-14 -37 -29.5 -72.5t-19.5 -47z" />
<glyph unicode="%" horiz-adv-x="2150" d="M6 516q115 70 241 148.5t248.5 156.5t237.5 152t207 133q59 39 114.5 76t112.5 73q-25 -8 -46 -13t-42 -9q-37 -4 -74.5 -8t-80.5 -4q-72 0 -141.5 13t-135.5 42q-80 39 -151.5 100.5t-108.5 139.5q-23 61 -22 120q0 63 24 123q8 33 39 70v-2q63 86 154.5 130t189.5 58 l-2 -2q35 4 61.5 6t51.5 2q129 0 264 -47q78 -37 139.5 -91t108.5 -120q41 -66 51 -144.5t-19 -148.5l-4 -10q-14 -35 -43 -69q111 68 214.5 128t209.5 117q68 -29 143.5 -61.5t135.5 -61.5q16 -8 31.5 -15t29.5 -13l-22 -94q-88 -66 -180.5 -133.5t-192.5 -143.5 q-111 -82 -228.5 -170t-248.5 -182t-278.5 -196.5t-313.5 -211.5q-49 12 -108.5 26.5t-110.5 25.5l2 -3q-45 8 -105.5 22.5t-124 30t-124 32t-103.5 28.5zM139 543q141 -41 280.5 -67.5t268.5 -57.5q227 147 423 286.5t369 267.5t325.5 244t291.5 214q-74 35 -149.5 71.5 t-161.5 71.5q-166 -88 -346 -200.5t-383 -245t-430.5 -280t-487.5 -304.5zM427 1686.5q-3 -68.5 22 -132.5q35 -74 100 -132t143 -93q98 -45 200.5 -49t201.5 12q86 14 161.5 54t110.5 114q29 59 18.5 130t-45.5 132q-47 61 -105 111.5t-130 85.5q-86 29 -171 41t-177 -4 q-80 -10 -157 -47t-124 -101q-45 -53 -48 -121.5zM735 1663q2 18 17 33q35 55 102.5 68.5t130.5 -9.5q20 -12 39.5 -29.5t33 -38t17.5 -42t-8 -41.5q-16 -33 -47 -48.5t-66 -15.5q-80 -4 -147 33q-23 6 -39 20.5t-25.5 33t-7.5 36.5zM797 1679q-6 -14 11 -30.5t44 -22.5 q27 -12 56.5 -20.5t60.5 -8.5h10q25 1 35 13v2q6 20 -19.5 47t-52.5 43l2 -4q-37 12 -72 12q-25 0 -43 -6t-26 -18q-2 -4 -4 -6zM1176.5 416q-7.5 94 29.5 182l8 16q43 100 127 170t183 101l-6 -2q49 20 104 32.5t111 12.5q82 0 155 -33h-2q66 -27 118 -80t91 -119 q31 -66 36 -147.5t-22 -153.5l5 6q-4 -10 -8.5 -21t-10.5 -22q-35 -78 -94 -130t-125 -91q-59 -37 -127 -59.5t-137 -22.5q-47 0 -96 13h4q-86 12 -160 62t-127 124v-2q-49 70 -56.5 164zM1239 440q6 -82 53 -143q45 -68 113 -114t145 -58q78 -23 159 -4.5t151 59.5 q59 37 113 86t77 125q23 63 17.5 135t-31.5 131q-35 61 -83 110.5t-108 72.5q-76 35 -163 27.5t-164 -36.5q-82 -27 -153 -87t-101 -146q-31 -76 -25 -158zM1552 506q12 31 34 55.5t48.5 37.5t56 15t56.5 -10q39 -10 67.5 -49t14.5 -94q-10 -33 -35 -55.5t-53 -28.5 q-35 -12 -64.5 -8t-64.5 8q-35 10 -55.5 49t-4.5 80zM1610 506q-10 -23 4 -44.5t37 -27.5h-2q4 -2 12 -2q10 0 14 -2q16 -4 37 -4q10 0 33 6q12 2 18 12l2 11q12 35 -9 60.5t-50 31.5q-10 4 -16.5 7t-16.5 3q-16 0 -34.5 -13.5t-28.5 -35.5v-2z" />
<glyph unicode="&#x26;" horiz-adv-x="1773" d="M6 762q0 115 49 229q6 14 12.5 26.5t10.5 22.5q59 106 160.5 174t212.5 99q27 4 49 12l-8 -2q23 6 44 12t44 11q-10 20 0 55q0 94 38 180q10 18 15.5 31.5t13.5 25.5v-4q59 129 172 184.5t246 55.5q92 0 182 -24.5t164 -67.5l-2 2q74 -37 144.5 -85t125.5 -122 q47 -72 52.5 -155t-21.5 -169v2q-2 -8 -6 -21t-8 -24q-41 -92 -118 -157.5t-181 -96.5q-51 -12 -109 -18l4 -4q2 -20 8.5 -38.5t10.5 -39.5q72 23 153.5 53.5t173.5 71.5q29 -88 61.5 -196.5t67.5 -196.5l-45 -82q-66 -35 -133 -72t-141 -72q-4 -4 0 -4q8 -25 21.5 -62.5 t26.5 -77.5t26.5 -77t21.5 -61q-102 -10 -151.5 -11t-83.5 -1q-92 0 -187.5 7t-195.5 23q-25 31 -27 64q-4 0 -5 -1t-5 -1l-80 -6q-184 12 -350 69q-119 45 -226.5 124t-169.5 202q-57 96 -57 213zM69 804.5q-3 -118.5 54 -216.5q55 -115 158.5 -189.5t218.5 -119.5 q86 -29 168 -45.5t168 -22.5q29 0 59.5 4t58.5 6q0 -18 7.5 -36.5t13.5 -30.5q129 -18 245.5 -26.5t233.5 1.5q-23 61 -41 123.5t-41 124.5q92 47 174 90t162 86q-35 86 -63.5 176t-55.5 176q-78 -35 -158.5 -63.5t-166.5 -50.5q-20 47 -29.5 98t-28.5 98q53 4 104.5 9 t94.5 16q92 27 156.5 88t87.5 147q23 72 18.5 147.5t-47.5 139.5q-47 70 -114.5 115t-139.5 82q-80 45 -178 68.5t-191.5 15t-173.5 -52.5t-123 -132q-31 -51 -45 -107.5t-14 -111.5q-8 -29 4 -53.5t12 -52.5q-53 -2 -103 -17.5t-110 -32.5q-98 -25 -182 -80t-131 -141 q-59 -111 -62 -229.5zM567 764.5q-2 19.5 8 40.5q16 27 44 48t63 30q18 4 32.5 9t30.5 7q12 -51 30 -98.5t30 -98.5l-22.5 -15t-26.5 -9q-31 -14 -59.5 -11t-55.5 11q-16 8 -32.5 21.5t-28 29.5t-13.5 35.5zM629 799q-6 -20 13.5 -40t45.5 -30l-8 4q25 -8 47 -8 q-4 10 -7 22.5t-7 24.5q-6 16 -10.5 29.5t-8.5 27.5q-6 0 -12 -2t-14 -2l4 2q-29 -8 -43 -28zM1098 1405.5q2 28.5 12 48.5q8 31 29.5 52.5t51.5 31.5t60.5 8t57.5 -20q33 -16 39.5 -55t-5.5 -68q-16 -18 -40.5 -27.5t-51.5 -19.5q-39 0 -74.5 -5t-76.5 -1q-4 27 -2 55.5z M1159 1407h23q14 0 24.5 2t26 3t31.5 1l12 4l12 4q4 35 -24 54q-20 14 -45 14q-35 0 -48 -23q0 -2 -1 -5t-1 -7q-4 -10 -6 -22.5t-4 -24.5z" />
<glyph unicode="'" horiz-adv-x="518" d="M6 1210q12 18 27.5 41t31 46.5t30 45t24.5 37.5q33 51 69.5 105.5t98.5 134.5q68 -33 124 -61.5t97 -63.5l4 -47q-43 -80 -98.5 -170t-120.5 -193q-72 23 -144.5 49.5t-142.5 75.5zM72 1237q47 -35 102 -55.5t109 -36.5q53 78 99 153.5t87 153.5q-41 35 -86 58.5 t-92 45.5q-59 -74 -109.5 -153.5t-109.5 -165.5z" />
<glyph unicode="(" horiz-adv-x="1316" d="M12.5 431q-14.5 140 7 283.5t78.5 276.5q12 33 25.5 59.5t30.5 53.5l-4 -2q68 139 160.5 251.5t204.5 191.5t238 121t257 42q178 -76 301 -211l-94 -100q-23 14 -46.5 17t-46.5 3q-53 0 -109.5 -19.5t-107.5 -41.5h2q-94 -45 -168.5 -143.5t-132.5 -217.5l-8 -24 q-55 -131 -70.5 -282.5t17.5 -299.5l2 2q14 -55 37.5 -114.5t65.5 -116t102.5 -108.5t148.5 -95q-141 -37 -239.5 -56.5t-153.5 -19.5q-70 0 -142.5 11.5t-148.5 31.5q-90 106 -141 236.5t-65.5 270.5zM68.5 515.5q7.5 -148.5 56.5 -288t141 -252.5q117 -29 234.5 -35 t234.5 25q-53 27 -91 69t-66.5 94t-50 110.5t-40.5 117.5q-39 162 -17 330t87 311q59 135 143 244t201 166q41 18 86 35.5t92 26t93.5 5t87.5 -23.5q-59 66 -130 115t-151 86q-117 0 -230.5 -39t-215 -110.5t-185.5 -174t-143 -229.5q-74 -135 -109 -284.5t-27.5 -298z" />
<glyph unicode=")" horiz-adv-x="1447" d="M6 227l80 90q35 -10 62.5 -13t52.5 -3q55 0 111.5 14.5t110.5 38t106.5 53t99.5 58.5q123 86 209 207t141 250q53 129 65.5 264t-16.5 266l-2 -2q-29 92 -76 185.5t-133 158.5l82 100q104 -27 194.5 -67.5t170.5 -91.5q76 -102 118.5 -221t55 -246t-7 -257t-68.5 -255 l4 6q-8 -23 -17.5 -47.5t-19.5 -46.5q-53 -129 -137 -245t-192.5 -213t-241.5 -172t-285 -120q-135 43 -258 117t-209 192zM74 256q74 -104 187.5 -171t238.5 -105q150 41 278.5 118.5t233 181t179.5 225.5t116 249q45 119 63.5 242.5t7 243.5t-52.5 233.5t-113 212.5 q-147 98 -340 149q88 -63 136.5 -157.5t78.5 -192.5q29 -137 16 -282.5t-69 -280.5q-29 -68 -67.5 -137.5t-88 -136t-106.5 -125t-125 -103.5q-63 -37 -133 -75t-142.5 -64.5t-148.5 -35.5t-149 11z" />
<glyph unicode="*" horiz-adv-x="1202" d="M6 1202q43 14 104.5 36t120.5 42q-12 8 -24 14t-25 17q-12 6 -23.5 12t-26.5 15.5t-35.5 20.5t-53.5 27q35 61 59.5 95.5t47.5 62.5h-3q6 6 18.5 22.5t25 34t24.5 34t18 22.5q29 -16 68 -38t80 -42q-23 47 -44.5 107.5t-33.5 93.5h352q10 -41 24.5 -94.5t25.5 -94.5 l2 -16q8 18 19 39.5t21.5 43t19.5 40t15 30.5q18 -10 52 -28.5t70 -37t69 -35.5t51 -28q-31 -66 -54.5 -108.5t-45.5 -81.5q20 6 36.5 10t36.5 10q27 8 76 20.5t76 20.5q4 -18 11 -54t13.5 -75t12.5 -73.5t10 -53.5q-12 -2 -37.5 -7t-54.5 -9t-55.5 -9t-40.5 -7 q31 -16 59 -33t57 -29l19 -51q-12 -27 -22.5 -46.5t-22.5 -35.5q-4 -10 -6 -10l-4 -5q-5 -5 -13 -20.5t-21.5 -44t-31.5 -78.5l-27.5 16.5t-37 23t-39 24.5t-33.5 22q16 -49 33.5 -96t29.5 -82q-53 -2 -88 -5t-58.5 -6t-38.5 -6t-30 -5q-27 -8 -62.5 -13.5t-76.5 -11.5 l-19 168q-23 -41 -42 -88t-31 -74q-72 31 -141.5 62.5t-137.5 72.5q10 16 24.5 40t28 48.5t26.5 48t22 40.5q8 12 15 24t11 25q-14 -6 -29.5 -11.5t-31.5 -11.5q-18 -6 -46 -16t-58.5 -20.5t-59.5 -20.5t-49 -19q0 6 -2 18.5t-4 27t-4.5 26.5t-4.5 16q-2 14 -4 28.5t-7 33 t-15 41t-29 55.5zM96 1182q18 -35 21.5 -74t11.5 -82q92 35 173 62.5t159 58.5q-41 -66 -79 -139.5t-83 -147.5q47 -29 91 -48t89 -40q35 76 71 145.5t66 141.5q8 -76 17.5 -154t19.5 -155q53 6 103.5 19t103.5 17q-29 72 -51.5 141.5t-46.5 143.5q66 -37 124 -76t118 -77 q18 41 40.5 74.5t40.5 74.5q-63 29 -124.5 64.5t-129.5 68.5q78 18 153 28.5t142 22.5q-6 37 -13 76t-11 76q-72 -18 -139.5 -35.5t-139.5 -38.5q33 59 67 117.5t60 118.5q-39 23 -76.5 43t-72.5 37q-29 -59 -59.5 -117t-63.5 -117q-16 78 -36.5 156t-37.5 155 q-49 -2 -100 1t-107 -1q27 -76 58.5 -150.5t60.5 -150.5q-70 39 -138.5 80t-141.5 82q-27 -41 -55.5 -78t-57.5 -84q66 -35 125 -74.5t129 -68.5q-66 -23 -137.5 -46.5t-143.5 -49.5z" />
<glyph unicode="+" horiz-adv-x="1189" d="M6 975q8 14 20.5 35.5t27 45t27.5 45t21 34.5q8 14 22.5 37.5t29 50t28 50t21.5 40.5q14 -4 38.5 -10.5t50 -12.5t49.5 -11t38 -9q47 -12 91 -20.5t89 -18.5q27 45 51.5 88t51.5 86q6 12 19 35.5t28.5 49.5t29 49.5t19.5 35.5q18 -6 43.5 -16.5t52.5 -22.5t50.5 -22.5 t39.5 -16.5q23 -10 60.5 -25.5t60.5 -25.5q-37 -86 -67.5 -147.5t-59.5 -116.5q-8 -16 -18.5 -31.5t-18.5 -30.5q72 -16 137 -34.5t131 -36.5l15 -62q-23 -37 -38.5 -69.5t-31.5 -65.5q-4 -14 -15.5 -37.5t-41.5 -83.5q-86 10 -164 22.5t-156 30.5l-39 -77 q-10 -25 -26.5 -58t-36 -67.5t-37.5 -67.5t-33 -57q-53 6 -94 13t-75 14.5t-63.5 14.5t-58.5 13l-92 23q23 39 48.5 85t52 92t50 89t44.5 78q-25 6 -49.5 12t-51.5 12q-57 12 -133.5 32.5t-136.5 39.5zM86 1014q98 -31 191.5 -50.5t179.5 -43.5q-47 -80 -94.5 -163 t-98.5 -182q72 -16 141.5 -32.5t139.5 -24.5q47 86 88 167t86 167q80 -20 159.5 -34.5t153.5 -24.5q29 53 51 104t47 98q-72 23 -148.5 42.5t-162.5 35.5q49 92 94 170t80 164q-53 23 -107.5 46.5t-111.5 47.5q-47 -80 -96 -163t-98 -171q-86 14 -175.5 36t-181.5 44 q-29 -55 -64.5 -111.5t-72.5 -121.5z" />
<glyph unicode="," horiz-adv-x="980" d="M6 -313q74 102 156 217.5t163 229.5t158.5 218.5t141.5 186.5q27 -10 69.5 -25.5t69.5 -26.5q55 -16 110.5 -36.5t100.5 -57.5l-2 -57q-92 -154 -200.5 -318.5t-250.5 -351.5q-25 -2 -54.5 -4t-61 -3t-63.5 -2t-56 -1q-57 0 -126 7t-155 24zM94 -270q104 -20 209 -19.5 t205 8.5q123 166 225.5 321.5t194.5 305.5q-61 49 -142 70.5t-159 54.5q-129 -166 -259 -348t-274 -393z" />
<glyph unicode="-" d="M6 664q10 41 19.5 73.5t19.5 55.5q35 76 90 159.5t109 165.5q233 -55 432 -121.5t373 -142.5l16 -37q-10 -55 -27.5 -111.5t-40.5 -109.5q-16 -35 -38.5 -81t-59.5 -107q-217 43 -440 103t-453 153zM72 702q211 -86 412.5 -141t392.5 -94q47 82 81 169t50 169 q-170 76 -356.5 138.5t-395.5 111.5q-53 -78 -105.5 -166t-78.5 -187z" />
<glyph unicode="." horiz-adv-x="645" d="M6 137q10 37 19.5 60.5t19.5 46.5q35 78 91.5 166t117.5 174q104 -29 200.5 -59.5t172.5 -75.5l12 -39q-10 -29 -21.5 -57.5t-21.5 -57.5q-31 -68 -72 -144.5t-88 -154.5q-111 23 -221.5 55.5t-208.5 85.5zM70 172q78 -47 169 -72.5t183 -46.5q49 92 91 175t71 175 q-70 41 -154 69t-170 50q-55 -80 -108.5 -166t-81.5 -184z" />
<glyph unicode="/" horiz-adv-x="1933" d="M6 158q246 244 466 458.5t421 404t384 352.5t355 300q86 -41 160 -89t135 -103l-12 -72q-125 -145 -268.5 -310t-311.5 -350.5t-364.5 -390t-429.5 -430.5q-14 4 -36 10.5t-44.5 13.5t-45 13t-38.5 10q-47 12 -93 25.5t-92.5 34t-93.5 50.5t-92 73zM90 176 q43 -43 97.5 -70.5t114.5 -47t122.5 -34t118.5 -30.5q221 213 410.5 410.5t353 379t304 343.5t265.5 305q-115 106 -258 172q-313 -250 -688 -607.5t-840 -820.5z" />
<glyph unicode="0" horiz-adv-x="1576" d="M13.5 957.5q17.5 144.5 72.5 279.5q31 72 66 131q86 156 216 268.5t296 159.5l-7 -4q121 45 246 45q170 0 316 -80l4 2q113 -61 192.5 -170.5t114.5 -232.5v2q41 -129 40 -269.5t-44 -271.5v4q-4 -25 -14.5 -51.5t-22.5 -54.5q-53 -123 -140 -230.5t-200 -193.5v2 q-104 -82 -225 -128t-250 -46q-51 0 -102.5 8t-100.5 27h4q-90 25 -166 75t-134 118.5t-96 151.5t-52 175l2 -2q-33 141 -15.5 285.5zM85 1042.5q-34 -165.5 3 -340.5q16 -88 53 -166.5t91.5 -143t125 -112t156.5 -71.5q76 -29 157 -33t159.5 13.5t152.5 53.5t139 87 q123 92 214 216t128 267q41 123 43 255t-39 255q-35 117 -108.5 220.5t-183.5 162.5q-117 63 -252.5 72.5t-264.5 -37.5q-147 -41 -261.5 -141.5t-192.5 -237.5q-86 -154 -120 -319.5zM510 1018q14 78 49 143q27 66 77 112t118 73q57 23 118.5 23.5t118.5 -23.5 q57 -29 99.5 -76t60.5 -109q24 -131 -35 -252q-47 -133 -162 -219q-59 -31 -125.5 -40t-128.5 18q-66 25 -119 76t-65 124q-20 72 -6 150zM568 1014.5q-7 -60.5 7 -115.5q10 -66 58.5 -111t107.5 -67q37 -16 78 -16q31 0 58.5 8t54.5 20q76 57 117 148q10 16 10 28 q25 53 33 109.5t-5 111.5v-2q-14 53 -52 95.5t-91 68.5h4q-49 18 -96 19q-51 0 -100 -17h2q-98 -37 -146 -143q-4 -10 -5 -14t-5 -9q-23 -53 -30 -113.5z" />
<glyph unicode="1" horiz-adv-x="1067" d="M6 367q90 199 185.5 394t187.5 377.5t177 349.5t157 308q49 -6 102 -19.5t100.5 -37t86.5 -56t59 -75.5v-41q-51 -123 -103.5 -252t-111.5 -266q-80 -190 -177.5 -407.5t-201.5 -440.5q-76 -45 -133 -45q-39 0 -73 11t-75 26q-8 4 -15 6t-17 6h4q-53 12 -96.5 48 t-55.5 114zM66 381q6 -53 42.5 -82t84.5 -41q72 -25 127 -40t110 13q180 385 321.5 715t258.5 621q-20 39 -52 68.5t-69 50t-78 32t-78 15.5q-147 -285 -315 -617t-352 -735z" />
<glyph unicode="2" horiz-adv-x="1822" d="M6 471q16 47 23.5 66.5t17.5 35.5q25 59 52.5 111.5t56.5 103.5q6 12 15 29t19.5 35t20.5 35.5t16 27.5q113 27 237 62t224 63l43 11q111 29 221.5 66.5t208.5 78.5q6 4 3 1t1 1q47 23 92.5 44.5t71.5 55.5q6 23 -7 47.5t-42 34.5q-23 10 -45.5 14.5t-46.5 4.5 q-41 0 -88 -11.5t-92 -25.5q-12 -6 -29.5 -15.5t-44.5 -19.5q-31 -12 -69 -34.5t-115 -75.5q-10 23 -22.5 51t-27 58t-26.5 57.5t-23 48.5q-12 20 -26.5 47.5t-27.5 56.5t-24.5 55.5t-19.5 48.5q129 111 269.5 165.5t271.5 54.5q104 0 204.5 -28t186.5 -81h-4 q98 -45 174 -120t117 -173h-3q39 -70 45.5 -151.5t-12.5 -159.5q-4 -6 -5 -13.5t-5 -13.5q-25 -55 -57.5 -99t-72.5 -80t-85 -67.5t-90 -62.5v2l-43 -31q-53 -29 -106.5 -57.5t-110.5 -50.5q98 -23 188.5 -41.5t188.5 -24.5l28 -57q-47 -111 -105.5 -222.5t-125.5 -234.5 q-170 2 -347 24.5t-355.5 68.5t-352.5 116t-340 168zM76 510q156 -94 319.5 -161.5t329.5 -110.5t330 -63.5t319 -22.5q55 104 105.5 201.5t95.5 197.5q-147 12 -296 49t-308 74q125 0 240.5 48t220.5 107q47 33 94 65t89 68.5t75.5 80.5t54.5 102q16 66 9 138.5t-40 137.5 q-41 92 -113.5 163t-164.5 114q-88 55 -192.5 80.5t-213 20.5t-213 -44t-192.5 -113q37 -86 83 -166.5t80 -172.5q51 37 106.5 59t102.5 49q82 29 167 43t159 -20q20 -8 34.5 -23.5t23 -36t9.5 -41t-8 -39.5q-39 -59 -94 -87.5t-117 -57.5q-100 -41 -212.5 -82t-235.5 -72 q-111 -31 -225.5 -64.5t-239.5 -62.5q-47 -86 -98 -173t-84 -185z" />
<glyph unicode="3" horiz-adv-x="1654" d="M6 385q16 74 41 161t45 159v-3q4 18 13.5 50t18.5 67t18.5 65.5t13.5 49.5q43 -14 74.5 -23.5t41.5 -15.5q10 -4 22.5 -10t6.5 0q111 -45 224.5 -72t224.5 -37q6 0 12 -1t14 -1q10 -2 19 -2h16h39q47 0 91 8t67 39v2q6 10 -11.5 21.5t-35.5 19.5q-27 16 -60 20.5t-67 6.5 q-6 2 -21 2q-12 0 -18 2h2q-10 2 -31 2h-29h-35q-23 0 -56.5 4t-96.5 16q6 10 12 40l8 40l2 -4q12 53 27.5 123t33 141.5t34 139t30.5 118.5q59 -29 109.5 -46t94.5 -28.5t82 -17.5t75 -12h-2q6 -2 20 -2q6 -2 17 -2h14l-12 4h2q-98 47 -196.5 77t-203.5 54q-41 2 -71.5 7 t-59.5 9q-23 4 -47 8.5t-86 8.5q25 92 44.5 146.5t41.5 105.5q4 10 12.5 29.5t16.5 40t15 39t11 28.5q31 0 57.5 3t45.5 13l26 -6q6 2 23 2h23q45 0 83.5 -5t75.5 -9q6 -2 19 -2q12 0 18 -2q111 -20 215.5 -64.5t198.5 -99.5q61 -41 125.5 -90t105.5 -109q29 -43 49.5 -103 t1.5 -120v2q-4 -14 -9 -30.5t-13 -36.5q-23 -53 -56.5 -94.5t-74.5 -73.5q66 -111 90.5 -246t-16.5 -266l-9 -19q-55 -127 -161.5 -203.5t-227.5 -109.5l11 2q-98 -35 -202 -47t-208 -12q-61 0 -130 3t-130 7q-23 4 -45.5 7t-44.5 7h2q-92 14 -184.5 35.5t-178.5 69.5l2 -3z M74 426l22 -8q49 -29 104.5 -46.5t113 -29.5t114.5 -20.5t111 -18.5q162 -12 323.5 -10t308.5 55q102 31 194.5 95t133.5 175q23 68 25 136.5t-11.5 134t-40 128t-63.5 116.5q57 41 105.5 94t64.5 135q20 47 3 98t-46 90q-47 59 -104.5 106.5t-116.5 84.5q-94 53 -194.5 95 t-207.5 62q-57 6 -115.5 13.5t-115.5 3.5l-18 4q-18 -10 -30.5 -12t-25.5 -2q-29 -68 -56.5 -135.5t-45.5 -141.5q53 -4 105.5 -16.5t111.5 -14.5q111 -27 215 -57.5t205 -77.5q18 -12 40.5 -28.5t26.5 -40.5q-16 -23 -38.5 -33t-47 -12t-50 0t-50.5 4q-76 10 -149.5 24.5 t-143.5 46.5q-33 -113 -58.5 -227.5t-51.5 -230.5q57 -10 102 -11q27 0 51.5 -1t50.5 -3q49 -4 94.5 -8t86.5 -27q33 -14 54 -41.5t1 -60.5q-31 -43 -71 -64.5t-85 -28.5t-93 -5t-93 4q-111 10 -228.5 37.5t-228.5 70.5q-16 4 -31.5 13.5t-37.5 15.5q-29 -104 -60 -210.5 t-59 -219.5z" />
<glyph unicode="4" horiz-adv-x="1533" d="M6 950q61 125 126 242t140 240q205 98 378 159.5t333 114.5q27 8 67 20.5t70 22.5q98 -43 197.5 -92t198.5 -111q-31 -92 -74 -198.5t-86 -206.5q25 -8 53 -13q23 -6 44 -11t50 -15l25 -45q-10 -35 -23.5 -70t-27.5 -69q-8 -25 -19.5 -61t-23 -72.5t-21.5 -71.5t-16 -58 q-12 2 -36 5.5t-50.5 6.5t-51 6t-38.5 5q-4 2 -12.5 3t-14.5 3q-23 -61 -48.5 -132t-53 -143.5t-55 -143t-52.5 -132.5h-22q-16 0 -34 -1t-34 -1h-23q-98 0 -205.5 18.5t-230.5 45.5q57 141 116.5 286.5t113.5 274.5q-12 4 -25.5 6t-28.5 6q-141 35 -290.5 76t-315.5 106z M82 989q168 -66 335 -107.5t326 -80.5q-55 -129 -113.5 -268.5t-117.5 -292.5q111 -25 219.5 -40.5t218.5 -9.5q59 143 110.5 284.5t98.5 277.5q49 -6 98.5 -16.5t100.5 -16.5q25 86 54 169t54 161q-45 16 -91 24t-93 25q47 111 89 212t79 199q-178 102 -358 179 q-182 -59 -378 -125t-409 -168q-59 -98 -113.5 -195.5t-109.5 -210.5zM684 1208q92 51 179 89t179 77q-29 -53 -54 -109.5t-48 -109.5q-66 10 -129 26.5t-127 26.5zM848 1237h6h-2q16 -4 29.5 -7l31.5 -7q8 14 13.5 26.5t11.5 28.5q-23 -10 -44.5 -20.5t-45.5 -20.5z" />
<glyph unicode="5" horiz-adv-x="1736" d="M6 543q47 104 113.5 212.5t140.5 231.5q154 -86 299.5 -126t274.5 -52h-3q20 -2 42 -3t40 -5h-2q57 -6 105 -6q27 0 50.5 2t39.5 12q-12 51 -62.5 83t-97.5 54q-92 29 -187 51.5t-206 32.5q-6 2 -14 2t-15 2h2q-23 2 -41 5t-43.5 5.5t-62.5 5.5t-92 5q137 229 275 441 t286 411q258 -72 480 -170.5t403 -227.5q-20 -70 -49 -150.5t-76 -197.5q-61 27 -132 57.5t-145 61.5t-148.5 61.5t-144.5 57.5q0 -4 -3 -7t-3 -8q121 -27 246 -84q80 -41 156.5 -90t132.5 -129q53 -74 65.5 -166t-10.5 -178l-4 -6q-4 -8 -5 -13t-5 -13 q-49 -117 -146.5 -200t-214.5 -132h2q-129 -53 -269 -75t-288 -22h-47h-25q-12 0 -22 3q-61 6 -128 14t-132.5 24.5t-130 43t-121.5 69.5l-4 12l-25 19l-14 22l-8 4zM72 563l16 -26l8 -5l15 -26l28 -19v-14q51 -37 111.5 -60.5t124 -39t127 -23.5t125.5 -14 q162 -6 317.5 11.5t296.5 76.5q111 45 195 120.5t123 186.5q25 78 12.5 160t-60.5 149q-53 74 -126.5 121t-155.5 86q-63 31 -136 54.5t-145 33.5q16 37 38 72t38 66q295 -104 559 -228q23 57 42.5 113.5t35.5 114.5q-172 123 -371.5 212t-433.5 154q-117 -154 -234.5 -337 t-242.5 -392q55 -2 108.5 -9t106.5 -14q106 -10 201.5 -32.5t193.5 -53.5q29 -14 61.5 -31.5t59.5 -41t44 -55t15 -72.5q-35 -37 -80 -50.5t-93 -14.5t-98 6.5t-95 9.5q-135 14 -273.5 48t-261.5 105q-53 -82 -102 -166t-94 -176z" />
<glyph unicode="6" horiz-adv-x="1419" d="M9 697q-9 124 46 253l19 43l4 6q23 53 57.5 97.5t79.5 87.5l-2 -2q193 193 374 352.5t355 306.5q123 -47 242 -98t229 -111q-45 -47 -99 -105.5t-110.5 -121t-114 -124.5t-108.5 -120q-12 -12 -24.5 -25.5t-24.5 -25.5q47 45 97 92t85 80q92 -59 153.5 -141t94.5 -170 q25 -92 24 -187.5t-28 -183.5l-8 -25q-53 -123 -138.5 -224t-207.5 -163l2 2q-133 -63 -277 -63q-78 0 -148.5 15.5t-142.5 39.5h2q-119 31 -214 107t-151.5 180t-65.5 228zM67 740.5q3 -119.5 55 -221t145 -176.5t212 -105q129 -43 258 -52.5t258 54.5q111 51 184.5 146 t116.5 206q29 86 30 175t-23 169q-33 82 -82.5 153.5t-120.5 118.5q-72 -66 -144.5 -137.5t-152.5 -148.5l20 -7q29 0 47 -6q29 -18 56.5 -40.5t40.5 -57.5q20 -33 22 -71t-6 -72q-18 -37 -48 -60.5t-67 -34t-75.5 -9.5t-73.5 11q-37 16 -65.5 42t-53.5 57 q-12 29 -20.5 57.5t2.5 63.5l18 20q211 229 387 423t336 366q-86 45 -185.5 88t-203.5 84q-160 -135 -329 -286t-355 -337q-43 -39 -75 -79t-50 -91q-61 -123 -58 -242.5zM639 788q-6 -16 1 -34.5t13 -36.5q45 -61 105 -88h-2q27 -8 65 -8q31 0 60.5 10t44.5 33q2 25 0 53 t-19 55q-12 29 -34.5 48.5t-45.5 35.5q-8 0 -16 1t-18 1l-74 19q-20 -23 -40 -43.5t-38 -42.5zM834 854h4h-4z" />
<glyph unicode="7" horiz-adv-x="1282" d="M6 262q43 66 90 137.5t95.5 143t93.5 139.5t84 127q82 125 158.5 241.5t152.5 227.5q-49 16 -100.5 32.5t-104.5 32.5q-35 10 -77 23.5t-87 29t-89 31t-79 27.5l35 45t43.5 54.5t43 53t32.5 42.5q33 43 71 92t97 121q233 -59 438 -141t365 -205l8 -54 q-141 -276 -329.5 -616t-403.5 -707q-131 20 -260 45t-277 78zM90 301q111 -39 217.5 -59.5t216.5 -36.5q215 369 386.5 676t308.5 583q-156 123 -347.5 201t-402.5 131q-57 -70 -113.5 -147.5t-119.5 -157.5q137 -51 271 -89t257 -83q-150 -223 -315.5 -473t-358.5 -545z " />
<glyph unicode="8" horiz-adv-x="1792" d="M13.5 685q-19.5 108 27.5 218q8 31 25 49q27 61 72.5 109.5t100 85.5t114 64.5t112.5 50.5q35 12 68.5 24t68.5 23l-53 57q-45 49 -64.5 115.5t9.5 132.5q6 10 10 20.5t14 20.5l-2 -2q33 55 82 96t106.5 67.5t121 40t124.5 13.5h23q143 -4 276 -46t256 -110 q66 -39 124.5 -90t99.5 -117q37 -61 52 -129.5t-12 -140.5l3 2q-4 -12 -7.5 -20.5t-5.5 -12.5q-25 -59 -74 -103t-104 -77q-6 -4 -15.5 -7t-15.5 -7l74 -86q23 -37 42.5 -79t30.5 -87t11 -92q0 -46 -16 -93v5q-2 -10 -7.5 -22.5t-11.5 -22.5q-55 -135 -162.5 -235.5 t-255.5 -147.5l5 2q-76 -29 -154 -41.5t-156 -12.5q-104 0 -205.5 17.5t-199.5 48.5q-129 47 -248 121.5t-205 197.5q-59 92 -78.5 200zM73 729q13 -111 79 -203q78 -113 192.5 -185.5t243.5 -119.5q166 -51 338 -63.5t331 47.5q135 41 232.5 140t144.5 228q14 39 13.5 80 t-12 80t-30 76t-38.5 72q-29 39 -59.5 73.5t-67.5 67.5q33 20 66.5 27.5t60.5 23.5q47 29 91 68t54 92q23 59 9.5 119.5t-48.5 113.5q-39 61 -95 109.5t-116 87.5q-119 66 -248 105.5t-266 43.5q-111 4 -217 -36.5t-166 -133.5q-37 -53 -21.5 -118.5t56.5 -112.5 q33 -31 62.5 -61.5t58.5 -63.5q-63 -10 -124.5 -30.5t-127.5 -45.5q-49 -20 -101.5 -44.5t-100.5 -56.5t-87 -73t-61 -92q-59 -104 -46 -215zM635 696.5q-4 34.5 12 69.5q25 53 75 80.5t105 38.5q131 27 256 -19q35 -14 72 -38.5t64.5 -57.5t37.5 -74t-8 -88 q-23 -61 -79 -80.5t-109 -19.5q-78 -4 -149.5 8t-143.5 39q-35 6 -63.5 26.5t-47 50.5t-22.5 64.5zM696 708.5q6 -22.5 21.5 -42t39 -34t50.5 -20.5q59 -23 119.5 -36t120.5 -13q10 0 19 1t19 1q31 0 64 8.5t43 30.5v2q14 37 4 69t-34.5 57.5t-56.5 46t-63 32.5 q-37 12 -72.5 19.5t-70.5 7.5q-49 0 -84 -9q-37 -6 -67.5 -21t-42.5 -42l-5 -12q-10 -23 -4 -45.5zM1070 1451q-7 19 3 42q33 47 96 47q29 0 58.5 -9t56.5 -22q20 -8 39.5 -23.5t33 -33.5t19.5 -39.5t0 -44.5q-18 -27 -43.5 -35t-54.5 -4t-56.5 15.5t-52.5 23.5 q-18 6 -39.5 18.5t-37 29t-22.5 35.5zM1128 1481q2 -16 31 -33t58 -27q23 -12 48 -23.5t50 -13.5q-10 23 -37 45.5t-59 34.5q-14 8 -32 13.5t-40 5.5q-16 0 -19 -2z" />
<glyph unicode="9" horiz-adv-x="1443" d="M6 348q55 57 116.5 119.5t124 125t123 122t113.5 110.5q-111 57 -185.5 145.5t-96.5 192.5q-41 172 26 334q18 39 37 74l-4 -8q37 78 91.5 133t119 91t136 52t145.5 16q94 0 185 -25.5t165 -72.5q86 -49 158.5 -114.5t117.5 -153.5q47 -72 56.5 -162t-15.5 -170v6 q-2 -16 -6 -30.5t-8 -24.5q-8 -16 -16.5 -29.5t-18.5 -25.5q-104 -162 -231 -326t-269 -350q-20 -27 -45.5 -60.5t-53.5 -69.5t-55.5 -71t-49.5 -61q-160 37 -329 96t-331 137zM98 377q137 -66 279.5 -116t279.5 -81q195 252 367 468t301 419q14 18 23.5 42t9.5 40 q23 74 13.5 153.5t-52.5 145.5q-41 86 -111.5 148.5t-150.5 109.5q-86 53 -193.5 76.5t-212 10.5t-193.5 -69.5t-141 -162.5q-51 -86 -66 -176.5t7 -188.5q29 -98 90.5 -177t149.5 -124q92 78 168.5 153.5t154.5 143.5l-26 4q-10 0 -16.5 2t-16.5 4q-31 16 -57.5 43 t-43 59.5t-19.5 69.5t13 72q16 33 45 51.5t64 28.5q41 2 75.5 -1t69.5 -20q27 -16 46.5 -40.5t35.5 -53.5q16 -27 17 -55q0 -16 -1 -29.5t-3 -28.5l-11 -16l-12 -16q-184 -193 -404.5 -409t-478.5 -480zM703 1387.5q4 -27.5 18 -52t37.5 -45t50.5 -33.5q-4 -4 6 -4h10 l72 -12q12 12 20.5 22.5t18.5 22.5l6 2v6q6 16 5 38t-11 38q-16 27 -32.5 48.5t-39.5 35.5l4 -2q-25 10 -49 13t-51 3h-16q-14 -6 -25.5 -11t-15.5 -15q-12 -27 -8 -54.5z" />
<glyph unicode=":" horiz-adv-x="755" d="M6 399q20 41 48 97.5t50 97.5q16 35 38 74t57 110q98 -29 183 -49.5t157 -32.5l16 -61q-14 -31 -29.5 -62.5t-29.5 -64.5q-23 -51 -51.5 -108.5t-69.5 -139.5q-51 2 -103.5 9t-100.5 22.5t-90 41t-75 66.5zM70 426q51 -66 125.5 -86.5t160.5 -22.5q41 82 78 164t78 160 q-76 12 -149.5 29.5t-147.5 40.5q-35 -72 -75 -141.5t-70 -143.5zM281 909q8 14 21 37t27.5 46.5t27 45t18.5 35.5q20 33 40.5 71t65.5 109q78 -16 153 -46t116 -85l-2 -55q-10 -16 -23 -45q-6 -12 -10 -24.5t-8 -28.5q-6 -12 -12.5 -28.5t-10.5 -29.5q-4 -6 -12 -24.5 t-17.5 -38t-16.5 -37.5t-9 -25q-80 37 -129 53.5t-90 28.5q-10 2 -27.5 7.5t-36 11.5t-36 12t-29.5 10zM354 948q66 -23 131.5 -39t124.5 -47q29 55 47.5 110.5t47.5 104.5q-37 51 -95.5 75t-117.5 38q-35 -57 -67 -116.5t-71 -125.5z" />
<glyph unicode=";" horiz-adv-x="1189" d="M6 -311q117 215 238 425t221 390q14 25 33.5 59.5t41 69.5t41 68.5t33.5 58.5q41 -8 88.5 -17.5t95.5 -18.5t93 -18.5t82 -17.5l16 -59q-57 -123 -120.5 -254t-131.5 -273q-20 -43 -44.5 -93t-50.5 -103t-51.5 -106.5t-47.5 -100.5q-18 -4 -55 -10t-56 -11 q-61 -16 -122.5 -28t-121.5 -12q-82 0 -182 51zM78 -274q47 -25 101 -28t110.5 4t114 21.5t110.5 24.5q117 248 225.5 466t200.5 417q-72 16 -151.5 30.5t-159.5 30.5q-129 -223 -266.5 -456.5t-284.5 -509.5zM700 901q10 20 26.5 50t35 61.5t36 62.5t29.5 53q6 10 17.5 29 t23 39.5t21.5 38.5t14 29q88 -23 165 -58.5t116 -101.5l-2 -41q-18 -51 -41 -100q-6 -12 -16.5 -38t-22.5 -55.5t-22.5 -56.5t-16.5 -41q-6 2 -20.5 7t-32 11.5t-32.5 12.5t-22 8q-55 23 -116.5 45.5t-139.5 44.5zM776 944q70 -20 135.5 -46t132.5 -50q25 57 44 109.5 t42 105.5q-33 59 -91 89t-124 46q-33 -59 -67.5 -124.5t-71.5 -129.5z" />
<glyph unicode="&#x3c;" horiz-adv-x="1196" d="M6 1145q309 123 573.5 204t493.5 134q18 -53 40 -118t38 -114q2 -8 7 -23.5t11.5 -32.5t12.5 -32.5t8 -21.5q-35 -14 -82 -32.5t-98.5 -39t-101.5 -41t-87 -37.5q-41 -16 -84 -33.5t-84 -35.5q25 -41 47.5 -83t44.5 -85q41 -74 82 -147.5t86 -145.5l-24 -72 q-35 -35 -71 -68.5t-70 -64.5q-18 -16 -47 -41t-60 -52.5t-58.5 -53t-45.5 -43.5q-12 25 -31 54.5t-37 60t-35.5 60t-30.5 52.5q-55 96 -109 193.5t-105.5 202t-97.5 217t-85 239.5zM84 1124q41 -131 96.5 -255t118.5 -243.5t131 -237.5t133 -234q78 72 150.5 136t144.5 130 q-78 125 -148.5 257t-146.5 261q154 59 288 116.5t263 106.5q-23 63 -46.5 127t-45.5 131q-211 -51 -445.5 -120.5t-492.5 -174.5z" />
<glyph unicode="=" horiz-adv-x="1429" d="M6 596q4 6 14.5 32.5t14.5 33.5q18 45 44.5 85.5t49.5 81.5v-2q23 29 43.5 67t56.5 118q129 -35 268.5 -70t276.5 -67.5t266 -59.5t238 -45q-10 -33 -23.5 -73t-29 -82t-31 -83.5t-27.5 -76.5l-82 -60q-248 0 -518 44t-561 157zM80 635q270 -104 529 -144t501 -40 q29 72 51.5 139t42.5 133q-217 39 -452.5 93t-497.5 126q-39 -78 -93.5 -150.5t-80.5 -156.5zM281 1133q8 12 19 31.5t25.5 41t28 42t23.5 32.5v-2q14 23 28.5 46.5t33 51t42 60t58.5 73.5q254 -57 473 -127.5t411 -175.5q-12 -39 -15 -52t-3 -21q-10 -41 -21.5 -84 t-25.5 -84l-94 -60q-104 27 -224 55.5t-246 58.5t-256 58.5t-257 55.5zM365 1174q262 -53 490 -107t443 -109q18 53 31.5 107.5t24.5 103.5q-174 98 -376 162t-431 115q-51 -66 -94 -135.5t-88 -136.5z" />
<glyph unicode="&#x3e;" horiz-adv-x="1206" d="M6 807q186 39 345 78t300 80q-25 59 -50.5 116.5t-47.5 116.5q-16 39 -35.5 86t-40 95t-39 95.5t-32.5 86.5q96 43 145 60t82 27.5t70.5 24t91.5 35.5q129 -236 228 -468t177 -472l-51 -80q-221 -117 -493.5 -217t-602.5 -199q0 12 -2 31t-3 39t-3 37.5t-2 30.5 q-6 41 -12 92t-12.5 104t-9.5 105.5t-3 95.5zM66 766q6 -106 18 -209.5t25 -214.5q305 92 560 187t470 206q-78 240 -171.5 463t-209.5 440q-63 -29 -134 -46t-143 -48q59 -154 126 -303t126 -303q-154 -47 -317.5 -90t-349.5 -82z" />
<glyph unicode="?" horiz-adv-x="1497" d="M6 143q6 14 13.5 36t15.5 44.5t15 43t13 34.5q16 41 33 82t33 80q4 10 14.5 33.5t22.5 50t23.5 49t17.5 33.5q39 -14 88 -30.5t101.5 -33t103.5 -31t94 -24.5h-2q23 -6 49 -12.5t49 -14.5l21 -51q-12 -35 -27.5 -74t-30.5 -75q-8 -23 -21.5 -56.5t-26.5 -70.5t-25.5 -71 t-18.5 -56q-156 16 -291 45.5t-264 68.5zM63 1501q39 80 93.5 144.5t119 112.5t136 80t145.5 50h-2q45 10 92 15.5t94 5.5q104 0 200.5 -24.5t182.5 -69.5h-2q100 -41 174 -122t119 -173l-2 2q47 -86 69 -182.5t-1 -190.5l2 -4q-2 -10 -6 -20.5t-11 -26.5q-31 -72 -89 -126 t-140 -65l6 2q-70 -14 -135.5 -19t-124.5 -9q-51 -16 -92 -53t-64 -89q-4 -6 -13 -40.5t-19 -75.5q-51 14 -120 33.5t-141.5 41t-142 41t-123.5 33.5q33 72 73 142.5t88 133t106.5 111.5t130.5 78h-4q74 31 149.5 40t153.5 13q8 0 15 1t15 1q29 2 52.5 8.5t33.5 24.5 q2 33 -15 60.5t-45 51t-61.5 42t-64.5 32.5q-35 14 -71 23.5t-70 9.5q-33 0 -58 -8q-53 -12 -97 -68.5t-79 -132.5q-45 14 -105.5 35t-123 44.5t-122.5 46t-106 40.5zM82 190q111 -35 219.5 -59.5t224.5 -36.5q29 86 61.5 170t61.5 164q-104 29 -211.5 58.5t-212.5 64.5 q-43 -86 -74.5 -174t-68.5 -187zM139 1542q90 -37 178.5 -69.5t178.5 -61.5q31 63 81 112.5t128 65.5q53 18 113.5 9t117.5 -33q37 -16 76 -38t69.5 -50.5t48 -64.5t9.5 -81q-18 -53 -68.5 -73.5t-99.5 -24.5q-76 -4 -154 -10t-149 -37q-59 -23 -107.5 -63t-87.5 -89 t-69.5 -105.5t-55.5 -111.5q106 -31 205.5 -59.5t204.5 -57.5q25 88 92.5 151.5t150.5 86.5q63 4 128 10t128 17q63 8 106.5 60.5t57.5 113.5q20 86 0 175t-65 169q-41 86 -111.5 161.5t-163.5 116.5q-119 63 -256 84t-278 -14q-129 -29 -240.5 -100.5t-167.5 -188.5z" />
<glyph unicode="@" horiz-adv-x="1783" d="M10.5 992.5q12.5 156.5 73.5 303.5q12 33 29.5 68t40.5 70l-7 -7q47 88 113 159t143.5 124t164.5 90t177 58q57 14 110.5 19t107.5 5q117 0 227 -28.5t203 -88.5l-4 2q111 -53 191.5 -147t133.5 -205q43 -104 57.5 -223t-10.5 -231q-10 -29 -17 -49.5t-13 -37.5 q-61 -147 -197 -258q8 -57 11 -84.5t4 -42t0 -21.5t-1 -22q2 -23 3 -44t5 -46l-36 -63q-92 -74 -190.5 -125t-217.5 -72v2q-59 -14 -127 -14q-78 0 -159 15.5t-158 35.5h2q-10 0 -19.5 2t-15.5 4q-102 27 -194.5 77t-169 121t-135 159t-91.5 188q-47 150 -34.5 306.5z M78 1081q-29 -182 31 -360q33 -98 88 -182t128.5 -150.5t160.5 -115t186 -74.5q117 -27 227.5 -47.5t226.5 2.5q104 16 192.5 63t174.5 113q-4 53 -2 105t-8 106q-63 -53 -139 -89t-158 -40q-92 -6 -185.5 14t-185.5 47q-129 43 -227.5 132t-138.5 220q-47 111 -37 232 t67 219q53 111 145.5 184.5t202.5 102.5q111 25 218.5 10.5t201.5 -64.5q78 -35 135.5 -94t94.5 -131q31 -72 41 -150.5t-17 -154.5q-23 -47 -43 -86t-49 -76q-23 -29 -57.5 -41t-63.5 -2q-23 18 -28 43t-1.5 51.5t11.5 52t14 48.5q25 66 53.5 128t51.5 132q-37 4 -73 22.5 t-83 22.5l-8 -21l-15 -20v-2q-10 29 -32 53q-23 29 -50.5 51.5t-62.5 32.5q-51 29 -110.5 33t-114.5 -19q-66 -25 -113 -70.5t-78 -105.5q-33 -57 -38 -123.5t15.5 -128t64.5 -108.5t112 -66q35 -16 75 -19t78 -1q16 4 35 13t37 13q-10 -20 -20.5 -37.5t-18.5 -33.5 q4 -8 6 -13.5t13 -11.5l12 -20l4 -11q31 -27 59.5 -46t65.5 -29q86 -33 178 -15.5t164 72.5q78 57 130 137t79 172q23 106 10.5 217t-53.5 211q-51 104 -128 194.5t-181 141.5q-135 86 -294 104.5t-319 -16.5q-162 -37 -303 -130t-227 -249q-98 -160 -127 -342zM471 1039.5 q-2 -93.5 33 -179.5q37 -121 135 -205t219 -127h-4q80 -23 158 -42t155 -19h13q12 0 22 2q35 0 77 15.5t83 39.5q-59 -18 -121 -18q-35 0 -69.5 5t-63.5 15q-39 14 -70.5 37t-66.5 51l-8 11l-9 18q-10 4 -14 21l-20 20l8 18h-31q-35 0 -70.5 4.5t-70.5 20.5q-51 14 -90 47 t-65 75t-39 91t-13 100q0 68 29 136q4 6 7 15t11 23v-2q39 76 98.5 133.5t145.5 88.5q57 25 123 24q68 0 147 -35l-4 2q35 -14 66.5 -35.5t58.5 -54.5q47 -8 74.5 -16t48.5 -14q10 -4 17 -6.5t18 -6.5q-37 53 -82 96.5t-105 67.5q-57 33 -123.5 48.5t-134.5 15.5 q-66 0 -127 -13h2q-92 -23 -164.5 -83t-117.5 -152q-10 -14 -16.5 -26.5t-12.5 -26.5q-35 -86 -37 -179.5zM811 1128q27 49 80 63.5t96 -5.5q45 -16 72.5 -56t15.5 -83q-10 -29 -30.5 -51.5t-47 -35t-56.5 -14.5t-56 10q-49 23 -73 71t-1 101zM868 1126q-16 -35 4.5 -67.5 t57.5 -48.5q12 -6 28 -6q38 -1 54 36q10 27 -12.5 53.5t-55.5 36.5q-27 10 -39 11q-29 0 -37 -15zM1322 880.5q-5 -32.5 15 -55.5h4q12 0 23 11q43 57 76 139q16 53 14 110.5t-22 112.5q-10 -31 -17.5 -55.5t-17.5 -46.5q-6 -16 -15.5 -30.5t-15.5 -31.5l-25 -63 q-2 -6 -3 -13.5t-3 -13.5q-8 -31 -13 -63.5zM1339 975l4 4z" />
<glyph unicode="A" horiz-adv-x="1579" d="M-178 227q92 150 207.5 330t264 397t333 475.5t411.5 563.5q18 6 50 16t51 16q174 57 372.5 117t446.5 101q-10 -20 -23.5 -52t-28 -65t-27.5 -63.5t-21 -51.5q-139 -319 -260 -591.5t-231 -505t-212.5 -428t-204.5 -361.5l-65 -47q-80 -10 -161 -15.5t-155 -5.5h-92 q8 23 20.5 54.5t27 65.5t27.5 66.5l23 57.5q27 59 52.5 126t52.5 136h-6q-41 -2 -79 -4t-79 -6q-33 -41 -63.5 -77t-61.5 -70q-27 -31 -56.5 -67t-60 -72t-58.5 -69.5t-50 -60.5q-86 10 -171 28.5t-173 61.5zM-102 264q59 -29 123.5 -41t136.5 -22q72 92 158.5 191.5 t185.5 215.5q66 6 127 10.5t133 8.5q-55 -141 -107.5 -267.5t-99.5 -242.5q29 -1 59 -1q136 0 287 19q106 172 213 380t223.5 460t247.5 550t287 648q-217 -37 -420 -101.5t-387 -123.5q-225 -305 -404.5 -556t-320.5 -458t-249.5 -372t-192.5 -298zM666 879 q98 123 210.5 260t249.5 297q-61 -141 -114.5 -271t-100.5 -247q-66 -12 -126 -20.5t-119 -18.5zM786 952q2 0 3.5 1t5.5 1q16 4 37.5 5.5t41.5 5.5q20 47 40 96t42 100q-47 -55 -88 -107.5t-82 -101.5z" />
<glyph unicode="B" horiz-adv-x="1656" d="M-39 225q33 266 122 610.5t234 794.5q72 49 139.5 87t135.5 73h-2q113 59 230.5 105.5t246.5 80.5q100 29 198.5 45.5t196.5 16.5q72 0 143.5 -11.5t131.5 -39.5l-2 2q51 -18 89 -52q38 -33 58 -81q18 -42 19 -95q-1 -6 -1 -13q-2 -60 -32 -132q-10 -20 -17.5 -33.5 t-15.5 -28.5q-59 -100 -145 -184t-181.5 -149.5t-193.5 -113.5t-182 -77l-15 -6q133 -16 242 -78q72 -51 83 -136q3 -19 2 -39q0 -67 -28 -138q-12 -27 -25.5 -51t-33.5 -47l4 2q-82 -123 -208 -217.5t-261 -147.5q-104 -39 -209.5 -55.5t-200.5 -16.5q-23 0 -45 1t-45 3 q-119 6 -229.5 33t-202.5 88zM27 266q76 -53 177 -74.5t218 -29.5q45 -4 93 -4q63 0 131 7q120 13 245 60q123 47 235.5 131t186.5 195q33 47 51 96t20 95v10q0 40 -15 75q-17 39 -54 66q-87 51 -193 69q-80 14 -166 14q-28 0 -57 -1l-82 -4t-84 -6q98 27 193.5 51t206.5 67 q80 27 171 71t180 104.5t167 136t131 168.5q41 72 50 132q4 25 4 47q0 33 -8 61q-13 48 -48 81t-82 49q-114 47 -250 47q-25 0 -50 -2q-165 -10 -339 -57q-119 -35 -232.5 -78t-224.5 -102q-61 -31 -120.5 -62.5t-112.5 -70.5q-143 -436 -227.5 -765t-114.5 -577zM313 430 q10 41 28.5 85t33.5 91q16 8 31.5 15.5t33.5 11.5q48 10 98 13q30 2 60 2q20 0 39 -1q37 -2 72.5 -9t61.5 -22.5t38 -39t0 -60.5q-16 -25 -42 -42t-54.5 -27.5t-59 -16.5t-57.5 -10q-64 -8 -124 -11q-14 -1 -27 -1q-45 0 -87 8q-8 0 -11 3t-9 3l-21 4zM381 475q4 0 6 -1 l6 -3q-2 0 -3 1t1 1q10 -2 21.5 -3t21.5 -1h41q31 0 64.5 2t72.5 6q35 4 75 14.5t63 28.5q2 18 -9.5 30.5t-31 21t-45 12.5t-52.5 6h-32q-41 0 -80 -3t-78 -12l-23 -51q-4 -23 -18 -49zM618 1239q6 35 23.5 79t28.5 83q10 4 18 8t17 8q10 4 17 11.5t13 11.5 q53 20 100.5 32.5t100.5 26.5q20 2 45 3t43 -5t26.5 -21t-3.5 -46q-14 -29 -38 -51.5t-49.5 -39t-53 -30t-50.5 -23.5q-53 -20 -105.5 -35.5t-97.5 -19.5l-26 10zM690 1290q37 6 79 19.5t89 29.5h-2l8 2q33 16 71 38t54 51q2 8 -8 11t-23 3q-10 0 -20 -1t-23 -3h3 q-41 -10 -81 -21.5t-89 -27.5l-5 -5q-6 -4 -11 -8t-15 -8q-2 -10 -4 -18.5t-4 -16.5q-6 -12 -9.5 -22t-9.5 -23z" />
<glyph unicode="C" horiz-adv-x="1830" d="M14 528q-6 42 -7 85q0 78 20 165v-2q14 121 77 262q41 98 104.5 198.5t151.5 205.5l-6 -2q74 92 168 180t199.5 163t218.5 130t225 84q86 20 163 30.5t155 10.5q141 0 261 -40t200 -126q111 -124 130 -308q3 -33 3 -66q0 -158 -72 -345q-39 -10 -84 -21.5t-91 -22.5 t-89 -21.5t-78 -18.5q-43 -10 -93 -22.5t-101.5 -24.5t-100.5 -23.5t-88 -19.5v15q0 70 -16 126q-18 62 -60 90q-82 20 -176 21h-41q-10 0 -20.5 -1t-22.5 -3q-82 -6 -163 -41t-146 -101q-82 -82 -121 -182q-10 -23 -17.5 -45t-17.5 -45q-20 -59 -20 -121q0 -59 33 -98 q23 -43 72.5 -66.5t107.5 -31.5q6 -2 16 -2h19q47 0 103 16t114.5 47t115 76t103.5 104q94 -55 168.5 -90t146.5 -63q23 -10 46 -20.5t46 -20.5l-12 -92q-109 -84 -225.5 -153t-233 -117t-231.5 -73.5t-219 -25.5q-33 0 -67 3t-64 11l2 -2q-131 23 -236.5 81t-169.5 151 q-62 86 -80 202zM76 560q18 -108 74 -189q63 -86 162.5 -141.5t222.5 -77.5q53 -10 112 -10q52 0 109 8q121 16 249 60t256.5 115.5t247.5 163.5q-98 41 -191 82t-179 88q-45 -59 -106.5 -103t-128.5 -72q-68 -28 -137 -40q-45 -8 -86 -8q-21 0 -42 2q-66 8 -124 35t-83 78 q-35 51 -35 117q0 68 25 139q23 74 63.5 154.5t112.5 152.5q76 78 173 120t192 52q40 3 80 3q33 0 67 -2q72 -5 137 -23q53 -32 78 -92q22 -52 21 -107v-18q141 33 291.5 70.5t324.5 78.5q58 151 58 282q0 36 -4 70q-20 160 -126 277q-55 63 -136 99t-177 48q-55 7 -113 8 q-44 0 -90 -4q-108 -10 -217 -37q-106 -25 -211.5 -77t-204 -121.5t-185.5 -153.5t-157 -170q-141 -160 -215.5 -322.5t-97.5 -303.5q-18 -75 -18 -145q1 -44 8 -86z" />
<glyph unicode="D" horiz-adv-x="1800" d="M53 242q39 250 123 575.5t223 755.5q27 20 35 28.5t19 18.5q18 23 43.5 45.5t54.5 34.5q104 74 221 129t234 94q111 31 217 48.5t211 17.5q150 0 272.5 -41t200.5 -144v4q61 -55 94 -128.5t40 -158.5q2 -24 2 -49q-1 -62 -13 -130q-18 -94 -56 -189q-25 -53 -54.5 -107.5 t-68.5 -107.5v-2q-147 -211 -333.5 -378t-403.5 -265l6 2q-160 -86 -314.5 -122t-289.5 -44q-23 -2 -47.5 -3t-46.5 -1q-74 0 -144.5 11t-136.5 36l-18 12q-16 10 -32.5 19.5t-37.5 38.5zM117 272q12 -16 31.5 -26t37.5 -21q74 -31 163 -38q48 -4 99 -4q44 0 89 3 q129 10 275 44t294 112q205 94 381 251.5t317 356.5q76 113 120 228.5t54 221.5q2 26 2 51q0 79 -23 149q-30 92 -102 159q-63 80 -158 120t-209 49q-39 3 -80 3q-77 0 -160 -11q-126 -17 -249 -50q-111 -39 -222 -92.5t-210 -124.5q-37 -16 -60.5 -45t-51.5 -52 q-139 -414 -218 -728t-120 -556zM442 532q59 160 123 339.5t150 396.5q31 10 64.5 19t72.5 13t77 4q43 0 85 -5q80 -9 129 -54q65 -49 67 -141q0 -3 1 -5q0 -89 -52 -179q-53 -109 -145 -203t-203 -142q-139 -62 -268 -62q-20 0 -39 1q-16 8 -30.5 11t-31.5 7zM518 575 q18 0 25 -6l-2 4q6 -2 22 -2q55 0 115.5 14.5t126.5 41.5q98 41 175 121t126 178v2q8 12 12 22.5t8 16.5q25 54 25 104q0 13 -2 26q-8 62 -57 99q-33 29 -82 40t-103 11q-41 0 -74.5 -5t-80.5 -15q-43 -111 -76 -208t-66 -190q-25 -66 -47 -129t-45 -125z" />
<glyph unicode="E" horiz-adv-x="1695" d="M6 219q53 264 156.5 608t267.5 803q182 92 391 179t434.5 155t460 110t467.5 44l23 -74q-37 -53 -72 -104.5t-72 -104.5q-74 -113 -159.5 -237.5t-163.5 -225.5q-229 -31 -453.5 -73t-415.5 -76q-20 -4 -38.5 -7.5t-36.5 -7.5q-10 -25 -18.5 -48t-18.5 -46l-45 -104 q78 8 155.5 17t169.5 22l87.5 10t107.5 12t109.5 12.5t95.5 10.5q-20 -25 -49 -63t-59 -79t-56.5 -77.5t-42.5 -59.5q-31 -41 -72 -94t-67 -88q-111 -14 -227.5 -26.5t-209.5 -18.5h2q-35 -4 -67.5 -6t-65.5 -7q-4 -10 -8 -21t-8 -24q-4 -10 -6 -19t-8 -19h157q53 0 121 2 t140.5 5l145 6t138.5 7q-82 -123 -161 -224.5t-150 -193.5h-76q-233 0 -434 25.5t-369 99.5zM72 262q154 -68 356.5 -89t443.5 -21q53 66 108.5 139.5t115.5 157.5q-197 -16 -357 -16q-5 1 -10 1h-317q18 47 36.5 94t40.5 101q131 14 273.5 24.5t308.5 32.5q59 78 120.5 162 t131.5 178q-199 -23 -371 -45.5t-327 -32.5q35 72 66.5 146.5t68.5 160.5q211 41 451.5 87.5t510.5 82.5q111 147 214.5 304t222.5 331q-229 -2 -455.5 -42t-441.5 -103.5t-414 -145t-371 -167.5q-156 -436 -255 -764t-150 -576z" />
<glyph unicode="F" horiz-adv-x="1671" d="M6 223q55 260 160.5 604t267.5 797q182 94 391 182t433.5 156t458 108.5t464.5 40.5l27 -71q-39 -53 -74 -105.5t-68 -101.5q-39 -57 -79.5 -118.5t-82.5 -123t-82 -119t-77 -106.5q-276 -35 -508.5 -75t-437.5 -85q-10 -23 -18.5 -46t-18.5 -46l-33 -70l-12 -36 q63 6 133 14t143 18q41 6 98.5 13.5t119 13.5t121 12t104.5 11q-35 -47 -81 -108.5t-93.5 -126t-90.5 -124t-69 -98.5q-166 -20 -306.5 -35.5t-263.5 -22.5q-12 -35 -22 -69.5t-21 -65.5q-12 -33 -26 -74.5t-29.5 -84.5t-29 -83t-23.5 -69q-4 0 -18.5 2t-31 5t-31.5 5t-19 2 q-72 8 -139.5 23.5t-135.5 56.5zM72 264q59 -35 129.5 -46t144.5 -21q35 98 71 205.5t75 226.5q135 6 276 20.5t307 34.5q55 78 118.5 163t131.5 177q-197 -16 -368 -42t-330 -36q41 72 69.5 146.5t67.5 160.5q211 45 449.5 88t508.5 78q106 141 211 299t224 336 q-227 0 -452.5 -39t-440.5 -103.5t-415 -147.5t-374 -171q-152 -434 -252 -759.5t-151 -569.5z" />
<glyph unicode="G" horiz-adv-x="1980" d="M14 545q-6 44 -6 89q0 86 19 179v-2q10 66 31.5 133.5t50.5 136.5q49 117 120.5 228.5t176.5 228.5q92 100 204.5 193.5t236.5 172t257 137t268 89.5h-4q74 23 143.5 31t135.5 8q160 0 278.5 -59.5t190 -165t96.5 -248.5q11 -70 11 -146q0 -80 -13 -166 q-109 -31 -227.5 -63.5t-235.5 -64t-224.5 -61.5t-195.5 -54v7q0 118 -65 186q-66 69 -177 69q-12 0 -30.5 -1t-34.5 -5q-111 -14 -215.5 -68.5t-179.5 -146.5q-49 -53 -82 -109.5t-58 -114.5q-23 -55 -45 -127q-20 -76 -26 -149q-1 -15 -1 -30q0 -54 17 -99 q14 -51 60.5 -84t105.5 -41q14 -2 26.5 -3t22.5 -1q125 0 246 84q14 10 35 22q-45 -2 -86 -3t-82 -1q-29 0 -66 -1t-74.5 -3t-73.5 -3t-61 -1q16 29 39 68t46.5 82t46 84t38.5 73q6 10 15.5 28.5t19.5 38t19.5 39t15.5 32.5q45 6 99.5 11t111.5 9t113.5 9t107.5 12 q92 8 200.5 19t225.5 23.5t237.5 26.5t241.5 31q-18 -43 -39.5 -88t-46.5 -80q-25 -45 -49 -85t-65 -85q-70 -96 -156 -182t-182.5 -159t-197.5 -132.5t-200 -102.5q-137 -61 -268 -94t-248 -33q-76 0 -133 13h2q-137 20 -235.5 87.5t-153.5 162.5q-59 94 -74 219zM74 574 q14 -117 69 -205q53 -88 145.5 -152.5t221.5 -83.5q58 -13 123 -13q75 0 159 17q158 31 324 103q94 43 190.5 99t185.5 124.5t170.5 148.5t149.5 172q37 39 60.5 78t46.5 82q20 23 32.5 46.5t22.5 45.5q-369 -47 -667.5 -73.5t-554.5 -53.5q-47 -92 -88 -173t-86 -156 q117 4 234.5 6t252.5 8q-41 -35 -76 -68.5t-82 -62.5q-82 -59 -170 -82q-60 -16 -118 -16q-28 0 -56 4q-68 10 -121 50t-69 99q-22 57 -22 124q0 11 1 22q4 79 31 161q25 92 71 187.5t128 193.5q88 104 209.5 169t244.5 81q38 6 73.5 6t68.5 -6q65 -12 113 -45t75 -84 t27 -115q174 47 358 98.5t406 112.5q12 72 12 140q0 96 -25 181q-41 146 -143.5 238.5t-264.5 121.5q-53 9 -113 9q-120 0 -263 -38q-127 -31 -253 -86.5t-244 -129t-224.5 -161.5t-194.5 -185q-156 -174 -240.5 -351t-113.5 -337q-21 -92 -21 -175q0 -39 5 -76z" />
<glyph unicode="H" horiz-adv-x="2091" d="M6 227q45 266 144.5 612.5t257.5 805.5q137 66 297.5 134t369.5 138q-10 -23 -26.5 -57.5t-34 -72.5t-32.5 -73t-24 -55q-41 -94 -75.5 -179t-67.5 -171q-23 -51 -42 -99.5t-38 -95.5q47 8 94.5 14.5t96.5 14.5q63 8 127.5 16t132.5 17q68 111 138.5 227.5t156.5 251.5 v-2q49 86 116.5 193.5t128.5 205.5q205 53 415 94t396 45l29 -71q-242 -362 -453.5 -663.5t-398 -551.5t-348.5 -451.5t-299 -363.5q-66 -8 -119 -10t-100 -2q-43 0 -86 1t-80 3h-27q-18 0 -38.5 1t-38.5 1h-25q10 18 27.5 49t38 63.5t39 64.5t30.5 52q43 78 94.5 162 t104.5 176h-2q-98 -4 -181 -6t-169 -6l-91 -211q-12 -31 -28.5 -73t-35 -86t-34.5 -84t-29 -66q-59 18 -82.5 23t-35.5 10q-47 10 -94.5 26.5t-98.5 48.5zM72 266q47 -29 104 -42t113 -29q47 111 99 233.5t114 263.5q111 10 229.5 12.5t249.5 6.5q-98 -166 -182 -306.5 t-154 -263.5q93 -4 193 -7q18 -1 35 -1q85 0 178 12q131 156 286.5 352.5t336.5 440.5t390 541t449 655q-180 -4 -373.5 -42t-386.5 -87q-160 -262 -294 -479t-251 -404q-150 -16 -290 -36.5t-269 -36.5q72 168 150 363.5t178 418.5q-141 -47 -270 -102.5t-254 -114.5 q-145 -440 -240.5 -770t-140.5 -578z" />
<glyph unicode="I" horiz-adv-x="905" d="M6 184q104 276 265 681t391 943q63 43 132.5 84t138 72t134.5 50.5t121 19.5q35 0 64.5 -6.5t54.5 -22.5l6 -59q-324 -635 -561.5 -1085.5t-403.5 -745.5q-41 -16 -66.5 -22.5t-43.5 -6.5q-41 0 -93 10q-8 2 -16 3t-12 3q-31 8 -62.5 24.5t-48.5 57.5zM68 211 q6 -25 29.5 -35t52.5 -16q51 -10 90 -16q10 -1 21 -1q28 0 56 11q82 147 179.5 327.5t214 401.5t255 486.5t300.5 582.5q-40 26 -96 26h-20q-69 -6 -145.5 -34.5t-156.5 -72.5t-148 -89q-115 -266 -209 -494.5t-170.5 -422t-139 -356.5t-113.5 -298z" />
<glyph unicode="J" horiz-adv-x="1648" d="M-84 317q25 35 60.5 88.5t66.5 92.5l-4 -2l111 157l45 -80q4 -18 18 -38q31 -39 90 -43q12 -2 23.5 -3.5t21.5 -1.5q25 0 51.5 7.5t55.5 25.5q33 20 55 70q111 199 242 444.5t299 554.5q47 86 104 191.5t109 199.5q172 51 330.5 75t306.5 24h38l29 -68 q-272 -451 -506.5 -800t-421.5 -617q-35 -49 -67.5 -95t-59.5 -89v2q-66 -98 -168 -171t-213 -110q-66 -18 -125 -28.5t-114 -10.5q-41 0 -82 5t-76 16q-104 29 -162 110l4 -2q-14 18 -29.5 43t-31.5 53zM-12 334q10 -18 18 -34.5t23 -31.5q49 -76 139 -100q73 -17 149 -17 q106 0 218 33q98 33 186 93.5t141 146.5q98 141 215 308t250 364.5t280.5 427t307.5 497.5q-27 1 -54 1q-127 0 -255 -16q-156 -19 -310 -67q-236 -438 -415 -768.5t-314 -584.5q-16 -33 -42.5 -65t-61.5 -52q-47 -29 -97 -36q-24 -3 -46 -3q-24 0 -46 4q-86 4 -118 64 q-16 16 -23 47q-41 -57 -78 -110.5t-67 -100.5z" />
<glyph unicode="K" horiz-adv-x="1857" d="M6 221q23 141 61.5 303t94 349.5t127 404.5t160.5 467q23 10 57.5 29.5t52.5 31.5q49 27 98.5 53.5t109.5 55.5t134 60.5t172 68.5q-43 -102 -87 -206.5t-87 -207t-83 -200t-73 -183.5q240 190 553.5 426t683.5 512q41 -72 67 -128t48 -109q47 -121 100 -211l-38 -88 q-240 -143 -438.5 -266t-377.5 -234q-135 -86 -256.5 -160t-228.5 -139q35 -80 68.5 -158t68.5 -151h-2q16 -37 37 -83t42.5 -93.5t40.5 -92.5t34 -79q-154 -51 -277 -88t-227 -62q-25 43 -57.5 98.5t-59.5 98.5q-29 47 -58.5 96t-57.5 102v-6q-25 -55 -48.5 -117.5 t-58.5 -167.5q-78 10 -153.5 26.5t-141.5 47.5zM70 264q43 -23 92 -32t102 -17q29 86 69 177t79 196q61 -129 133.5 -246t138.5 -233q168 41 377 110q-63 154 -138 310.5t-147 330.5q254 152 588 359t778 475q-31 45 -55.5 96t-46 104.5t-44 105.5t-50.5 101 q-213 -158 -400.5 -298t-350.5 -265t-304 -235.5t-262 -208.5q72 186 156.5 397t193.5 463q-131 -49 -252 -113.5t-231 -124.5q-86 -242 -155 -449.5t-122 -387t-90 -332t-59 -283.5z" />
<glyph unicode="L" horiz-adv-x="1253" d="M6 213q70 274 191.5 646t312.5 876q147 98 328.5 190t402.5 184q-233 -508 -416.5 -918.5t-312.5 -694.5h98q45 0 90 -1t93 -1q80 0 167 3t181 13l18 -84q-66 -78 -136.5 -163t-123.5 -150q-61 -4 -140 -8.5t-136 -4.5q-174 0 -330 27t-287 86zM72 254q154 -68 360 -85 q106 -9 223 -9q109 0 226 8q104 129 239 283q-167 -15 -311 -15h-55q-168 4 -318 4q121 279 293 664t412 911q-160 -70 -305.5 -144.5t-280.5 -162.5q-182 -485 -300 -839.5t-183 -614.5z" />
<glyph unicode="M" horiz-adv-x="2392" d="M6 254q72 268 205 631.5t342 855.5q27 10 60.5 22.5t68.5 25.5t68.5 26.5t62.5 25.5q80 33 171 67t220 79q-10 -66 -21.5 -139.5t-22.5 -147.5t-22.5 -143.5t-19.5 -126.5q-6 -41 -12 -80t-12 -76q143 166 309 359.5t356 410.5q154 53 300.5 92t305.5 80 q43 10 100.5 24.5t119 31t121 32.5t106.5 29q-188 -395 -349 -730t-308.5 -615.5t-287 -509t-282.5 -410.5l-69 -39q-27 0 -51.5 -1t-49.5 -3q-47 -2 -91 -3.5t-85 -1.5t-87 3.5t-103 7.5q25 61 52 136t56 154.5t57.5 161.5t55.5 162v-2q10 39 25.5 79t27.5 81 q-205 -217 -390 -403.5t-360 -348.5q0 8 -2 29.5t-5 46.5t-5 46.5t-4 29.5v-2q-16 92 -29.5 190t-21.5 205q-57 -104 -109.5 -202.5t-99.5 -203.5q-6 0 -20.5 2.5t-30 5.5t-29.5 6t-18 3q-20 2 -39 5t-40.5 8t-49 13.5t-64.5 20.5zM78 299q45 -16 92 -23.5t100 -17.5 q55 117 127 250t158 287q10 -180 32.5 -334t39.5 -295q166 156 368.5 363.5t458.5 484.5q-96 -279 -172 -508.5t-154 -419.5q66 -7 137 -7q29 0 59 1q104 4 216 8q139 180 273.5 400.5t275.5 487.5t294.5 583.5t332.5 691.5q-129 -37 -251 -67t-236.5 -59.5t-226.5 -59 t-220 -66.5q-236 -276 -426.5 -498.5t-349.5 -408.5q29 180 60.5 383.5t66.5 433.5q-147 -47 -280.5 -104.5t-258.5 -102.5q-201 -465 -326 -808t-190 -595z" />
<glyph unicode="N" horiz-adv-x="2066" d="M6 246q39 272 129 624.5t244 817.5q141 78 280.5 140t298.5 124q39 -291 65 -547t36 -492q33 59 65.5 120t71.5 126q106 186 237.5 413.5t274.5 475.5q223 68 435 113t423 61l27 -70q-233 -365 -443.5 -668.5t-397.5 -555.5t-353 -457t-314 -371q-201 -18 -340 -18 q-29 0 -74.5 1t-74.5 3q-10 49 -20.5 111.5t-20.5 115.5q-37 164 -68 334q-31 -98 -60.5 -186t-55.5 -170q-2 -6 -8.5 -24.5t-12.5 -39t-11 -38t-7 -23.5q-98 16 -180 34.5t-146 45.5zM70 291q47 -20 105 -33.5t118 -24.5q47 141 103.5 309.5t123.5 364.5q23 -221 62 -406.5 t73 -359.5q53 -2 109 -2q42 0 86 1q104 3 221 16q139 158 299 356.5t343 444t389.5 546t437.5 660.5q-205 -16 -401.5 -56.5t-399.5 -101.5q-233 -403 -413.5 -722.5t-324.5 -569.5q-4 264 -30.5 550.5t-67.5 612.5q-129 -51 -243.5 -101.5t-231.5 -113.5 q-145 -446 -233.5 -782t-124.5 -588z" />
<glyph unicode="O" horiz-adv-x="2043" d="M18 529q-8 52 -9 108q0 77 16 160q8 53 26.5 108.5t42.5 112.5q47 111 117 220.5t168 219.5q92 98 202.5 192.5t234.5 173.5t257 139t270 91h-2q72 20 141.5 28.5t135.5 8.5q217 0 369.5 -95t212.5 -270l-2 3q48 -119 48 -252q0 -25 -2 -50q-10 -161 -81 -327 q-70 -166 -199 -330v2q-78 -102 -171 -190t-195.5 -162t-210 -132.5t-213.5 -101.5q-135 -63 -268.5 -94t-256.5 -31q-37 0 -74.5 3.5t-78.5 13.5l4 -2q-131 20 -232.5 82.5t-167.5 148.5q-62 98 -82 222zM78 560q20 -116 80 -208q59 -82 155.5 -141t218.5 -78 q70 -15 148 -15q73 0 152 13q165 27 333 105q104 41 207 96t200 125.5t185 154t162 179.5q90 113 151 231q60 120 88 236q26 105 26 205v21q-3 110 -42 208q-37 104 -111.5 180t-180 117t-237.5 45h-25q-121 0 -257 -35q-129 -31 -255 -88.5t-242.5 -132t-221 -163.5 t-190.5 -181q-141 -154 -225 -315t-113 -308q-14 -76 -14 -146q-1 -54 8 -105zM404 662q-2 17 -2 35q0 47 14 96q25 80 76 168t137 157q86 76 190.5 124t208.5 54q39 7 73 7q70 1 125 -27q81 -40 124 -113q28 -56 28 -125q0 -21 -2 -43q-12 -94 -71 -192q-47 -86 -127 -160 t-174 -121q-88 -42 -176 -62q-56 -12 -105 -13q-28 0 -55 4q-70 6 -129.5 31.5t-92.5 74.5q-35 43 -42 105zM465 690q4 -54 33 -92q29 -41 84 -61.5t114 -28.5q8 -2 23 -2h20q61 0 126 15.5t128 47.5q80 41 147.5 106.5t110.5 137.5q20 27 31 55q31 72 32 138v5 q0 63 -24 113q-33 51 -88 85t-133 34q-14 0 -57 -6q-92 -4 -185.5 -46t-167.5 -108q-57 -47 -94 -103t-61 -116q-6 -16 -13.5 -31.5t-11.5 -33.5q-15 -45 -15 -90q0 -9 1 -19z" />
<glyph unicode="P" horiz-adv-x="1822" d="M6 223q47 266 145.5 609.5t249.5 795.5q20 12 51 33.5t52 38.5q41 29 81 54.5t85 47.5l-4 -2q135 76 283.5 141.5t303.5 106.5q86 20 172 31.5t168 11.5q123 0 222.5 -31.5t158.5 -113.5l-2 2q82 -86 94 -211q2 -21 3 -43q0 -108 -52 -232q-16 -33 -34.5 -68.5 t-43.5 -74.5v-2q-53 -80 -123.5 -150.5t-150.5 -130t-163 -108.5t-161 -86l9 2q-174 -88 -329 -137.5t-296 -77.5h4q-68 -16 -134.5 -27.5t-125.5 -15.5q-23 -53 -43 -106.5t-41 -100.5q-6 -18 -16.5 -46t-22.5 -57.5t-22.5 -56t-16.5 -43.5q-176 0 -301 47zM76 270 q45 -16 95 -24t101 -10q35 92 76 191t84 216q16 -1 33 -1q51 0 111 10q78 12 161 34q135 25 286 72t310 133q74 35 153 80t152.5 100t138 119.5t111.5 138.5q117 181 120 329v9q0 142 -89 234q-47 61 -121 91t-164 38q-36 3 -73 3q-57 -1 -117 -7q-100 -12 -201 -33 q-147 -39 -290.5 -102.5t-272.5 -137.5q-61 -31 -117.5 -72t-109.5 -75q-145 -434 -240.5 -761t-136.5 -575zM565 989q80 190 172 418q25 12 51.5 27.5t55.5 25.5q139 59 268 80q28 4 56 4l38 -2q47 -4 80 -24q32 -19 42 -58q2 -10 2 -21q0 -33 -21 -79q-31 -53 -74 -96 t-92 -78t-100.5 -61.5t-100.5 -47.5q-92 -41 -176 -67.5t-158 -30.5h-26l-7 8zM643 1036q63 4 137 30t156 62q43 18 89 41t89 52.5t79.5 65.5t61.5 81q14 33 9.5 55.5t-21 36t-43 19.5t-53.5 6h-23q-16 0 -26 -2q-66 -10 -128.5 -27.5t-125.5 -46.5q-16 -6 -30.5 -14.5 t-31.5 -16.5q-35 -92 -69.5 -177t-69.5 -165z" />
<glyph unicode="Q" horiz-adv-x="2091" d="M12 521q-3 39 -3 79q0 94 20 193v-2q8 53 27.5 111.5t43.5 117.5q47 106 116 214.5t163 215.5l-2 -2q88 104 197.5 198.5t233.5 173t258 136t269 88.5h-2q76 23 147.5 32t141.5 9q215 0 366.5 -94.5t204.5 -270.5v2q45 -115 45 -249q0 -23 -1 -47q-9 -160 -80 -326 q-68 -156 -187 -312l2 3q-117 -160 -268.5 -295.5t-329.5 -229.5q0 -16 4 -31.5t8 -31.5q4 -27 11.5 -51.5t17.5 -49.5l-61 -90q-23 -8 -45.5 -13t-38.5 -11h2q-41 -12 -89 -27.5t-95.5 -31t-92.5 -30t-82 -26.5q-10 63 -20 92t-21 55v-2q-4 14 -8 27.5t-8 28.5 q-57 -12 -108.5 -15.5t-102.5 -3.5q-47 0 -91 2t-81 9q-129 23 -228.5 79t-160.5 148q-59 98 -72 228zM74 549q14 -121 71 -213q53 -86 148.5 -137.5t212.5 -73.5q80 -12 168 -12h24q101 2 211 26q12 -51 30.5 -98t27.5 -96q92 29 184 57.5t203 63.5q-18 51 -28.5 105 t-29.5 110q184 88 345 225t284 303q86 111 144.5 227.5t84.5 229.5q23 94 23 185q0 17 -1 35q-5 107 -44 200q-33 106 -106.5 182t-179 116.5t-238.5 43.5h-15q-127 0 -268 -39q-127 -31 -253 -85.5t-242.5 -128t-221 -162.5t-186.5 -190q-141 -154 -222 -314.5t-108 -303.5 q-23 -94 -23 -181q0 -38 5 -75zM398 672q-1 10 -1 21q0 59 23 120q23 78 75 154.5t134 140.5q82 74 186.5 124t198.5 54q34 5 65 5q75 0 131 -27q78 -39 125 -105q31 -56 31 -123q0 -22 -4 -46q-13 -95 -68 -189q-41 -92 -124 -166t-177 -119q-86 -43 -175 -64 q-60 -13 -112 -13q-25 0 -49 3q-72 4 -129 33t-90 78q-35 49 -40 119zM462 696q5 -59 36 -100q53 -90 188 -96q12 -2 22.5 -3t20.5 -1q59 0 125 18t129 51q78 37 148.5 100.5t109.5 139.5v6q18 31 31 55q29 70 32 134v12q0 58 -26 106l2 -2q-35 49 -94.5 82t-136.5 33 q-10 0 -23.5 -1t-28.5 -1q-86 -4 -176 -49t-164 -111q-115 -90 -159 -203q-4 -10 -8.5 -23.5l-8.5 -25.5q-19 -51 -19 -101v-20z" />
<glyph unicode="R" horiz-adv-x="1951" d="M6 231q39 268 133 612.5t244 794.5q86 57 166 108.5t166 92.5l-2 -2q190 104 399 189t426 133q149 30 282 30h9q111 0 204 -25.5t165 -88.5q68 -79 70 -191v-9q0 -109 -56 -239q-16 -35 -33 -68.5t-37 -66.5l-2 -2q-61 -98 -145 -189t-179.5 -171t-195.5 -146.5 t-193 -118.5l3 3q-117 -66 -232 -119t-225 -76q72 -100 149.5 -207.5t143.5 -195.5q-27 -12 -67 -32t-83 -40.5t-82 -38.5t-63 -29q-18 -10 -44 -22.5t-53.5 -24.5t-52 -23.5t-41.5 -19.5q-39 55 -92 122t-98 120t-87 107.5t-83 111.5q-4 -16 -12.5 -32.5t-12.5 -33.5 q-10 -27 -22.5 -62.5t-24.5 -72.5t-23.5 -70.5t-17.5 -58.5q-92 4 -166.5 16.5t-134.5 34.5zM72 276q47 -16 94 -25t100 -11q29 94 68 193t76 216q94 -143 203.5 -270t203.5 -258q78 37 167 77t187 87q-80 106 -158.5 216.5t-156.5 223.5h16q116 -1 250 55q144 60 293 144 q88 49 183.5 111.5t184.5 137t169 159.5t137 177q97 161 113 299q3 23 3 46q0 107 -63 178q-51 45 -118.5 67.5t-147.5 28.5q-37 3 -76 3q-45 0 -92 -4q-88 -7 -180 -24q-215 -47 -416 -128t-387 -185q-80 -39 -151.5 -83t-143.5 -93q-141 -434 -232.5 -762t-125.5 -576z M543 991q35 92 77 194.5t89 215.5q23 16 46 30.5t50 30.5q70 29 135.5 46.5t130.5 33.5q27 3 53 3q22 0 44 -2q48 -5 82 -24.5t46 -57.5q4 -12 3 -26q0 -31 -17 -71q-31 -53 -76 -97t-95 -79t-102.5 -61.5t-97.5 -45.5q-86 -37 -171 -65.5t-158 -32.5h-27zM618 1042 q61 4 137 30t154 61q39 18 84 40.5t88 52t81 65.5t63 79q12 33 6 55.5t-23.5 36t-44 19.5t-57.5 6h-29q-14 0 -20 -2h2q-59 -12 -119.5 -28.5t-124.5 -43.5q-16 -10 -31.5 -18.5t-25.5 -18.5q-41 -92 -75 -174t-65 -160z" />
<glyph unicode="S" horiz-adv-x="2414" d="M-109 399q47 59 111 141.5t156 192.5q43 -98 108.5 -157.5t147.5 -69.5q4 -2 22 -2q39 0 84 9t86 19q-4 0 10.5 4.5t28.5 8.5q6 4 16.5 7t22.5 7q-16 16 -39.5 27.5t-52.5 21.5q-10 4 -23.5 8.5t-23.5 8.5h2q-29 12 -57.5 20t-55.5 19h2q-59 18 -109.5 38.5t-95.5 49.5 l7 -2q-70 36 -101 114q-19 49 -19 104q0 34 7 72v-2q6 31 16.5 59.5t22.5 57.5q33 80 86 155.5t121.5 146.5t147.5 133.5t163 113.5l-4 -2q227 154 492.5 272.5t547.5 167.5q121 27 240 27q129 0 236.5 -32t190.5 -90t140 -139.5t86 -181.5l-35 -73q-98 -66 -190 -124.5 t-184 -111.5q-123 -74 -237 -147.5t-247 -173.5q-72 104 -178 162.5t-242 58.5q-18 0 -40.5 -1t-45.5 -5q-70 -4 -141.5 -22.5t-138.5 -41.5h2q-20 -8 -35.5 -13t-30.5 -9l-26 -15q-23 -10 -45.5 -20t-42.5 -25q27 -25 63.5 -38t79.5 -23h-2q20 -4 40.5 -9t39.5 -12h-2 q141 -39 282.5 -84t264.5 -106q39 -29 79.5 -61.5t68.5 -71.5t36 -87q2 -12 2 -25q0 -38 -18 -83q-6 -16 -22.5 -38.5t-39.5 -55.5q-61 -72 -144 -129t-174 -100t-187.5 -73t-184.5 -48q-100 -20 -189.5 -28.5t-175.5 -8.5q-68 0 -134 5t-126 22l2 -2q-141 23 -246.5 101.5 t-175.5 188.5zM-33 418q57 -94 153.5 -162t225.5 -90q113 -26 249 -26h29q152 3 320 38q84 16 174 44t176 70t165 97t138 125q44 58 44 109q-1 45 -23 83q-24 38 -63 70.5t-78 61.5q-129 63 -265.5 108t-277.5 80q-37 12 -76 21.5t-74.5 22.5t-64.5 33.5t-45 55.5 q39 47 91 71.5t107 49.5q86 27 176.5 55.5t182.5 34.5q47 5 91 5q122 0 221 -37q134 -50 206 -160q166 123 371 244.5t432 271.5q-35 113 -106.5 200.5t-177.5 141.5q-106 56 -246 70q-43 4 -89 4q-104 0 -223 -23q-276 -47 -532 -163t-480 -265q-92 -55 -176 -125 t-152.5 -147.5t-116.5 -162.5t-67 -171q-6 -32 -6 -62q0 -49 16 -91q26 -66 87 -95q66 -45 145.5 -68.5t159.5 -58.5q25 -10 53.5 -18.5t54 -20.5t43 -29.5t21.5 -44.5q-10 -20 -29.5 -34.5t-38.5 -24.5q-23 -4 -48.5 -14.5t-47.5 -16.5q-54 -13 -110 -23q-34 -6 -65 -6 q-21 0 -40 3q-92 10 -156.5 56t-95.5 118q-47 -53 -87 -105.5t-75 -99.5z" />
<glyph unicode="T" horiz-adv-x="1644" d="M6 156q70 180 165 417.5t212 513.5q16 39 33.5 79t38.5 83q-92 -23 -188.5 -46t-162.5 -40q6 18 16.5 48t23 63t22.5 63.5t16 51.5q20 55 46 128.5t48 129.5q184 98 396.5 187t439.5 157.5t464.5 109.5t475.5 43l23 -71q-45 -70 -91.5 -136.5t-89.5 -132.5 q-27 -39 -56.5 -84t-58 -90t-57 -88t-53.5 -80q-117 -14 -251 -34.5t-244 -41.5q-29 -6 -56.5 -11t-52.5 -9q-135 -248 -241.5 -450.5t-198.5 -380.5l4 2q-27 -53 -56.5 -110.5t-60.5 -115t-58.5 -109.5t-50.5 -96h-16q-12 0 -25.5 1.5t-25.5 1.5h-14q-35 4 -69 7t-71 8 t-79 12t-97 20zM82 203q68 -16 141.5 -23.5t153.5 -15.5q123 229 277.5 537.5t379.5 713.5q141 25 296 54.5t315 46.5q92 135 184.5 275t198.5 296q-233 -2 -463 -42t-448 -104.5t-418.5 -148.5t-374.5 -176q-39 -98 -73 -194.5t-65 -184.5q86 20 173 43t186 47 q-158 -358 -270.5 -635.5t-192.5 -488.5z" />
<glyph unicode="U" horiz-adv-x="1857" d="M10 489q2 8 3 17.5t5 19.5q47 211 121 474.5t185 596.5q98 63 172.5 102.5t150.5 76.5q18 8 54 25.5t74 37t73 36.5t53 28q-80 -207 -153.5 -403.5t-140 -376t-122 -336t-98.5 -279.5v6q-2 -10 -2 -20q-1 -30 23 -50q32 -28 79 -30h19q55 0 109.5 39t82.5 92 q51 92 106.5 193.5t119.5 217.5q119 217 274.5 493.5t341.5 592.5q197 66 390 117.5t386 74.5l37 -67q-240 -395 -450.5 -707.5t-384.5 -570.5q-49 -78 -97.5 -149.5t-95.5 -139.5q-98 -135 -217 -244.5t-260 -185.5l2 2q-98 -53 -194.5 -84t-190.5 -31q-23 0 -47.5 2 t-48.5 9l4 -2q-92 14 -162 55t-121 100q-42 53 -66 121q-17 48 -17 102q0 22 3 45zM74 512q-5 -26 -5 -50q1 -44 17 -84q26 -62 61 -110q45 -53 108.5 -93t150.5 -50q44 -10 91 -10q57 0 117 15q110 28 222 89q129 68 239.5 171.5t202.5 225.5q96 143 210 310.5t243 361 t272 414.5t297 475q-186 -23 -367.5 -71t-361.5 -107q-141 -240 -259 -450t-218.5 -391t-185.5 -335.5t-160 -287.5q-16 -37 -48 -72t-71 -61q-39 -24 -82 -38q-33 -10 -65 -11q-9 0 -19 1q-66 4 -108 45q-32 31 -32 76q0 14 3 29q88 248 204.5 565t274.5 729 q-113 -57 -223.5 -107.5t-210.5 -115.5q-104 -319 -175 -572t-118 -464q-2 -8 -3 -13.5t-1 -13.5z" />
<glyph unicode="V" horiz-adv-x="2043" d="M76 154q0 135 7 288.5t22.5 330.5t41 380t62.5 434q111 63 243 121.5t273 112.5q-31 -147 -59.5 -295t-55 -285t-49 -263t-41.5 -230q-10 -39 -17 -75t-14 -71q41 47 83 96.5t87 102.5q193 227 452 522t591 662q193 61 396.5 117t400.5 81l16 -88q-377 -385 -679 -692 t-548 -551t-442.5 -432.5t-362.5 -335.5q-104 12 -200.5 27.5t-206.5 42.5zM139 201q78 -18 164 -31.5t178 -24.5q154 135 343.5 316.5t431 423t542.5 548t678 691.5q-186 -23 -378.5 -76t-373.5 -111q-240 -262 -436 -485t-358 -410.5t-292 -341t-239 -278.5 q47 256 103.5 579.5t144.5 737.5q-102 -39 -197.5 -82t-187.5 -94q-68 -436 -94.5 -770t-28.5 -592z" />
<glyph unicode="W" horiz-adv-x="2717" d="M10 802q6 345 51 797q72 41 120 61.5t91 37.5q18 6 37 13t45.5 18.5t63.5 31t92 49.5q-10 -92 -19.5 -190t-17.5 -194.5t-13 -186.5t-7 -164v2l-7 -94q150 207 352.5 470t467.5 597q-4 -162 -7.5 -331t-8 -332.5t-10.5 -318.5t-13 -286q248 266 595 631t806 842 q131 20 228 39.5t193 42.5q141 31 283 61.5t279 46.5l22 -86q-465 -449 -847 -804t-692 -633.5t-556 -489.5t-438 -371q-18 2 -44 3.5t-51.5 3.5t-49 3t-42.5 3q-66 4 -143.5 11t-138.5 13q-4 35 -11.5 84t-11.5 86h2q-6 45 -13 91.5t-11 95.5q-70 -86 -135.5 -168 t-112.5 -144q-4 0 -15.5 2t-23.5 4.5t-23.5 4.5t-17.5 2h2q-55 8 -120.5 19t-114.5 22q-16 204 -16 460q0 71 1 145zM71 826q-1 -56 -1 -111q0 -259 20 -467q53 -12 112.5 -20.5t125.5 -16.5q66 86 143.5 180t169.5 205q8 -119 23.5 -227.5t25.5 -214.5q98 -10 198.5 -15.5 t211.5 -15.5q184 156 422.5 361.5t544 479t684 624.5t843.5 800q-123 -14 -246.5 -40t-244.5 -53.5t-238 -53t-223 -39.5q-256 -268 -472 -494.5t-399.5 -420t-336 -355.5t-277.5 -299q20 270 29.5 578.5t13.5 674.5q-137 -174 -255 -326.5t-220 -287.5t-190.5 -256 t-161.5 -228q12 199 22.5 427.5t40.5 500.5q-86 -47 -162.5 -71.5t-150.5 -67.5q-47 -425 -52 -751z" />
<glyph unicode="X" horiz-adv-x="2508" d="M6 238q47 -23 84 -35.5t67.5 -19.5t57.5 -10t55 -7q16 0 47 -3t45 -5q41 31 97.5 73.5t103.5 77.5q41 29 86 63t92 70q8 -16 11.5 -31.5t9.5 -31.5q23 -78 50.5 -163t51.5 -159q147 -12 299 -12q47 0 95.5 1t97.5 3l86 84q-10 90 -26.5 182.5t-37.5 188.5 q-16 90 -33.5 180t-29.5 188q61 51 127.5 103.5t138.5 111.5q127 102 291 235.5t347 285t378.5 317.5t390.5 334q-133 -10 -242.5 -26.5t-204 -35t-177.5 -38t-162 -39.5l-152 -38t-143 -34q-178 -162 -344 -310.5t-306 -275.5q-33 -31 -65.5 -58.5t-63.5 -55.5 q-10 35 -21 69.5t-22 69.5q-29 100 -66.5 220t-74.5 224q-137 -53 -272 -111.5t-277 -136.5q12 -61 27.5 -129.5l31 -137t32 -133t30.5 -120.5q18 -78 38.5 -150.5t37.5 -146.5q-74 -82 -141.5 -153.5t-133.5 -137.5q-84 -86 -159.5 -165.5t-151.5 -171.5zM96 270 q104 125 248.5 268.5t312.5 331.5q-39 186 -92 381t-100 418q102 53 209.5 99.5t224.5 91.5q55 -160 99 -314.5t87 -298.5q176 158 384 343.5t448 408.5q104 20 218 50t231.5 58.5t236.5 51t233 30.5q-256 -221 -483 -410.5t-425.5 -350t-368.5 -297t-312 -252.5 q27 -215 70 -405t61 -368q-103 -3 -196 -3h-46q-114 1 -216 12q-35 100 -68 203.5t-70 216.5q-117 -94 -223 -171t-192 -147q-74 10 -141.5 19.5t-129.5 33.5z" />
<glyph unicode="Y" horiz-adv-x="1812" d="M6 154l119 280q35 78 70.5 164t74.5 180q-18 55 -34.5 110.5t-34.5 115.5q-45 141 -91.5 313t-80.5 346q111 63 203 106t184 84q14 6 39.5 16.5t52.5 23t52.5 24.5t41.5 20q25 -113 56.5 -237.5t60.5 -229.5q12 -49 24.5 -96t26.5 -94q76 68 162 142.5t178 156.5 q141 123 305 268.5t338 300.5q233 53 454 90t457 62l11 -96q-422 -330 -760 -592t-604 -469q-131 -100 -245 -188.5t-218 -168.5q-74 -129 -142.5 -240.5t-127.5 -209.5q-12 -23 -30 -52.5t-37 -59t-36.5 -58.5t-30.5 -47q-6 0 -21 1t-32.5 3t-34 3t-24.5 1q-35 2 -78 5 t-88 6t-87 7.5t-73 8.5zM84 205q82 -8 166 -13.5t176 -11.5q78 135 173 289t206 346q156 121 344 266.5t415.5 320.5t496 383t585.5 456q-236 -25 -451 -61t-426 -83q-326 -289 -582.5 -514t-461.5 -405q-39 162 -87 328.5t-89 353.5q-123 -55 -234.5 -104.5t-216.5 -106.5 q51 -246 116 -453t118 -401q-68 -174 -131.5 -317.5t-116.5 -272.5z" />
<glyph unicode="Z" horiz-adv-x="1765" d="M6 225q8 20 17.5 51t19.5 64t19.5 62.5t17.5 52.5q59 61 129 137t141 153v-2q111 119 240 259.5t289 300.5q-166 -41 -333 -87.5t-341 -101.5l102 246q25 59 59.5 136t63.5 140q186 100 397 190.5t436.5 158t460 106.5t467.5 39h103q-51 -80 -110.5 -170t-120 -179 t-118 -172t-104.5 -149q-199 -160 -375 -303t-323 -268q-129 -111 -240.5 -203t-210.5 -170q129 4 272.5 14.5t309.5 30.5l29 -78q-37 -47 -78 -91t-76 -85q-35 -37 -68.5 -75.5t-74.5 -88.5q-111 -10 -205 -15t-170 -5q-174 0 -331 23.5t-294 78.5zM80 268q168 -68 400 -81 q84 -5 172 -5q158 0 335 15q59 72 128.5 145.5t141.5 161.5q-209 -25 -388 -35t-339 -14q119 86 252 193.5t288 237.5t335 280.5t395 322.5q92 129 193.5 276.5t206.5 307.5h-24l-442 -35q-233 -37 -454 -100.5t-425 -149.5t-382 -182q-53 -113 -95 -215.5t-83 -194.5 q162 53 347 101.5t396 97.5q-305 -303 -521 -541t-382 -410q-16 -45 -29.5 -89t-25.5 -87z" />
<glyph unicode="[" horiz-adv-x="1454" d="M6 223q190 422 378.5 788.5t369.5 694.5q84 47 172 93t174 83t165.5 62.5t147.5 33.5l35 -57q0 -6 -4 -13t-4 -14q-10 -29 -22.5 -60.5t-24.5 -59.5q-6 -12 -21.5 -44t-30.5 -67q-57 -18 -125.5 -46t-121.5 -48v2q-12 -4 -22.5 -9.5t-22.5 -9.5q-57 -117 -112.5 -236.5 t-113.5 -248.5q-41 -88 -83 -178t-87 -189q6 4 12.5 5.5t14.5 5.5q27 8 57.5 18t70.5 27.5t92 44t124 67.5q-6 -10 -20.5 -38.5t-30 -60.5t-27.5 -60.5t-16 -38.5q-29 -57 -65 -131t-60 -136q-84 -45 -172 -82.5t-173 -66.5t-162 -45t-138 -16q-33 0 -72 7t-82 23zM82 266 q51 -23 129 -16.5t169 32t190.5 66.5t193.5 90q41 86 79 164t72 154q-94 -53 -181 -79t-173 -61q129 270 235.5 510t217.5 467q72 27 144.5 55.5t150.5 55.5q25 53 46.5 108.5t39.5 108.5q-66 -6 -139.5 -29.5t-151.5 -57.5t-158 -76t-155 -85q-174 -313 -352.5 -661 t-356.5 -746z" />
<glyph unicode="\" horiz-adv-x="1050" d="M6 1563q18 6 45 17t56.5 23.5t57.5 25.5t46 24q25 10 55.5 23.5t62 27.5t62.5 28.5t53 24.5q156 -268 299 -626.5t301 -825.5l-51 -82q-129 -66 -263 -121t-277 -92q-23 59 -47.5 133t-47.5 129q-66 182 -123 348t-102 323t-77.5 309.5t-49.5 310.5zM76 1538 q14 -154 53 -317.5t95.5 -343t128 -378t151.5 -423.5q117 31 236.5 82t242.5 114q-158 463 -296 814.5t-281 599.5q-82 -35 -167 -74t-163 -74z" />
<glyph unicode="]" horiz-adv-x="1529" d="M6 238q6 14 17.5 36.5t24.5 46t24.5 46t17.5 36.5q12 25 22.5 48.5t25 51t33.5 62.5t48 82q88 16 171 39t163 49q29 53 53.5 103.5t50.5 101.5q72 150 141.5 291t137.5 276q-55 -23 -114.5 -48t-118 -52t-112.5 -50.5t-97 -41.5q12 18 35.5 54t49 76t47 75.5t29.5 52.5 l40 62.5l40 62.5q94 53 194.5 102t199 88t190.5 65t172 32l33 -54q-41 -117 -92.5 -239.5t-106.5 -257.5q-92 -217 -205.5 -469t-230.5 -516q-98 -45 -200.5 -88.5t-199 -76t-183.5 -52t-156 -19.5q-51 0 -144 25zM80 281q66 -18 155 -8t190 40.5t210.5 75.5t214.5 94 q193 422 350 780.5t270 663.5q-74 -6 -160.5 -29.5t-179 -60.5t-185.5 -82t-181 -94q-37 -59 -68.5 -116.5t-72.5 -117.5q106 47 209.5 91.5t209.5 85.5q-111 -211 -221 -436.5t-233 -473.5q-92 -29 -180.5 -53.5t-165.5 -40.5q-47 -86 -83 -163t-79 -156z" />
<glyph unicode="^" horiz-adv-x="1609" d="M6 1034l182 162q172 150 350.5 306.5t358.5 297.5q193 -20 361 -64.5t346 -95.5l-7 -86q-23 -20 -48 -41.5t-48 -39.5q-39 -33 -85 -71t-93 -78t-93 -79t-83 -71q-41 23 -95.5 52t-90.5 52q-47 23 -91.5 47.5t-85.5 46.5q-76 -66 -147.5 -127t-147.5 -125v2l-305 -264 q-4 2 -16 20.5t-18 28.5q-23 27 -52.5 54.5t-91.5 72.5zM94 1053q35 -25 62.5 -53.5t56.5 -57.5q147 129 293.5 250t290.5 250q78 -49 169 -97.5t191 -103.5q100 92 204 176t208 170q-178 53 -341 95t-329 61q-209 -166 -404.5 -338t-400.5 -352z" />
<glyph unicode="_" horiz-adv-x="2572" d="M9 -741.5q-3 26.5 9 59.5l13 31q6 14 2 39q29 53 59.5 76.5t61.5 43.5q4 4 22 16l17 11q242 47 513 97.5t562 100.5t596 100t618 99q-6 -25 -5 -30.5t3 -7.5q8 -4 17.5 -10.5t21.5 -18.5q14 -29 14 -68v6q2 -10 4.5 -22t28.5 -29q-39 -61 -71.5 -92t-63.5 -53v2 q-8 -6 -18.5 -13.5t-16.5 -13.5l-47 -22q-659 -111 -1228.5 -198t-1063.5 -146q-45 16 -48 42.5zM71 -708.5q-3 -16.5 13 -22.5q487 59 1053.5 145t1219.5 195q35 29 72 54.5t59 62.5q-12 8 -15 21t-3 28v26q0 14 -6 25q-20 18 -37 24.5t-12 22.5q-625 -98 -1174 -193.5 t-1034 -189.5q-29 -18 -59.5 -37.5t-47.5 -50.5q6 -14 -2 -34.5t-16 -40t-11 -36z" />
<glyph unicode="`" horiz-adv-x="937" d="M6 1741q78 63 155 110t146 86q55 31 112.5 65t108.5 71q123 -74 222.5 -155t181.5 -167l-25 -72q-47 -39 -87 -68.5t-81 -56.5q-16 -12 -38.5 -28.5t-47 -33.5t-48 -33.5t-40.5 -28.5q-72 57 -148.5 98t-156.5 80q-29 12 -64.5 29.5t-70.5 37t-66.5 37t-52.5 29.5z M98 1759q51 -33 118 -64.5t134.5 -63.5t129 -65.5t106.5 -70.5q72 53 146.5 106.5t146.5 108.5q-80 86 -168 162t-193 137q-35 -23 -93 -55.5t-120.5 -67.5t-119 -68.5t-87.5 -58.5z" />
<glyph unicode="a" horiz-adv-x="1835" d="M-109 352q369 434 690.5 771t608.5 599q57 -8 121.5 -17t130 -20.5t128 -22.5t116.5 -24q40 -302 72 -630q22 -220 21 -453q0 -115 -5 -233l-66 -76q-100 -27 -218 -44.5t-253 -33.5q4 59 5 134t5 132q6 92 8 181.5t7 175.5q-80 2 -148 6q-18 0 -37.5 -1t-36.5 1 q-98 -123 -205.5 -263.5t-218.5 -283.5q-170 12 -351 28.5t-374 73.5zM-10 391q143 -45 302 -59.5t306 -22.5q117 154 220.5 286t207.5 261q37 -2 74 -3t74 -1q74 0 151 -6q0 -147 -8 -299t-14 -318q111 12 213 28.5t196 41.5q3 90 3 177.5t-3 173.5q-6 171 -19.5 332 t-30.5 312.5t-34 294.5q-104 23 -212.5 40.5t-219.5 33.5q-270 -246 -568 -558t-638 -714zM1126 1092q66 78 126.5 152.5t123.5 141.5q-8 -62 -8 -126v-26q2 -78 2 -153q-20 -1 -39 -1q-39 0 -79 3q-60 4 -126 9zM1233 1143q16 -2 35.5 -3t38.5 -1v47v24t-2 23l-62 -74z" />
<glyph unicode="b" horiz-adv-x="1849" d="M6 365q47 274 121 506.5t160 437.5q47 113 105.5 232.5t123.5 242.5q8 0 27.5 1t40 3t40 3t29.5 1q39 0 77 -2t67 -4q92 -4 183 -11.5t185 -23.5q117 -27 227.5 -61.5t198.5 -87.5l-2 2q76 -39 130.5 -97.5t52.5 -122.5v5q2 -27 -13 -60q-31 -70 -95.5 -110.5 t-150.5 -63.5q43 -16 81 -33.5t75 -40.5q98 -53 139 -142q34 -74 34 -144q0 -14 -1 -27h2q-4 -31 -12 -61.5t-23 -61.5q-35 -82 -98 -154.5t-156 -125.5q-68 -39 -147.5 -68t-166.5 -47.5t-177 -27.5t-178 -9h-74q-205 0 -408.5 30.5t-396.5 121.5zM70 408q94 -45 196.5 -73 t209 -43.5t216.5 -19.5q73 -3 145 -3q36 0 72 1q168 0 337 34t294 106q104 59 165 150.5t75 191.5q1 10 1 20q0 62 -33 130q-38 78 -124 128q-78 47 -176 78t-205 51q-37 4 -80 9.5t-86 9.5h174q86 0 166 12q51 6 103.5 19.5t93.5 34.5q42 22 68 52q29 32 28 74q0 48 -47 96 q-49 50 -117 84q-92 53 -195.5 87t-220.5 59q-86 14 -177 22t-183 11q-50 4 -110 5h-23q-47 0 -90 -3q-74 -135 -144.5 -287t-133 -317.5t-114 -346t-85.5 -372.5zM649 672q12 53 27.5 109.5t30.5 107.5q29 10 51 17t41 7q40 4 80 4q27 0 53 -2q67 -4 135 -12 q39 -6 81 -17.5t78 -29.5t59.5 -43.5t23.5 -60.5q-6 -29 -30 -45.5t-56.5 -27.5t-70.5 -17.5t-71 -12.5q-88 -10 -180 -15q-14 -1 -28 -1q-77 0 -144 24q-18 0 -39 7l-28 8h-13zM717 1321q14 51 30.5 104.5t28.5 100.5q20 8 41 15t37 7q33 4 66 4q22 0 44 -2q56 -4 111 -12 q31 -6 65 -16.5t62.5 -26.5t47 -40.5t18.5 -57.5q-8 -25 -29.5 -41.5t-48.5 -27.5t-56.5 -17t-56.5 -11q-37 -4 -74.5 -9t-76.5 -5q-37 0 -73 4t-67 19q-8 0 -16 1t-20 3l-21 8h-12zM719 721l12 -2h-2q16 -4 33 -4q41 -15 92 -19q19 -1 35 -2q28 0 51 4q41 0 80 2t78 7h-2 q43 6 90 14t59 18q-6 25 -27.5 42.5t-52 29.5t-65.5 20.5t-66 14.5h2q-47 6 -96 10t-92 4q-16 0 -34.5 -1t-35.5 -3q-16 0 -20 -2q-6 -18 -11.5 -36.5t-11.5 -37.5q-4 -16 -8 -29.5t-8 -29.5zM782 1368l9 -2h-3q17 -4 23 -4q57 -12 117 -18q17 -2 35 -2q47 0 104 12 q35 6 73 14t48 18q-10 47 -58.5 69t-95.5 34q-37 6 -72.5 10t-68.5 4q-14 0 -27.5 -1t-25.5 -3q-14 0 -21 -2q-4 -18 -10 -35.5t-10 -36.5q-4 -16 -8.5 -28.5t-8.5 -28.5z" />
<glyph unicode="c" horiz-adv-x="2025" d="M20 849q-12 60 -11 119q0 103 36 201l12 23q66 152 184.5 276.5t307.5 198.5l-6 -2q98 47 210.5 72.5t235.5 25.5q53 0 107.5 -4t107.5 -18q295 -57 514 -211q94 -72 171 -184.5t130 -243.5q-35 -2 -89 -5t-110.5 -5t-109.5 -3.5t-88 -1.5q-23 0 -53.5 1.5t-50.5 1.5 q-29 47 -64 90t-82 69v-2q-57 23 -115.5 41.5t-117.5 30.5q-29 6 -62 10t-65 4q-96 0 -170 -43q-41 -23 -65.5 -56.5t-43.5 -74.5q-4 -10 -5 -18t-5 -17q-10 -33 -10 -68q0 -28 7 -58q15 -66 68 -121q51 -63 137.5 -98.5t178.5 -51.5q10 -2 18 -3t17 -1h32q53 0 102.5 8 t90.5 24.5t70.5 40t42.5 54.5l41 98q25 -12 59.5 -28.5t71.5 -34t72.5 -33.5t60.5 -27q47 -20 95 -40.5t95 -43.5l13 -59q-53 -96 -139.5 -183t-200 -152.5t-249.5 -105.5t-288 -40q-59 0 -117 6h2q-115 8 -228.5 34.5t-217 69.5t-195.5 102.5t-164 133.5q-136 137 -168 302 zM81 876q30 -152 159 -284q70 -70 158.5 -127t190 -98t211 -68t222.5 -35q57 -6 112 -6q98 0 188 18q142 28 260 89t206 145t137 178q-94 47 -191.5 87t-195.5 87q-16 -51 -62 -91t-111 -65.5t-141 -35.5q-37 -5 -73 -6q-39 0 -78 6q-98 16 -189 54t-145 103q-66 63 -83 140 q-7 33 -7 65q0 43 13 84q25 63 59.5 123.5t114.5 101.5q70 41 158 47q20 1 40 1q69 0 142 -15q63 -12 121.5 -31.5t117.5 -42.5q53 -29 89 -69.5t61 -83.5q46 -2 90.5 -2t88.5 2q87 4 181 8q-35 86 -99.5 171t-156.5 155q-104 76 -229 126t-273 79q-79 18 -161 21 q-19 1 -38 1q-62 0 -124 -8q-80 -10 -154 -31.5t-137 -52.5q-178 -68 -285.5 -185.5t-161.5 -259.5q-36 -93 -35 -189q-1 -52 10 -106z" />
<glyph unicode="d" horiz-adv-x="2031" d="M6 397q59 215 125 404.5t139 363.5q66 154 141.5 305.5t168.5 301.5q35 4 52 7t23.5 4t3 2t-5.5 1t0 2q16 4 34 10t40 6q10 0 12 -2q10 2 22.5 3t24.5 1h52q78 0 152.5 -7t142.5 -17q180 -33 350 -92.5t293 -157.5h-2q125 -100 193 -223q58 -105 57 -215q0 -19 -1 -39 l2 -2q-4 -53 -17 -105.5t-38 -105.5q-37 -92 -104.5 -176t-165.5 -150l4 2q-143 -104 -335.5 -165.5t-403.5 -94.5q-78 -8 -161 -13t-169 -5q-104 0 -211 9t-211 38q-4 2 -11 4t-12 4q-47 16 -95 36.5t-89 65.5zM76 430q33 -35 79 -53.5t93 -34.5q184 -47 366 -47 q94 0 185.5 5t183.5 15q203 31 381 88.5t313 155.5q135 88 204 217t81 258q1 17 1 34q1 106 -53 204q-62 114 -186 209q-123 98 -286.5 155.5t-337.5 87.5q-92 14 -190 22q-45 4 -90 4q-52 0 -103 -5q-29 6 -54.5 -5t-54.5 -18q-160 -270 -294 -589.5t-238 -702.5zM731 821 q59 168 108.5 327t106.5 306q35 0 70 -2t74 -8q76 -20 150.5 -43t133.5 -66q66 -45 96 -113q23 -51 24 -96q0 -15 -3 -30q-16 -78 -76.5 -154t-171.5 -113q-91 -27 -197 -39q-51 -6 -100 -6q-53 0 -104 7q-29 12 -56.5 16t-54.5 14zM805 864h8l-4 2q10 -4 28.5 -8t39.5 -12 l-3 2l3 -2q2 0 3 -1t5 -1l-8 2q10 -2 20 -3t21 -1h43q74 0 148.5 10t139.5 31h-2q66 23 107 64.5t59 86.5q4 8 8.5 22.5t8.5 30.5l-3 -4q3 13 3 27q0 36 -20 78q-26 58 -87 96q-53 39 -118.5 60.5t-133.5 37.5q-2 2 -8 3t-12 4l6 -3q-23 4 -40.5 6.5t-35.5 4.5 q-27 -70 -48.5 -138.5t-43.5 -142.5q-23 -61 -42.5 -123.5t-41.5 -128.5z" />
<glyph unicode="e" horiz-adv-x="1703" d="M6 362q143 553 324 969q20 47 44.5 101.5t50.5 108.5t50.5 106.5t46.5 93.5q328 -6 618.5 -43t538.5 -129l19 -39q-6 -57 -19.5 -129t-38.5 -170q-68 10 -147.5 20.5t-164.5 20.5t-169 20.5t-158 18.5q-10 2 -28 2q-16 0 -25 2q-4 -12 -4 -15q0 -6 -2 -12 q-6 -14 -11 -28.5t-9 -28.5q78 -10 155.5 -16.5t153.5 -14.5h-2q33 -2 73.5 -6t81.5 -9t80 -9.5t72 -8.5q-12 -59 -24.5 -100t-28.5 -80l4 4q-6 -12 -13.5 -33.5t-14.5 -45t-13 -45t-8 -33.5q-25 0 -69 -2.5t-83 -2.5h-41q-76 0 -149.5 2.5t-151.5 4.5q-37 0 -72.5 2 t-72.5 2q-6 -31 -13.5 -59.5t-17.5 -57.5q129 -4 254 -7t248 -3q70 0 158 2t155 4q-23 -117 -49.5 -231.5t-58.5 -231.5q-141 -12 -275.5 -20.5t-259.5 -8.5q-223 0 -457.5 29t-476.5 106zM74 408q168 -53 343 -81t348 -37q104 -5 206 -5q68 0 135 2q168 6 324 20 q27 98 47 185.5t36 169.5q-147 -7 -296 -7q-51 1 -103 1q-200 4 -418 14q20 59 31.5 114.5t28.5 112.5q174 -2 326 -7q84 -3 170 -3q69 0 141 2q18 59 39.5 116.5t33.5 110.5q-147 18 -303.5 30.5t-316.5 35.5q23 51 38 100t34 96q180 -18 350 -35.5t331 -42.5 q16 55 24.5 108.5t12.5 104.5q-242 92 -515 129t-570 41q-135 -268 -257 -582.5t-220 -692.5z" />
<glyph unicode="f" horiz-adv-x="1685" d="M6 375q66 264 144.5 492.5t164.5 432.5q20 49 46 107.5t53.5 117t54.5 114t49 100.5q324 -2 611.5 -41t529.5 -125l20 -43q-6 -29 -10 -53.5t-8 -51.5q-2 -14 -7 -40.5t-10.5 -55.5t-10.5 -54.5t-7 -37.5q-74 10 -159 20.5t-174 21.5t-179 21.5t-172 18.5q-4 -4 -4 -8 t-4 -8q-4 -16 -8 -33t-15 -33q86 -12 164 -19.5t156 -15.5q61 -6 145 -14t146 -17l-10.5 -31.5t-14.5 -41t-14 -42t-10 -34.5q-4 -16 -11.5 -42t-16.5 -53.5t-18.5 -54t-15.5 -43.5q-23 0 -55.5 1t-67.5 2.5t-67.5 2.5t-57.5 1q-92 2 -181 4t-181 6q-4 -18 -9.5 -38 t-7.5 -38q-10 -53 -23 -117.5t-27.5 -132t-30 -134.5t-29.5 -122l-158 10q-125 6 -253 23.5t-257 77.5zM72 416q61 -29 130.5 -45.5t141.5 -25.5t145.5 -12t143.5 -7q39 154 65.5 297t55.5 284q160 -10 315.5 -12t302.5 -6q20 63 40 121.5t36 109.5q-150 18 -300.5 30.5 t-309.5 37.5q20 45 32.5 97t34.5 99q174 -18 345 -37.5t331 -41.5q14 53 20.5 106.5t20.5 106.5q-242 86 -511 123.5t-562 39.5q-135 -268 -260 -579t-217 -686z" />
<glyph unicode="g" horiz-adv-x="2107" d="M16 875q-9 52 -9 102q0 119 48 235l8 25q72 166 209.5 295t339.5 201q104 35 215 52t228 17q76 0 150.5 -8t146.5 -27v2q119 -23 230.5 -77t206.5 -129.5t173 -167.5t131 -191q-37 0 -90 -1t-113 -1q-57 0 -117.5 -1t-115.5 -1h-127q-43 78 -135 139.5t-209 79.5 q-59 14 -129 15q-59 0 -114.5 -12.5t-96.5 -39.5q-53 -35 -89 -80t-55 -92q-6 -10 -11 -24.5t-9 -28.5v2q-18 -61 -18 -125q0 -18 2 -37q6 -84 49 -159q39 -72 127 -126.5t198 -64.5q39 -6 74 -6q82 0 155.5 22.5t119.5 63.5v-2q10 10 19 20.5t15 20.5q-123 10 -266 15 t-278 10q10 20 22 48.5t25.5 58.5t26 57.5t20.5 46t20.5 46t25.5 57.5t25.5 57.5t18.5 45.5q61 -4 131 -9t140.5 -11t138 -13.5t126.5 -13.5q117 -10 241 -21.5t235 -21.5q10 -20 17 -43t3 -43q4 -27 5 -54.5t-3 -53.5q-4 -47 -14 -93.5t-29 -93.5q-84 -190 -280 -338 q-63 -49 -141.5 -92t-166.5 -73.5t-184 -49t-195 -18.5q-31 0 -58.5 2t-57.5 6h2q-129 6 -247 37t-220.5 80t-187.5 114.5t-150 143.5q-123 154 -152 326zM76 903q30 -162 149 -309q61 -74 144.5 -137.5t182.5 -111.5t213 -77.5t236 -36.5q57 -6 112 -6q49 0 98 5 q104 10 200 38.5t181 72.5t155 97q129 100 205 220t82 255q6 23 4 50.5t-8 50.5q6 10 3 24.5t-12 24.5q-223 16 -451.5 40.5t-473.5 43.5q-35 -72 -65 -143.5t-66 -157.5q147 -4 284 -10.5t273 -16.5q-23 -33 -43.5 -63.5t-55.5 -59.5q-72 -66 -185 -94q-74 -17 -148 -17 q-40 0 -80 5q-55 6 -110.5 24.5t-102.5 47t-83 63.5t-57 76q-47 86 -54 175q-2 19 -2 39q0 69 20 136q25 78 69.5 148.5t136.5 127.5q37 25 84 39.5t99 20.5q36 4 71 4q18 0 36 -1q54 -3 106 -13q121 -23 217 -83.5t143 -136.5h199h100q51 0 103 3q-41 76 -107 147.5 t-152 131.5t-189 105.5t-220 67.5q-140 33 -285 33q-36 0 -72 -2q-182 -10 -348 -64q-186 -66 -311 -185.5t-188 -274.5q-46 -106 -46 -217q0 -49 9 -99z" />
<glyph unicode="h" horiz-adv-x="2019" d="M6 367q63 203 129 381t133 339q78 186 164 363.5t178 343.5l131 -10q104 -6 208 -15.5t243 -29.5l-33 -80q-18 -47 -36.5 -98.5t-41.5 -104.5l-45 -121q72 -10 145.5 -18t145.5 -14q31 -4 60.5 -7.5t62.5 -7.5q37 125 74 246q2 6 8 25.5t14 40t14.5 40l8.5 25.5 q117 -25 229.5 -51t194.5 -55l20 -37q-18 -270 -71.5 -576.5t-139.5 -669.5q-156 -41 -274.5 -52t-233.5 -15q-12 0 -30.5 -1t-39 -3t-39 -3t-28.5 -1q20 70 41 144.5t41.5 148t38.5 144.5t35 132q14 55 24 111q-111 12 -223.5 23t-230.5 22q-23 -66 -49.5 -131.5 t-49.5 -130.5q-16 -43 -36.5 -98.5t-42 -114t-42 -115.5t-36.5 -105q-18 4 -47 9.5t-60 9.5t-59.5 9t-46.5 9q-96 14 -193.5 32.5t-214.5 66.5zM80 410q123 -49 252 -67.5t260 -41.5q66 190 133.5 359t124.5 329q147 -14 288.5 -26.5t276.5 -28.5q-43 -156 -86 -320.5 t-98 -351.5q135 8 264 15.5t258 39.5q80 340 129.5 631t67.5 555q-82 29 -170 52.5t-174 39.5q-31 -88 -59.5 -180t-61.5 -190q-129 16 -258 27.5t-271 33.5q43 104 81 207.5t77 196.5q-117 18 -233.5 26t-241.5 17q-150 -276 -296 -603t-263 -720z" />
<glyph unicode="i" horiz-adv-x="913" d="M6 315q39 135 80 274.5t82 273.5t81 259t77 234l516 -60q-27 -109 -58.5 -236.5t-65.5 -264t-71 -277.5t-74 -276q-70 -35 -114.5 -44.5t-87.5 -9.5h-43h-23q-12 0 -22 2q-18 0 -39 1.5t-41 1.5q-55 10 -108.5 26.5t-86.5 59.5zM57 322q27 -35 76 -48.5t103 -23.5 q49 -2 90 -4t75 -2q35 0 66 5t61 19q74 276 135.5 517t110.5 458l-418 47q-72 -217 -145.5 -454.5t-153.5 -513.5zM340 1409q6 23 16.5 53.5t22.5 63.5t23.5 62.5t19.5 51.5l29 66q8 0 25.5 1t36.5 3t37.5 3t29.5 1q86 0 169 -17.5t146 -62.5l12 -39q-6 -18 -10 -35.5 t-8 -35.5q-2 -12 -8.5 -35t-12.5 -48.5t-11 -48t-7 -32.5zM414 1462l401 -41q8 41 16.5 81t16.5 81q-74 51 -174 65q-63 8 -123 8q-35 0 -68 -3q-18 -47 -36.5 -95.5t-32.5 -95.5z" />
<glyph unicode="j" horiz-adv-x="1574" d="M6 518q25 29 54.5 62.5t60.5 67.5t59.5 67t50.5 59l-2 -2q8 10 26.5 31.5t39 44t40 43t30.5 31.5q27 -47 44 -72t33 -35q29 -35 81 -57.5t106 -28.5q23 -4 45 -6t43 -2q35 0 65.5 5t59.5 22q16 10 27.5 26.5t21.5 36.5l4 10q33 109 66.5 223.5t67.5 225t65.5 214 t60.5 191.5q117 -20 217 -47.5t178 -56.5l19 -35q-8 -154 -43 -316.5t-76 -342.5q-14 -55 -27.5 -112.5t-25.5 -115.5q-6 -47 -19 -74q-41 -92 -118.5 -165.5t-188.5 -120.5q-215 -96 -459 -96q-41 0 -79.5 3t-73.5 7q-213 37 -332 168q-35 27 -62.5 62.5t-58.5 84.5z M78 530q23 -33 44 -59.5t56 -52.5q115 -123 311 -160q74 -9 146 -9q79 0 155 11q148 19 273 78q117 47 187.5 128t86.5 173q53 246 104.5 463t71.5 416q-72 29 -155.5 51t-165.5 37q-55 -178 -112.5 -368.5t-125.5 -408.5q-12 -35 -34.5 -68.5t-63.5 -55.5q-55 -35 -124 -41 q-19 -1 -38 -1q-50 0 -98 11q-59 4 -117.5 28.5t-87.5 65.5q-35 23 -51 57q-61 -68 -125.5 -142.5t-136.5 -152.5z" />
<glyph unicode="k" horiz-adv-x="1916" d="M6 358q59 221 128 410.5t142 364.5q74 180 163 356t188 348q12 0 33.5 -1t44 -2t44 -2t33.5 -1q37 -2 83 -5t92.5 -6t90.5 -6.5t78 -7.5q-41 -104 -73.5 -199.5t-61.5 -193.5q178 72 350 131.5t338 116.5q29 -23 64 -57.5t57 -61.5q27 -29 54.5 -56t56.5 -52l-51 -103 q-123 -45 -250 -96t-262 -105q-31 -14 -58.5 -25t-58.5 -24q127 -162 272.5 -338t280.5 -335q-37 -20 -89.5 -48t-109.5 -57t-111.5 -55.5t-93.5 -44.5l2 2q-20 -12 -61 -31.5t-61 -28.5q-61 72 -134 154t-135 152q-70 72 -136.5 145.5t-127.5 146.5q-16 -45 -34.5 -93 t-39 -104.5t-41 -125t-41.5 -154.5q-12 2 -35.5 5t-49 5.5t-48 5.5t-32.5 5h2q-98 8 -194.5 22.5t-207.5 48.5zM80 406q104 -35 218 -47.5t232 -24.5q37 147 90.5 278t102.5 260q123 -166 274.5 -325.5t294.5 -333.5q104 49 203.5 97t198.5 100q-150 174 -290 344t-271 342 q199 78 377 150t352 138q-63 49 -110.5 105.5t-104.5 105.5q-174 -57 -358.5 -122.5t-383.5 -145.5q33 111 70 216.5t76 209.5q-98 10 -195.5 15.5t-208.5 9.5q-154 -281 -305.5 -623t-261.5 -749z" />
<glyph unicode="l" horiz-adv-x="1632" d="M6 342q66 217 137.5 407.5t145.5 364.5q74 180 155.5 348t159.5 324q23 0 59.5 2t65.5 2h35q98 0 194.5 -7t200.5 -18q-10 -33 -23.5 -72.5t-27.5 -82.5t-28.5 -85t-26.5 -75q-53 -166 -112.5 -341t-123.5 -374q53 -2 107.5 -4t103.5 -4q227 -12 428 -12h66h32q17 0 33 2 l39 -49q-10 -43 -24.5 -90.5t-30.5 -94.5q-6 -18 -13.5 -43.5t-15.5 -53.5t-15 -54.5t-14 -44.5q-172 -29 -342 -46.5t-329 -17.5q-203 0 -411 26.5t-425 92.5zM80 387q174 -53 355 -79t359 -30q42 -1 85 -1q135 -1 265 11q171 14 324 44q25 86 52 167.5t45 159.5 q-82 -3 -166 -3q-111 0 -225 6q-201 10 -429 18q94 297 180.5 551t159.5 481q-113 12 -222 18q-63 3 -129 3q-48 0 -97 -2q-141 -276 -289.5 -609.5t-267.5 -734.5z" />
<glyph unicode="m" horiz-adv-x="2607" d="M6 416q236 444 492 799.5t520 646.5q66 -12 146.5 -22.5t144.5 -18.5q59 -6 130.5 -15.5t129.5 -19.5q6 -43 16 -99.5t19 -101.5q6 -49 13 -98t15 -98q82 76 164 152.5t152 137.5q113 -12 230.5 -33.5t240.5 -48.5q33 -145 65.5 -299.5t59 -317.5t42.5 -334 q14 -151 13 -308v-41l-80 -78q-23 -4 -44 -6t-44 -6q-82 -16 -157.5 -26.5t-151.5 -10.5h-49q-16 180 -40 362.5t-48 341.5q-4 29 -9.5 55.5t-7.5 55.5q-123 -174 -276.5 -375.5t-362.5 -451.5q-10 31 -23.5 73.5t-28.5 89t-30.5 89.5t-27.5 73q-45 129 -87 250t-79 240 l-41 -62q-43 -61 -92.5 -131.5t-101.5 -145.5t-104 -149.5t-100 -144.5q-141 10 -287.5 25.5t-320.5 50.5zM90 463q129 -27 254 -39t254 -23q129 199 254 374t238 335q53 -199 126.5 -405.5t147.5 -430.5q205 242 362.5 457t286.5 408q29 -211 63.5 -435.5t57.5 -476.5h20 q88 -1 180 15q102 18 201 34v42q0 156 -13 306q-15 170 -40.5 328t-57.5 306.5t-63 289.5q-98 23 -201.5 41.5t-207.5 28.5q-92 -78 -182.5 -165t-188.5 -179q-16 123 -34.5 235.5t-37.5 223.5q-123 20 -243.5 30.5t-243.5 32.5q-236 -266 -475.5 -594t-456.5 -739z" />
<glyph unicode="n" horiz-adv-x="1994" d="M6 410q53 233 123 436t147 389q61 147 136 293.5t157 294.5q154 0 278 -9.5t234 -25.5q80 -154 164 -317.5t170 -337.5q4 25 8 49t13 47q8 47 20 105.5t25.5 117.5t27 114.5t23.5 98.5q135 -20 241.5 -42.5t192.5 -51.5l23 -35q-4 -270 -50.5 -578.5t-148.5 -678.5 q-143 -25 -299 -45.5t-309 -30.5q-39 82 -79 173t-79 169q-59 117 -110.5 227.5t-96.5 220.5q-20 -66 -38.5 -133t-39.5 -137q-10 -41 -24.5 -94.5t-29.5 -108.5t-31.5 -109.5t-30.5 -99.5q-166 12 -319.5 35t-297.5 64zM76 455q123 -35 249 -53.5t261 -28.5 q61 223 115.5 423.5t111.5 393.5q39 -111 89 -224.5t105.5 -229t113 -234.5t112.5 -242q135 10 265 26.5t249 37.5q90 340 134 632t46 560q-82 27 -169 47t-181 34q-37 -154 -73 -318.5t-77 -344.5q-98 217 -199.5 414.5t-199.5 384.5q-104 14 -212.5 24t-219.5 10 q-154 -276 -288 -597.5t-232 -714.5z" />
<glyph unicode="o" horiz-adv-x="2213" d="M17 858q-8 53 -8 105q0 128 50 251l9 15q66 160 208 279.5t345 187.5l-3 -2q113 41 237 63.5t249 22.5q72 0 143.5 -8.5t141.5 -24.5l2 2q178 -29 328.5 -115t262.5 -194q112 -111 172 -239q53 -113 53 -236q0 -16 -1 -33v2q-6 -100 -43 -193q-86 -197 -299 -344 q-141 -111 -326.5 -173t-396.5 -62q-66 0 -129 6h4q-123 6 -240 34.5t-222 76t-196.5 110t-164.5 133.5q-147 154 -176 336zM80 888q29 -171 168 -319q72 -70 161 -130t190 -105t213 -74t230 -35q67 -7 132 -7q162 0 309 42q205 58 352 174q141 98 222 220t85 259q1 16 1 31 q0 113 -51 221q-58 123 -159 228q-106 104 -252.5 187t-324.5 112q-137 30 -278 30q-50 0 -100 -4q-192 -14 -360 -76q-186 -61 -314 -171.5t-187 -251.5q-46 -111 -45 -228q-1 -51 8 -103zM693 975q-10 34 -10 67q0 38 13 74q25 72 76 138.5t150 103.5q78 35 175 43 q30 2 59 2q66 0 130 -12q98 -16 176 -59.5t133 -96.5q53 -55 82 -119q22 -48 21 -97q0 -17 -2 -34q-10 -68 -53.5 -128t-120.5 -101q-74 -38 -174 -58q-58 -11 -117 -12q-45 0 -89 6q-104 14 -200 50t-162 100q-66 61 -87 133zM754 1000q20 -60 80 -113q55 -57 146 -91 t196 -46q37 -6 73 -7q74 0 143.5 17.5t116.5 42.5h-2q86 46 111 112q6 12 9 25.5t7 28.5q1 11 1 21q1 46 -21 92q-26 56 -74 108l2 -2q-55 51 -128 91t-159 56q-35 4 -64.5 7.5t-57.5 3.5q-119 0 -197 -35q-68 -25 -108 -70t-62 -94q-4 -8 -5 -14.5t-5 -12.5 q-12 -31 -12 -63q0 -28 10 -57z" />
<glyph unicode="p" horiz-adv-x="1890" d="M6 379q57 221 124 412.5t144 369.5q68 166 144 319.5t149 301.5h68h39q18 0 28 2q14 0 27.5 1t26.5 1q18 0 39.5 -1t42.5 -3q16 0 32.5 1t34.5 1q176 0 352 -37q129 -29 247 -74t204 -119q80 -55 128 -131.5t48 -162.5v-3q-6 -39 -16 -63q-31 -76 -99.5 -126t-154.5 -79 l6 2q-117 -53 -248 -76.5t-272 -29.5h4q-59 -6 -119.5 -10.5t-122.5 -4.5q-29 0 -52.5 1t-49.5 3q-23 -61 -47.5 -124.5t-44.5 -124.5q-12 -31 -26.5 -71t-30 -82t-29 -82t-23.5 -73q-141 0 -282.5 12.5t-270.5 49.5zM78 424q104 -31 218 -40t224 -9q53 154 105.5 291 t93.5 272q83 -10 164 -10q20 0 39 1q100 3 200 13q129 4 254 26.5t236 71.5q80 29 142.5 78t68.5 121v6q0 69 -44 137q-46 70 -118 123q-92 72 -203.5 116t-230.5 71q-100 20 -203 28q-66 6 -134 6q-40 0 -81 -2q-35 4 -71 4q-18 0 -36 -1q-53 -3 -106 -3 q-72 -137 -142.5 -285.5t-138 -310t-128 -338t-109.5 -366.5zM831 1249q29 70 53.5 135.5t45.5 124.5q23 4 48.5 8.5t47.5 4.5q51 -4 103.5 -8.5t105.5 -12.5q33 -10 69.5 -23.5t67.5 -29.5t48.5 -38.5t13.5 -51.5q-6 -29 -29 -49.5t-53.5 -34.5t-67.5 -22.5t-74 -14.5 q-78 -10 -162 -13q-16 -1 -33 -1q-67 0 -136 10l-31 4l-6 8zM905 1288l4 -2v2q35 -4 69 -6t64 -2q45 0 91.5 3t93.5 11q47 6 90 16.5t53 28.5v2q2 18 -13.5 34t-41 29t-57 23.5t-62.5 18.5l6 -2q-57 10 -106 13t-99 7q-18 0 -24 -2q-16 -41 -32.5 -84t-35.5 -90z" />
<glyph unicode="q" horiz-adv-x="2236" d="M12 1002q13 90 47 176l7.5 15l7.5 15q68 160 211 289t348 201l-2 -2q117 43 238.5 63.5t250.5 20.5q72 0 146.5 -6.5t150.5 -22.5q180 -35 334 -119t258.5 -194.5t163.5 -237.5q55 -119 55 -241v-17q-2 -59 -16 -117.5t-39 -117.5q-47 -117 -141 -211l53 -72 q29 -39 55 -76t53 -76l-28 -84q-37 -25 -70 -50t-72 -52v2q-47 -37 -106 -79t-156 -99q-23 47 -59.5 107.5t-65.5 103.5q-16 23 -30.5 46t-30.5 48q-104 -41 -221 -59.5t-240 -18.5q-35 0 -65.5 1t-59.5 3h2q-121 8 -239.5 35t-225 70t-196.5 104.5t-154 138.5l2 -2 q-72 76 -111.5 162t-52.5 175q-8 46 -8 93q0 42 6 85zM74 865q20 -177 155 -330q61 -74 149.5 -133.5t192 -102.5t218 -67.5t231.5 -30.5q63 -6 127 -6q92 0 185 12q157 20 288 78q43 -76 92 -147.5t90 -147.5q92 57 172 119.5t166 119.5q-47 63 -92 128t-94 128 q104 88 155.5 203t53.5 232q1 12 1 24q0 113 -52 222q-56 122 -154 227q-100 104 -251 186t-323 117q-140 28 -289 28q-46 0 -93 -2q-199 -12 -365 -77q-186 -66 -315 -180.5t-191 -256.5q-62 -131 -62 -270q0 -36 5 -73zM703 980q-5 32 -5 62q0 45 11 86q29 70 84 128.5 t147 91.5q80 35 175 44q31 3 61 3l129 -13q94 -10 174 -52t137 -95q100 -95 100 -212q0 -23 -4 -46v-5q0 -67 -47 -126q-49 -62 -123 -96q-140 -78 -312 -78q-40 0 -81 4q-111 14 -204 55t-159 103q-70 66 -83 146zM765 1009q11 -69 71 -128q66 -57 152.5 -96.5t191.5 -51.5 h-2q20 -2 38.5 -3t36.5 -1q78 0 149 17.5t130 50.5q35 16 63.5 43.5t44.5 60.5q9 22 9 53l2 9q2 15 2 29q0 108 -92 196q-49 47 -124 87t-161 50q-35 6 -63.5 9t-57.5 3q-117 0 -211 -41q-66 -25 -107.5 -66.5t-64.5 -88.5v-4q-11 -37 -11 -77q0 -25 4 -51z" />
<glyph unicode="r" horiz-adv-x="1982" d="M6 387q55 223 119.5 415.5t136.5 366.5q72 162 149.5 316.5t163.5 302.5q111 12 188 14t146 2q147 -6 284.5 -20.5t272.5 -50.5q104 -27 198.5 -63t172.5 -89q70 -55 102.5 -122t36.5 -130q0 -27 -4 -51.5t-16 -50.5q-29 -72 -96.5 -128.5t-145.5 -94.5v2 q-59 -33 -130 -58.5t-148 -40.5q16 -16 33.5 -30.5t33.5 -30.5q41 -39 87 -83t95.5 -88t97.5 -87t91 -80q-57 -49 -93 -79t-61.5 -50.5t-45 -34.5t-44.5 -33q-25 -20 -67.5 -53t-108.5 -86q-92 92 -202.5 191.5t-204.5 185.5q-78 70 -157 138.5t-151 137.5 q-10 -29 -20 -57.5t-21 -56.5q-14 -41 -31.5 -90.5t-35 -101.5t-33.5 -103t-29 -94q-147 0 -287.5 15t-275.5 50zM78 434q117 -29 227.5 -42t220.5 -13q43 154 96.5 292t96.5 273q178 -178 372.5 -344t381.5 -350q80 66 161.5 123t151.5 121q-135 117 -259 234.5t-253 234.5 q47 -7 91 -7q77 0 145 20q106 32 194 77q88 43 150 107q59 60 59 133v10q-4 59 -33 118.5t-90 110.5q-76 51 -167 86t-196 61q-129 35 -264 48.5t-278 19.5q-70 0 -140.5 -1t-142.5 -9q-154 -270 -293 -593t-231 -710zM838 1257q25 72 50 136.5t54 126.5q14 8 35.5 9t38.5 3 q129 0 225 -21q37 -6 76 -20t69.5 -33.5t51 -45t20.5 -52.5q-12 -29 -36.5 -47.5t-56.5 -30.5t-70 -19.5t-74 -13.5q-78 -10 -163 -15q-25 -1 -51 -1q-61 0 -126 8l-27 8zM909 1298l9 -2l-5 2q31 -4 62 -6t59 -2q49 0 100.5 5t98.5 10h-2q51 8 99 19t65 28q-4 18 -23.5 34.5 t-46.5 30t-58.5 22.5t-62.5 15q-47 10 -100 15.5t-113 5.5q-2 0 -4 -1t-6 -1h4q-2 0 -3 -1.5t-3 -1.5q-18 -41 -35.5 -84t-34.5 -88z" />
<glyph unicode="s" horiz-adv-x="2379" d="M6 682q37 27 84 60.5t95 69.5t94.5 69.5t82.5 60.5q10 8 32 23.5t44.5 33t43 31.5t30.5 23q66 -117 192.5 -195t274.5 -94q23 -2 43 -3t43 -1q61 0 119.5 7t113.5 17q16 4 28.5 7.5t27.5 7.5h-4q8 2 15 4t17 6q-25 23 -64.5 39t-82.5 33l-61 24l2 -2q-23 8 -44.5 15.5 t-44.5 15.5q-104 35 -203.5 71.5t-191.5 84.5h2q-111 51 -164 139q-34 57 -34 115q0 32 10 65l8 12q31 74 96.5 130.5t150.5 94t183 59t195 28.5h-2q53 4 108 7t111 3q240 0 459 -51q174 -41 311 -126.5t248 -189.5l-29 -86q-29 -18 -51.5 -31.5t-44.5 -27.5l2 2 q-37 -23 -81 -51.5t-110 -83.5q-94 86 -206.5 143t-235.5 80q-72 14 -134.5 17t-131.5 3q-2 -2 -15 -2q25 -12 55.5 -22t59.5 -21q23 -10 47.5 -18t46.5 -18h-2q137 -53 267.5 -105.5t259.5 -116.5q45 -29 91 -59.5t84 -67.5t60 -80q21 -39 21 -86v-8q-4 -25 -10.5 -49 t-16.5 -47q-53 -123 -175 -209t-276 -135q-160 -47 -328.5 -74.5t-355.5 -27.5q-115 0 -233 12h2q-141 12 -275.5 52t-253 101.5t-220 143.5t-179.5 178zM90 686q141 -170 367.5 -283.5t505.5 -138.5q123 -14 240 -13.5t228 13.5q222 27 418 86q80 27 152 64t127 83t91 101 t44 121v7q1 39 -19 74q-22 38 -58 70.5t-79 61.5t-84 55q-123 63 -254 115.5t-268 103.5q-41 18 -84 32.5t-83 31t-75.5 37t-60.5 49.5q12 14 31.5 21t43 10.5t48.5 5.5t49 6q76 0 144.5 -2t140.5 -19q123 -23 230.5 -76t193.5 -126q59 47 121.5 81.5t119.5 73.5 q-104 100 -238 183t-302 122q-214 50 -442 50q-108 0 -220 -11q-86 -4 -174 -22.5t-163.5 -50t-132 -79.5t-79.5 -110q-8 -25 -8 -50q0 -13 2 -25q6 -38 29.5 -73.5t60.5 -67.5t86 -54q113 -57 232 -99.5t241 -85.5q33 -14 72 -27t75 -28.5t63.5 -36t39.5 -49.5 q-6 -23 -25.5 -34t-37.5 -21q-27 -6 -54.5 -16.5t-56.5 -16.5q-78 -15 -164 -23q-37 -4 -75 -3l-97 6q-78 8 -151.5 30.5t-136 56t-110.5 78t-75 95.5q-94 -66 -189 -137.5t-200 -145.5z" />
<glyph unicode="t" horiz-adv-x="1376" d="M6 264q104 313 208.5 604t197.5 533h-4q0 2 -2 2q-39 4 -87.5 8t-98.5 9t-99 11.5t-88 12.5q6 12 16 34.5t21.5 45t21.5 45t17 35.5v-2q6 14 17 35.5t23.5 45t23.5 46t17 34.5q324 -8 615 -49t545 -127l20 -45q-16 -51 -22.5 -88t-10.5 -70q0 -4 -4 -20t-8 -36.5t-8 -38 t-4 -19.5q-29 6 -68 13t-81 13.5t-82 11.5t-68 9q-20 2 -39 4t-37 6q-35 -123 -68.5 -251t-66.5 -269q-16 -59 -34.5 -132t-37 -148.5t-37 -151.5t-37.5 -144h-172q-111 0 -227.5 5.5t-251.5 27.5zM84 315q137 -23 271 -25q74 -1 146 -2q57 0 113 1q84 313 148.5 588.5 t138.5 517.5q92 -14 186.5 -25.5t182.5 -30.5q16 97 39 193q-248 86 -521.5 126t-570.5 46q-23 -51 -51.5 -104.5t-52.5 -106.5q98 -12 191 -20.5t185 -18.5q-92 -248 -193 -528.5t-212 -610.5z" />
<glyph unicode="u" horiz-adv-x="1724" d="M14 817v4q6 6 6 10q0 -2 -2 -2v5q39 111 81 222t83 210q53 119 112.5 244.5t131.5 261.5h55q31 0 64 -1.5t64.5 -3.5t54.5 -4q27 -2 60.5 -4t68 -3t67.5 -1h62q-96 -238 -171 -473t-157 -498l2 4q-3 -12 -3 -23q0 -21 10 -39q15 -28 46 -49.5t71 -33.5t83 -14q8 0 15 -1 t13 -1q78 0 134.5 36.5t78.5 86.5q0 4 1.5 8t1.5 8q20 70 37.5 137.5t35.5 134.5q35 143 76 292t107 327q123 -6 220 -24.5t177 -47.5l18 -35q-10 -174 -34.5 -352t-57.5 -377v2q-8 -43 -18.5 -85t-28.5 -85q-35 -82 -91 -156.5t-136 -140.5l4 4q-104 -94 -243.5 -153.5 t-305.5 -59.5h-45h-21q-10 0 -20 3h4q-166 14 -301 75.5t-246 159.5q-86 93 -137 201q-35 74 -35 154q0 38 8 77zM71 717q9 -51 32.5 -100.5t56.5 -95.5t71 -89q104 -92 234.5 -151.5t284.5 -73.5q45 -5 88 -5q126 0 236 40q146 53 251 151q106 86 163.5 194.5t78.5 219.5 q33 199 56.5 375t33.5 350q-78 25 -155 42t-163 21q-66 -180 -119 -387t-112 -436q-12 -41 -42 -80t-74 -67.5t-98 -44.5q-39 -11 -82 -11q-17 0 -34 2q-49 2 -97 18.5t-84 44.5q-35 28 -53 64q-11 22 -11 47q0 15 4 31q78 260 149.5 486.5t155.5 435.5q-100 0 -192.5 7 t-196.5 9q-98 -193 -191.5 -405.5t-179.5 -454.5q4 -8 1 -16.5t-11 -18.5q-5 -27 -6 -54q1 -24 5 -48z" />
<glyph unicode="v" horiz-adv-x="1648" d="M14 225q-5 166 -5 325q-1 255 13 490q22 381 91 738h123q86 0 189 -4.5t191 -8.5q-16 -215 -22 -455.5t-6 -502.5q47 61 96 120.5t94 116.5q123 152 251 305.5t235 272.5q98 -8 187 -20.5t175 -30.5l16 -66q-10 -14 -18 -28.5t-18 -30.5q-78 -127 -167 -267.5 t-191.5 -295t-223.5 -324.5t-264 -358q-186 0 -372.5 4t-373.5 20zM76 281q174 -14 338 -18.5t329 -4.5q279 367 481.5 681.5t366.5 576.5q-78 18 -154.5 28t-162.5 19q-172 -193 -352.5 -417t-397.5 -489q4 295 7.5 553t19.5 500q-99 6 -193 10q-62 3 -128 3q-33 0 -66 -1 q-63 -314 -83 -668q-11 -203 -11 -426q0 -167 6 -347z" />
<glyph unicode="w" horiz-adv-x="2416" d="M10 322q-3 91 -3 180q0 790 200 1417q94 -2 162.5 -7t119.5 -9q49 -4 114 -10.5t112 -8.5q-9 -116 -11 -224q0 -25 -1 -50q0 -83 4 -168v-96q0 -23 1 -47.5t3 -47.5q156 141 319.5 272.5t337.5 256.5q74 -174 157 -372t158 -400q86 160 177.5 309t177.5 291 q20 -6 48 -13.5t56.5 -14.5t56 -12t46.5 -7q35 -8 70.5 -14.5t72.5 -14.5l22 -49q-31 -111 -74.5 -227.5t-97.5 -245.5q-35 -84 -77.5 -179.5t-91 -194.5t-99.5 -201.5t-100 -201.5h-33q-20 0 -42.5 -1t-43.5 -1h-33q-66 -2 -136.5 -4t-139.5 -2q-41 0 -95.5 1t-97.5 3 q-27 74 -58.5 158t-57.5 156q-20 55 -40 109.5t-40 107.5l-25 -31q-41 -49 -88 -105.5t-95 -115.5t-96.5 -118.5t-91.5 -115.5l-139 9q-119 8 -252 17t-256 22zM74 375q143 -16 285.5 -23.5t285.5 -17.5q117 147 226.5 281.5t213.5 263.5q47 -143 105.5 -290t112.5 -302 q95 -4 186 -4q45 0 89 1q132 3 261 7q168 340 301 631t209 555q-74 18 -145.5 29.5t-147.5 31.5q-92 -147 -191.5 -316t-203.5 -362q-80 223 -163 429t-169 405q-166 -123 -334 -260.5t-348 -303.5q1 57 1 113q0 127 -6 247q-3 62 -3 123q0 109 10 216q-104 4 -200.5 16.5 t-200.5 14.5q-98 -313 -144 -683q-34 -278 -34 -592q0 -103 4 -210z" />
<glyph unicode="x" horiz-adv-x="2107" d="M-293 369q117 94 217.5 170.5t190.5 143.5t171 123t158 109q92 61 170 119t154 115q-35 68 -73 133.5t-74 130.5q-25 45 -58 104.5t-66.5 123t-64.5 123t-51 102.5q55 -4 133 -10.5t159 -12.5t157.5 -13t130.5 -13q59 -72 114 -151t109 -150q16 -23 32.5 -44.5 t32.5 -44.5q35 18 66 37t63 37q57 35 124 72t114 65q23 -4 53.5 -8t48.5 -8q39 -6 79 -13t86 -16.5t99.5 -24t118.5 -34.5q-129 -123 -243.5 -222.5t-231.5 -191.5l2 2q-16 -16 -34.5 -30.5t-37.5 -28.5q41 -66 85.5 -132.5t89.5 -133.5q74 -117 149.5 -233.5t147.5 -239.5 l-72 -97q-117 -16 -235.5 -29.5t-254.5 -13.5h-65q-160 270 -334 523q-51 -39 -104.5 -78t-106.5 -76q-86 -61 -186.5 -135t-192.5 -144q-23 2 -62.5 4.5t-64.5 4.5q-139 8 -291.5 23.5t-351.5 62.5zM-174 403q162 -39 326.5 -49t326.5 -20q166 125 321.5 233.5t299.5 218.5 q92 -135 176 -268t172 -276q30 -1 60 -1q108 -1 209 11q128 14 253 33q-123 205 -249 395t-242 377q143 123 276 229.5t244 212.5q-94 29 -193.5 45.5t-197.5 32.5q-86 -49 -184.5 -105.5t-209.5 -119.5q-76 104 -145.5 204.5t-155.5 204.5q-106 12 -209.5 21.5t-214.5 15.5 q78 -160 172.5 -317.5t186.5 -331.5q-106 -82 -228 -168t-253 -177t-267.5 -190.5t-273.5 -210.5z" />
<glyph unicode="y" horiz-adv-x="1744" d="M6 1870q43 0 104.5 -2t128 -5t127 -7.5t101.5 -8.5q29 -4 71 -7t72 -5q35 -55 75 -115.5t81 -113.5q35 -51 67.5 -102.5t67.5 -104.5q53 29 103.5 58.5t99.5 58.5q59 33 127.5 70.5t124.5 70.5q82 -16 177 -41t181 -47h-2q8 0 14.5 -2t12.5 -4l-8 -95 q-72 -57 -155 -115.5t-169 -117.5h2q-72 -53 -150.5 -108.5t-158.5 -114.5q-41 -141 -90 -294t-105 -319l-47 -135q-80 0 -180 -2t-199 -2h-121h-217q23 66 48.5 137.5t53 142t54.5 138t49 125.5q29 68 54.5 132t45.5 128q-18 39 -40.5 75t-45.5 72q-43 72 -86 144.5 t-87 152.5t-89 169t-92 194zM111 1810q78 -180 187.5 -356t219.5 -367q-66 -174 -145.5 -363t-151.5 -407q103 -1 203 -1h100q150 1 297 6q66 193 123 367.5t103 340.5q180 135 345 249.5t312 227.5q-92 25 -181 47.5t-175 40.5q-111 -66 -230 -130t-248 -140 q-78 119 -157.5 230.5t-149.5 224.5q-111 8 -222.5 18t-229.5 12z" />
<glyph unicode="z" horiz-adv-x="1783" d="M6 362q6 18 15.5 45t19.5 56t21.5 56.5t21.5 45.5q16 37 34.5 78t41.5 88q100 72 201.5 148.5t189.5 144.5q123 92 238.5 178t232.5 168q-84 8 -176 15.5t-185.5 14.5t-184.5 13t-173 12q57 66 89 107t50 70q10 12 17.5 22t18.5 25.5t30.5 39t54.5 64.5q334 -4 639 -49 t576 -143q-8 -68 -20.5 -130.5t-28.5 -125.5q-96 -74 -170 -135.5t-152 -127.5q-86 -72 -174 -145.5t-186 -148.5h145q135 0 259 3t247 11l39 -49q-12 -47 -24.5 -85t-22.5 -73q-18 -47 -35 -98t-33 -133q-193 -31 -385.5 -49.5t-388.5 -18.5q-199 0 -410 24.5t-432 81.5z M78 408q190 -51 386 -73q194 -22 386 -23h22q180 0 354 16q184 16 347 43q20 94 53 174t51 160q-185 -13 -379 -15q-74 -1 -152 0q-123 0 -253 2q117 82 221.5 165t199.5 164t184 156.5t177 143.5q23 104 37 192q-256 94 -539.5 136.5t-597.5 46.5q-45 -51 -81.5 -107.5 t-83.5 -109.5q205 -12 391 -28.5t373 -35.5q-221 -143 -457 -325.5t-512 -384.5q-39 -72 -69 -146t-58 -151z" />
<glyph unicode="{" horiz-adv-x="1226" d="M7 230.5q-1 25.5 16 60.5q8 23 16 45t18 45q23 59 46.5 122.5t50.5 129.5q6 51 -13 80q-2 4 -6 10t-10 18q-8 8 -15.5 24.5t-17.5 70.5q53 33 77 50t40 29q29 27 53.5 54.5t40.5 60.5q16 45 34.5 90t39.5 92q29 74 58.5 152t62.5 158q57 94 122.5 161.5t133 111.5 t135 65.5t127.5 21.5q70 0 123 -26.5t82 -73.5l-4 -43q0 -12 -11 -27q-14 -29 -34.5 -69.5t-41 -81.5t-39 -80t-30.5 -66q-35 12 -74 25.5t-61 13.5q-16 0 -36 -5t-40 -19q-23 -16 -42.5 -46t-37.5 -63q-10 -23 -17.5 -40t-17.5 -40l-86 -197q-51 -106 -149 -180 q-8 -6 -15.5 -11t-11.5 -9q4 -4 5 -11.5t5 -13.5q0 -6 3 -11t6 -9v2q6 -27 13 -57.5t-16 -77.5q-12 -25 -18 -54q-12 -29 -21.5 -52t-19.5 -50q-20 -43 -20 -68h6q16 0 60 10.5t91 24.5q-12 -23 -30.5 -61.5t-38 -81.5t-36 -82t-24.5 -62q-82 -39 -151.5 -57t-122.5 -18 q-23 0 -44.5 4t-47.5 10q-14 12 -29.5 25.5t-25 32t-10.5 44zM72.5 223.5q17.5 -24.5 40.5 -41.5q57 -16 131.5 -6t154.5 49q18 43 38 86t40 88q-33 -8 -66.5 -14t-54.5 8q-10 47 21 115q12 39 28.5 78t30.5 80q16 39 8 65.5t-18 50.5q-4 18 -16.5 29.5t-22.5 28.5 q25 14 47.5 30.5t44.5 32.5q37 29 68 65t53 81q29 66 57.5 135t63.5 141q18 41 50 83t67 65q33 23 60.5 30.5t52 6.5t48 -8t45.5 -13q29 61 59.5 122.5t61.5 127.5q-35 55 -107.5 75.5t-160.5 -4t-181 -95t-167 -195.5q-49 -131 -98.5 -251t-94.5 -237q-20 -43 -51 -78.5 t-65 -70.5q-23 -16 -41.5 -31.5t-40.5 -28.5q8 -20 17 -34.5t20 -30.5q14 -20 16 -51t-2 -66q-37 -92 -68.5 -178t-62.5 -168q-23 -47 -5.5 -71.5z" />
<glyph unicode="|" horiz-adv-x="1095" d="M9 -227.5q-3 30.5 3 63.5q150 367 353.5 862.5t468.5 1134.5q49 86 107 137t114 86q20 -18 27.5 -43.5t6 -55.5t-8.5 -62.5t-15 -65.5q-18 -45 -38.5 -92t-39.5 -92q-244 -553 -433 -985t-339 -766l-4 -7q-23 -47 -58.5 -79.5t-68.5 -55.5q-23 -8 -27 -9t-8 -1 q-37 0 -40 30.5zM55 -147q0 -20 1 -40t26 -12q61 38 94 95q164 358 372 834t474 1093q10 53 17.5 102t-9.5 66q-41 -23 -80 -59t-76 -101q-264 -639 -466.5 -1126.5t-352.5 -851.5z" />
<glyph unicode="}" horiz-adv-x="1193" d="M6 106q25 57 48.5 123t45.5 138q53 -10 68.5 -11.5t26.5 -1.5q29 0 61.5 7.5t62.5 27.5q14 12 26.5 27.5t19.5 29.5l94 220q29 57 68.5 100t80.5 78l27 22q0 2 -2 2v2l-8 23q-4 4 -4 8t-5 8l2 -2q-8 29 -11 64t14 84q14 35 25 69.5t24 69.5q6 18 13 35.5t15 38.5 q14 37 27.5 75.5t9.5 61.5q-29 31 -86 31q-4 0 -34.5 -4.5t-65.5 -8.5q10 27 23.5 63t28.5 73.5t28.5 73.5t23.5 63q12 29 29.5 81t30.5 81q129 45 213 45q74 0 135 -26t96 -85l-2 2q35 -41 33 -118t-35 -156q-41 -86 -80 -170t-74 -164q-12 -31 -24 -59.5t-27 -55.5 q-10 -29 -13 -49.5t7 -30.5q6 -16 2 -24q6 -12 14 -27.5t31 -44.5l-76 -55q-10 -10 -22 -19.5t-27 -23.5l-18 -19q-23 -20 -42.5 -40.5t-29.5 -41.5q-14 -31 -26.5 -61.5t-26.5 -61.5q-27 -53 -51.5 -105t-48.5 -103q-45 -68 -107.5 -122.5t-130.5 -92t-134.5 -58 t-121.5 -20.5q-47 0 -121 34zM74 145q39 -23 104.5 -16.5t137 37.5t140 83t113.5 122q41 78 78 159.5t74 167.5q18 37 51 70t62 61q16 16 35.5 31t37.5 29q-6 10 -10 25.5t-8 31.5q-12 18 -8 53t16 72q49 106 97 216t108 233q27 66 27.5 130t-21.5 99q-53 78 -147.5 91 t-210.5 -21q-33 -86 -62 -165t-61 -165q47 6 92 0t69 -41q12 -35 -5 -83t-33 -95q-16 -53 -36 -105.5t-38 -105.5q-16 -45 -9 -75t13 -58l6 -17q12 -16 17.5 -25.5t9.5 -15.5q-20 -14 -41 -29.5t-41 -29.5q-35 -29 -68 -65.5t-53 -77.5q-25 -55 -45.5 -106.5t-44.5 -106.5 q-10 -29 -36 -58.5t-50 -50.5q-55 -33 -108.5 -42t-94.5 -3q-25 -80 -57 -154z" />
<glyph unicode="~" horiz-adv-x="1601" d="M6 991l2 51l2 -2q2 41 13 88q16 63 45 123q43 104 112.5 202.5t161.5 178.5h-2q51 45 107.5 87t113.5 74t115.5 51.5t116.5 19.5h16q49 -4 79 -26.5t48 -56.5t28.5 -75t18.5 -82q0 -10 1 -16t3 -17l8 -28l-2 2q14 -59 29.5 -111.5t54.5 -67.5q41 2 94.5 32t106.5 71 l-6 -2q59 47 116.5 113.5t104.5 154.5l100 12q2 -78 -1 -160.5t1 -150.5l-2 -24q-59 -123 -148 -232.5t-190 -195.5q-98 -78 -197.5 -132.5t-191.5 -64.5h-12q-80 0 -127 51t-72 117v-2q-10 23 -12 45q-14 43 -36.5 84t-63.5 57q-37 -2 -74 -25.5t-71 -59.5t-62.5 -81 t-46.5 -88q-10 -23 -25.5 -97.5t-32.5 -178.5q-6 10 -25.5 43t-42 69.5t-42 69.5t-27.5 43l-4 -2q-16 23 -37.5 56.5t-44.5 82.5zM63 1016q31 -59 71 -107.5t69 -101.5q8 57 43 129t87 133t115.5 103t129.5 42q33 -10 54 -33.5t35.5 -52t24.5 -60.5t23 -58 q25 -57 60.5 -102.5t103.5 -45.5q82 8 171 56.5t175 117.5q88 78 170 182.5t139 217.5q-2 66 -3 137.5t3 148.5q-47 -82 -106.5 -148.5t-122.5 -119.5q-66 -51 -132.5 -87t-125.5 -36q-29 8 -48.5 30.5t-32 55.5t-21.5 71t-17 75q-6 37 -13.5 78.5t-22.5 77.5t-41 60.5 t-69 26.5q-98 4 -203.5 -57t-203.5 -147q-111 -98 -184.5 -219t-106.5 -244q-4 -23 -9 -42.5t-3 -37.5z" />
<glyph unicode="&#xad;" d="M6 664q10 41 19.5 73.5t19.5 55.5q35 76 90 159.5t109 165.5q233 -55 432 -121.5t373 -142.5l16 -37q-10 -55 -27.5 -111.5t-40.5 -109.5q-16 -35 -38.5 -81t-59.5 -107q-217 43 -440 103t-453 153zM72 702q211 -86 412.5 -141t392.5 -94q47 82 81 169t50 169 q-170 76 -356.5 138.5t-395.5 111.5q-53 -78 -105.5 -166t-78.5 -187z" />
<glyph unicode="&#x2000;" horiz-adv-x="1222" />
<glyph unicode="&#x2001;" horiz-adv-x="2445" />
<glyph unicode="&#x2002;" horiz-adv-x="1222" />
<glyph unicode="&#x2003;" horiz-adv-x="2445" />
<glyph unicode="&#x2004;" horiz-adv-x="815" />
<glyph unicode="&#x2005;" horiz-adv-x="611" />
<glyph unicode="&#x2006;" horiz-adv-x="407" />
<glyph unicode="&#x2007;" horiz-adv-x="407" />
<glyph unicode="&#x2008;" horiz-adv-x="305" />
<glyph unicode="&#x2009;" horiz-adv-x="489" />
<glyph unicode="&#x200a;" horiz-adv-x="135" />
<glyph unicode="&#x2010;" d="M6 664q10 41 19.5 73.5t19.5 55.5q35 76 90 159.5t109 165.5q233 -55 432 -121.5t373 -142.5l16 -37q-10 -55 -27.5 -111.5t-40.5 -109.5q-16 -35 -38.5 -81t-59.5 -107q-217 43 -440 103t-453 153zM72 702q211 -86 412.5 -141t392.5 -94q47 82 81 169t50 169 q-170 76 -356.5 138.5t-395.5 111.5q-53 -78 -105.5 -166t-78.5 -187z" />
<glyph unicode="&#x2011;" d="M6 664q10 41 19.5 73.5t19.5 55.5q35 76 90 159.5t109 165.5q233 -55 432 -121.5t373 -142.5l16 -37q-10 -55 -27.5 -111.5t-40.5 -109.5q-16 -35 -38.5 -81t-59.5 -107q-217 43 -440 103t-453 153zM72 702q211 -86 412.5 -141t392.5 -94q47 82 81 169t50 169 q-170 76 -356.5 138.5t-395.5 111.5q-53 -78 -105.5 -166t-78.5 -187z" />
<glyph unicode="&#x2012;" d="M6 664q10 41 19.5 73.5t19.5 55.5q35 76 90 159.5t109 165.5q233 -55 432 -121.5t373 -142.5l16 -37q-10 -55 -27.5 -111.5t-40.5 -109.5q-16 -35 -38.5 -81t-59.5 -107q-217 43 -440 103t-453 153zM72 702q211 -86 412.5 -141t392.5 -94q47 82 81 169t50 169 q-170 76 -356.5 138.5t-395.5 111.5q-53 -78 -105.5 -166t-78.5 -187z" />
<glyph unicode="&#x2013;" horiz-adv-x="1036" d="M6 664q10 41 19 73.5t19 55.5q34 76 87 159.5t105 165.5q225 -55 417.5 -121.5t361.5 -142.5l15 -37q-10 -55 -27 -111.5t-39 -109.5q-15 -35 -37 -81t-58 -107q-209 43 -425 103t-438 153zM70 702q204 -86 399 -141t379 -94q46 82 78.5 169t48.5 169 q-164 76 -344.5 138.5t-382.5 111.5q-52 -78 -102.5 -166t-75.5 -187z" />
<glyph unicode="&#x2014;" horiz-adv-x="2060" d="M6 664q19 41 37.5 73.5t37.5 55.5q68 76 174.5 159.5t210.5 165.5q451 -55 836 -121.5t721 -142.5l31 -37q-19 -55 -53 -111.5t-79 -109.5q-30 -35 -73.5 -81t-115.5 -107q-420 43 -851 103t-876 153zM134 702q408 -86 797.5 -141t758.5 -94q91 82 157 169t97 169 q-329 76 -689.5 138.5t-765.5 111.5q-102 -78 -203.5 -166t-151.5 -187z" />
<glyph unicode="&#x201a;" horiz-adv-x="659" d="M6 -264q4 6 15.5 24.5t25.5 40t26.5 41t16.5 25.5q61 100 136 222t151 239q16 4 49 10t53 10q35 6 67 13.5t60 7.5q14 0 21.5 -1t15.5 -3l10 -66q-4 -8 -9 -15.5t-11 -17.5v2q-66 -98 -134.5 -199.5t-131.5 -193.5q-12 -4 -37 -15.5t-35 -15.5q-29 -12 -54.5 -23 t-57 -24.5t-73.5 -28t-104 -32.5zM109 -184q55 16 115.5 42.5t119.5 53.5q70 94 135 192t137 209q-47 8 -104 -7t-117 -23q-86 -129 -153.5 -243t-132.5 -224z" />
<glyph unicode="&#x202f;" horiz-adv-x="489" />
<glyph unicode="&#x205f;" horiz-adv-x="611" />
<glyph unicode="&#x25fc;" horiz-adv-x="1863" d="M0 0v1864h1864v-1864h-1864z" />
</font>
</defs>
</svg>
