<?xml version="1.0" standalone="no"?>
<!DOCTYPE svg PUBLIC "-//W3C//DTD SVG 1.1//EN" "http://www.w3.org/Graphics/SVG/1.1/DTD/svg11.dtd" >
<svg xmlns="http://www.w3.org/2000/svg" xmlns:xlink="http://www.w3.org/1999/xlink" version="1.1">
<metadata></metadata>
<defs>
<font id="vtc_screamitloudregular" horiz-adv-x="950" >
<font-face units-per-em="2048" ascent="1638" descent="-410" />
<missing-glyph horiz-adv-x="485" />
<glyph horiz-adv-x="0" />
<glyph horiz-adv-x="682" />
<glyph unicode=" "  horiz-adv-x="485" />
<glyph unicode="&#x09;" horiz-adv-x="485" />
<glyph unicode="&#xa0;" horiz-adv-x="485" />
<glyph unicode="!" horiz-adv-x="589" d="M8 354q55 -53 118.5 -83.5t129.5 -47t129.5 -23.5t122.5 -14q4 106 13 209t11 203q-57 14 -116.5 22.5t-119.5 16.5t-122.5 20.5t-128.5 34.5q-14 -82 -24.5 -164t-12.5 -174zM70 1004q129 -37 246.5 -56.5t234.5 -46.5q16 209 27.5 391.5t23.5 356.5q-92 84 -206.5 130 t-219.5 68q-33 -190 -51.5 -399t-54.5 -444z" />
<glyph unicode="&#x22;" horiz-adv-x="890" d="M8 1438q66 -27 131.5 -47.5t130.5 -49.5q29 98 52.5 186.5t62.5 166.5q-66 23 -133.5 50.5t-132.5 45.5q-111 -133 -111 -352zM582 1196q66 -18 131 -36.5t127 -29.5q27 76 37.5 156t-5.5 178q-51 27 -103 48.5t-105 43.5q-23 -86 -39.5 -177t-42.5 -183z" />
<glyph unicode="#" horiz-adv-x="1681" d="M8 815q8 59 16.5 111.5t24.5 109.5q80 -23 155 -41t146 -41q10 63 22.5 121t22.5 117q-78 23 -152.5 38t-152.5 32q16 59 27.5 117.5t27.5 115.5q147 -47 285 -80q16 66 27.5 129.5t23.5 116.5q78 -4 149.5 -23.5t143.5 -31.5q-8 -68 -15 -139.5t-24 -143.5 q94 -23 183.5 -46.5t175.5 -51.5q4 59 12 120.5t18 114.5q66 -23 131.5 -49.5t128.5 -54.5q0 -59 -2 -113.5t-4 -114.5q63 -23 125.5 -42t128.5 -37q4 -43 5 -84t12 -88q-72 23 -140.5 36t-140.5 29q0 -59 -6 -112.5t-10 -114.5q84 -16 162.5 -26.5t154.5 -20.5 q0 -53 1 -109.5t1 -112.5q-72 6 -145.5 12.5t-157.5 16.5q-4 -76 -12 -151.5t-19 -159.5q-82 8 -167 17t-173 22q6 96 18.5 181t28.5 171q-82 12 -164.5 27.5t-170.5 25.5q-16 -78 -26.5 -158.5t-20.5 -164.5q-92 23 -185.5 46t-187.5 56q4 86 14 164t29 156 q-84 16 -162 48.5t-162 59.5zM694 862q100 -18 190.5 -39.5t178.5 -40.5q10 59 11 119t5 117q-86 23 -175 44t-185 42q-4 -59 -6 -120.5t-19 -121.5z" />
<glyph unicode="$" horiz-adv-x="1671" d="M8 727q61 70 125 134.5t115 129.5q27 -78 79 -153.5t122.5 -138t154.5 -109.5t170 -68q59 -23 120.5 -33t117.5 -6q35 0 70.5 6.5t43.5 40.5q-20 33 -48.5 56.5t-61.5 43t-65.5 37t-61.5 38.5q-113 59 -228.5 121.5t-226.5 146.5q-43 31 -82 66.5t-68.5 75.5t-45 81 t-9.5 80q8 70 43 125t90.5 90t128 48t156.5 1q0 33 5 62.5t5 58.5q78 -18 149 -34.5t146 -45.5q-10 -29 -19 -58.5t-22 -58.5q61 -29 123 -45t121 -47q0 27 4 50.5t0 56.5q59 -33 115.5 -52.5t116.5 -52.5q0 -33 -4.5 -65.5t-4.5 -65.5q47 -41 89 -83t83 -87 q31 -33 57.5 -66.5t51.5 -68.5l-84 -193q-37 61 -93 106.5t-110 98.5q-88 72 -185 137.5t-202 102.5q-59 23 -116.5 34t-110.5 1q-33 0 -65.5 -9.5t-39.5 -44.5q18 -37 50 -65.5t69 -51t77 -43t75 -40.5q121 -68 236.5 -130.5t230.5 -133.5q39 -25 78.5 -55.5t72.5 -67.5 t55.5 -77t26.5 -83q14 -129 -50.5 -216t-168.5 -128q-2 -82 -9 -162t-11 -168q-80 0 -157 5t-161 14q6 82 6 170q0 43 2 82.5t8 78.5q-72 10 -135 28.5t-133 29.5q-23 -78 -35 -159t-28 -167q-94 16 -187.5 32.5t-191.5 45.5q12 106 25.5 201.5t33.5 193.5q-72 29 -135 75 t-117.5 102.5t-99.5 119t-76 125.5z" />
<glyph unicode="%" horiz-adv-x="2095" d="M18 1673q23 61 79.5 96t129.5 46q82 16 167 4.5t177 -39.5q84 -33 159 -81t142 -108q59 -59 97.5 -127t34.5 -125q0 -35 -16.5 -61.5t-42 -46t-59.5 -31.5t-71 -20q-86 -16 -186.5 -11t-210.5 48q-88 35 -173 88t-147 125q-51 61 -74.5 126.5t-5.5 116.5zM211 465 q184 150 341 290t295 266t264 234.5t247 192.5q94 -35 180 -68.5t172 -66.5q-92 -96 -190.5 -207t-211 -233.5t-241.5 -255t-285 -273.5q-135 29 -277.5 55.5t-293.5 65.5zM324 1534.5q6 -18.5 21 -35t38 -31t47 -20.5q37 -16 75 -24.5t75 -6.5q35 0 58.5 14.5t27.5 47.5 q2 18 -10.5 39.5t-34 41t-47 36t-50.5 26.5q-35 10 -67.5 12t-60 -5t-46 -22.5t-24.5 -39.5q-8 -14 -2 -32.5zM1255 516q-6 84 37 140.5t111 82.5q61 29 140 36t165 -27q66 -23 130.5 -69t123.5 -106q49 -55 83 -125t38 -129q10 -72 -21.5 -118.5t-74.5 -81.5 q-47 -41 -116 -58.5t-153 2.5q-80 12 -161.5 56.5t-153.5 109.5q-68 59 -108 137t-40 150zM1563 428q0 -20 10 -39.5t26.5 -36t36 -29t37.5 -18.5q35 -4 64.5 -8t58.5 8q59 12 49 80q-8 53 -49 89t-88 48q-59 27 -102 -4t-43 -90z" />
<glyph unicode="&#x26;" horiz-adv-x="1728" d="M12 938q-10 -104 35 -218t139 -212q100 -111 228.5 -182.5t257.5 -114.5q180 -51 350 -64q29 0 55.5 4.5t55.5 4.5q23 -39 47 -64q129 -18 245.5 -26.5t223.5 2.5q-47 59 -91.5 119.5t-89.5 119.5q72 45 132.5 85t119.5 83q-68 86 -133 170t-125 170q-123 -72 -266 -110 q-39 45 -68.5 94t-64.5 94q49 4 94 9t86 16q76 27 112 85t25 140q-10 72 -43.5 143.5t-99.5 132.5q-78 66 -159 110t-167 79q-96 45 -198.5 67.5t-188.5 14t-144 -50.5t-65 -128q-10 -49 0.5 -103t32.5 -108q6 -29 27.5 -51t32.5 -51q-51 -2 -94.5 -16.5t-90.5 -30.5 q-86 -27 -143 -77t-68 -136zM528 719q10 27 25.5 46t46.5 28q16 4 28.5 9t28.5 7q33 -47 68 -93.5t68 -97.5q-10 -6 -17.5 -12t-17.5 -10q-23 -12 -52.5 -10t-58.5 10q-41 16 -82 49t-37 74zM780 1341q-4 29 8.5 49.5t35 31t53 8t65.5 -18.5q37 -16 58.5 -53t21.5 -66 q-10 -16 -28.5 -25.5t-41.5 -19.5q-37 0 -68.5 -4t-70.5 0q-33 53 -33 98z" />
<glyph unicode="'" horiz-adv-x="376" d="M8 1325q78 -39 150.5 -61.5t144.5 -38.5q23 88 38.5 169t25.5 173q-66 39 -129.5 64.5t-135.5 51.5q-29 -86 -47 -175t-47 -183z" />
<glyph unicode="(" horiz-adv-x="1038" d="M16 999q-16 -129 12.5 -274t97.5 -287.5t177.5 -275.5t251.5 -240q129 -29 249 -35t224 27q-129 51 -230.5 153.5t-183.5 219.5q-111 160 -161 317.5t-43 298.5q4 129 41.5 233.5t128.5 159.5q35 16 72.5 33t79.5 26t89.5 7t100.5 -25q-174 123 -367 193q-117 0 -213 -37 t-167 -106.5t-111.5 -167t-47.5 -220.5z" />
<glyph unicode=")" horiz-adv-x="1044" d="M8 190q82 -20 155 -12t135 33t115.5 61.5t98.5 73.5q49 45 82 100.5t53.5 118t29.5 129t9 131.5q0 133 -48 269.5t-136 269.5q-72 92 -161 183t-202 153q102 -25 203.5 -60.5t200.5 -83.5q113 -94 200.5 -202.5t149 -223t96.5 -233t41 -231.5q12 -125 -12.5 -241 t-85 -213t-155.5 -171t-224 -117q-141 39 -281.5 102.5t-263.5 163.5z" />
<glyph unicode="*" horiz-adv-x="1122" d="M8 1370q86 -35 161 -76t153 -69q-55 -23 -115 -46.5t-123 -50.5q35 -35 55.5 -73.5t46.5 -81.5q74 35 142.5 61.5t134.5 59.5q-12 -66 -19.5 -139.5t-19.5 -147.5q57 -29 108.5 -48.5t104.5 -39.5q0 76 8 145.5t8 141.5q41 -78 82 -155t84 -157q49 8 93 20.5t96 16.5 q-57 72 -109.5 142.5t-105.5 144.5q78 -39 151.5 -78t151.5 -76q0 43 9 76t9 74q-78 29 -150.5 64.5t-158.5 68.5q72 20 141.5 29.5t130.5 21.5q-23 37 -45 76t-47 78q-59 -23 -119.5 -39.5t-120.5 -36.5q6 59 15.5 117.5t11.5 117.5q-47 23 -91 41.5t-93 40.5 q-4 -59 -10.5 -117.5t-10.5 -117.5q-51 80 -103 156.5t-104 154.5q-49 -2 -99 1t-105 -1q59 -76 120.5 -149.5t120.5 -149.5q-86 37 -169 79t-171 81q-10 -39 -24.5 -77t-24.5 -83z" />
<glyph unicode="+" horiz-adv-x="1067" d="M8 961q111 -33 212.5 -51.5t199.5 -45.5q-12 -78 -25.5 -160.5t-23.5 -181.5q78 -16 154.5 -32.5t148.5 -26.5q12 86 18 168t17 168q88 -23 171 -36t164 -24q4 53 5.5 103.5t9.5 99.5q-86 20 -169 41t-175 37q10 92 20 170t10 164q-63 23 -125.5 46t-132.5 46 q-14 -82 -27.5 -163t-25.5 -169q-92 14 -187 35.5t-200 42.5q-6 -55 -17.5 -110.5t-21.5 -120.5z" />
<glyph unicode="," horiz-adv-x="626" d="M8 -332q123 -20 232.5 -19t214.5 9q55 172 93.5 329.5t67.5 313.5q-88 49 -181 71.5t-193 55.5q-59 -174 -115.5 -358.5t-118.5 -401.5z" />
<glyph unicode="-" d="M17 886q-15 -91 1 -196q252 -90 477.5 -149.5t436.5 -100.5q10 88 8 177.5t-25 181.5q-399 156 -860 264q-23 -86 -38 -177z" />
<glyph unicode="." horiz-adv-x="493" d="M14 133q111 -53 223.5 -80.5t223.5 -50.5q16 100 22 191.5t-6 191.5q-100 47 -203.5 75.5t-210.5 55.5q-25 -92 -43 -184t-6 -199z" />
<glyph unicode="/" horiz-adv-x="1243" d="M8 115q61 -43 127 -69t131.5 -43t132 -30.5t129.5 -31.5q127 203 230.5 393t189.5 364t156 331t131 296q-150 100 -324 166q-205 -242 -422 -586t-481 -790z" />
<glyph unicode="0" horiz-adv-x="1482" d="M20 1257q-20 -147 13 -308t143 -326q51 -86 120 -162t147.5 -138.5t166.5 -107.5t181 -70q174 -53 315 -17t227 134q82 88 118 206t13 259q-10 123 -63 249t-141 245q-82 113 -197 213t-246 155q-141 59 -275 70.5t-239 -35.5q-125 -41 -194.5 -136t-88.5 -231zM442 1065 q4 121 113 178q47 20 105.5 21.5t123.5 -21.5q68 -29 128.5 -75t103.5 -105q39 -59 56.5 -122t17.5 -120q10 -125 -70 -211q-43 -29 -103.5 -39t-132.5 17q-76 23 -147.5 73t-112.5 121q-49 70 -69.5 146t-12.5 137z" />
<glyph unicode="1" horiz-adv-x="512" d="M8 313q35 -53 91.5 -79.5t109.5 -38.5q88 -23 157.5 -38.5t118.5 13.5q14 373 16.5 690t-5.5 600q-39 39 -87.5 67.5t-99.5 48t-101 31t-93 15.5q-33 -279 -61.5 -597t-45.5 -712z" />
<glyph unicode="2" horiz-adv-x="1458" d="M12 434q387 -182 743.5 -261t661.5 -83q12 100 20.5 193.5t10.5 191.5q-147 10 -307 45t-328 74q121 0 213 46t168 103q33 31 65.5 62t59.5 67.5t41 78.5t8 96q-12 63 -48 132.5t-95 133.5q-78 88 -177.5 155.5t-205.5 110.5q-109 53 -221.5 77.5t-215 19.5t-187.5 -42 t-138 -108q72 -86 148.5 -163t148.5 -165q35 37 79 57.5t81 47.5q66 27 140.5 41t162.5 -19q49 -16 82.5 -58t33.5 -77q-12 -57 -54 -85t-89 -54q-86 -41 -177 -80t-196 -68q-94 -33 -190 -62.5t-207 -58.5q-10 -84 -25.5 -168t-5.5 -180z" />
<glyph unicode="3" horiz-adv-x="1417" d="M8 1780q12 0 22.5 2t26.5 12l19 -4q55 4 113.5 -3t117.5 -13q113 -23 228.5 -63t226.5 -89q72 -37 149.5 -81t145.5 -103q43 -37 81 -86t40 -95q18 -80 -7.5 -131t-66.5 -90q57 -53 109.5 -112.5t93.5 -123t67.5 -130t32.5 -129.5q2 -109 -58.5 -170.5t-148.5 -89.5 q-61 -27 -132 -39.5t-146.5 -15.5t-155.5 0t-162 10q-111 18 -235.5 36.5t-241.5 73.5l-27 10q-20 111 -32.5 212.5t-28.5 201.5q23 -6 40 -14t40 -13q127 -43 251 -69.5t234 -36.5q45 -2 93 -3t89 5t73 26.5t42 61.5q6 33 -26.5 58.5t-71.5 41.5q-47 23 -93 26t-96 7 q-27 2 -51 3t-49 1q-45 0 -102 10q-25 115 -47.5 223.5t-38.5 219.5q84 -33 161.5 -47.5t155.5 -24.5q25 -2 50.5 -4t48 1t39 12.5t22.5 31.5q-12 23 -39 39t-55 29q-117 47 -230.5 74.5t-230.5 54.5q-57 2 -113.5 14t-109.5 16q-12 68 -13 136q0 35 -1 67.5t-3 63.5z" />
<glyph unicode="4" horiz-adv-x="1372" d="M8 903q193 -66 372 -105.5t351 -76.5q0 -129 1 -260t5 -285q117 -23 229.5 -38t219.5 -9q-4 141 -11.5 276.5t-17.5 266.5q51 -4 103.5 -14.5t101.5 -16.5q-10 86 -14.5 164t-14.5 156q-51 16 -99 23t-101 24q0 106 -1.5 203.5t-7.5 195.5q-104 47 -208.5 90t-210.5 82 q-154 -59 -317 -121.5t-329 -161.5q-18 -98 -29.5 -190t-21.5 -203zM506 1114q72 49 140 86t136 76q-2 -27 -3 -53.5t-1 -53.5v-53q0 -27 -2 -53q-66 10 -135.5 25.5t-134.5 25.5z" />
<glyph unicode="5" horiz-adv-x="1392" d="M8 489q4 90 17.5 170t29.5 162q150 -72 299.5 -103.5t284.5 -45.5q47 0 97 -7.5t98 -7.5q47 0 83.5 13.5t59.5 50.5q-16 39 -46 68.5t-66 52t-74.5 40t-73.5 31.5q-213 66 -420 84q-53 6 -107.5 13.5t-107.5 9.5q33 201 70.5 378t89.5 326q256 -66 487.5 -150.5 t446.5 -201.5q18 -115 18 -221q-158 59 -316.5 113.5t-320.5 107.5q-6 -33 -11 -65.5t-7 -69.5q78 -10 156.5 -31.5t156.5 -54.5q94 -37 184 -83t172 -118q74 -66 119 -143.5t55 -153.5q10 -106 -42 -180t-138 -117q-113 -57 -256 -74.5t-307 -13.5q-127 12 -261 37t-267 96 l-11 15l-34 18l-21 27l-14 4z" />
<glyph unicode="6" horiz-adv-x="1329" d="M10 893q-8 -117 45.5 -233.5t146.5 -215t214 -170t248 -100.5q143 -45 275 -51t230 51q86 51 119 144.5t29 197.5q-10 82 -45 168t-92 164q-66 78 -144 147.5t-166 114.5q-43 -66 -84 -133.5t-90 -142.5l25 -7q25 0 49 -6q35 -16 71 -38.5t64 -55.5q33 -31 49.5 -67.5 t26.5 -71.5q-2 -37 -22.5 -58.5t-52.5 -32t-70.5 -9.5t-77.5 12q-43 16 -80 39.5t-76 56.5q-27 29 -45 55.5t-20 59.5l6 20q111 223 202 410.5t179 349.5q-106 45 -221 87t-232 79q-98 -129 -201.5 -273.5t-208.5 -324.5q-25 -39 -40 -78t-11 -88z" />
<glyph unicode="7" horiz-adv-x="1015" d="M8 1382q162 -49 311.5 -85.5t292.5 -79.5q-53 -217 -110.5 -457t-128.5 -524q129 -37 243.5 -57.5t231.5 -37.5q55 356 96.5 653.5t61.5 563.5q-211 117 -432.5 193.5t-456.5 125.5q-29 -66 -52.5 -141.5t-56.5 -153.5z" />
<glyph unicode="8" horiz-adv-x="1630" d="M12 854q-16 -104 43.5 -208.5t157.5 -194.5q123 -111 263 -179.5t284 -113.5q92 -25 181 -41.5t172 -20.5t158 6.5t140 38.5q111 41 165 136.5t44 218.5q-2 39 -19.5 77.5t-44 76.5t-58.5 74t-64 69q-45 37 -89.5 70.5t-93.5 66.5q23 16 52.5 23.5t50.5 23.5 q35 29 59.5 65.5t13.5 90.5q-4 55 -40.5 112.5t-90.5 110.5q-66 59 -139.5 105t-146.5 83q-141 63 -279.5 101t-273.5 43q-53 2 -103.5 -6.5t-90.5 -28t-67.5 -51t-35.5 -76.5q-12 -51 25.5 -113.5t101.5 -109.5q43 -31 84 -60t84 -59q-59 -10 -109.5 -30.5t-105.5 -43.5 q-39 -20 -79 -44t-73 -54.5t-54.5 -69.5t-21.5 -88zM598 682q0 49 36 76.5t85 38.5q113 25 254 -19q39 -12 85 -35.5t86 -56.5t66.5 -72t28.5 -84q2 -31 -11.5 -49t-35 -29.5t-47 -15.5t-49.5 -4q-137 -6 -299 47q-35 6 -72 25.5t-66.5 48.5t-47 61.5t-13.5 67.5zM709 1380 q10 47 73 47q29 0 59.5 -9t59.5 -21q49 -16 95.5 -55t54.5 -80q-8 -27 -31 -34t-50.5 -4t-59 14t-58.5 24q-23 6 -48.5 17t-47 26.5t-34.5 34t-13 40.5z" />
<glyph unicode="9" horiz-adv-x="1226" d="M14 1448q-29 -164 97 -352q66 -94 160 -170t198 -119q55 74 100 147.5t95 139.5l-29 2q-10 0 -17.5 3t-17.5 5q-37 16 -72.5 41.5t-65.5 57.5t-48.5 67t-18.5 67q4 33 23.5 50.5t50.5 27.5q39 2 75 -1t77 -19q63 -35 120 -90q27 -23 40.5 -52.5t17.5 -56.5l-2 -16l-4 -15 q-100 -188 -227.5 -396t-270.5 -462q162 -66 321.5 -111.5t309.5 -76.5q86 242 163.5 449.5t120.5 404.5q8 18 7 41t-7 39q-10 72 -51 148.5t-112 137.5q-78 86 -171.5 144.5t-193.5 105.5q-109 49 -224.5 73t-211.5 10.5t-161 -67t-71 -157.5z" />
<glyph unicode=":" horiz-adv-x="428" d="M8 377q92 -66 189.5 -86.5t191.5 -24.5q10 86 11.5 168t7.5 160q-92 12 -182.5 29.5t-190.5 40.5q-4 -72 -14.5 -141.5t-12.5 -145.5zM82 905q86 -23 167 -39t167 -47q4 55 0 110.5t2 106.5q-68 51 -146.5 75t-150.5 40q-12 -59 -18.5 -119.5t-20.5 -126.5z" />
<glyph unicode=";" horiz-adv-x="548" d="M8 -319q61 -25 120.5 -28t118 4t114 21.5t108.5 24.5q16 242 31.5 450.5t25.5 401.5q-88 16 -179 30.5t-189 30.5q-37 -215 -77 -442t-73 -493zM203 858q88 -20 170 -42.5t168 -51.5q0 55 -3 106.5t-3 102.5q-66 59 -142 86.5t-153 44.5q-10 -55 -18.5 -119.5 t-18.5 -126.5z" />
<glyph unicode="&#x3c;" horiz-adv-x="1085" d="M8 1047q193 -254 426.5 -489.5t462.5 -461.5q47 72 92 133t88 127q-135 123 -255 251t-255 257q123 59 233.5 115.5t217.5 103.5q-49 61 -99.5 124t-99.5 128q-190 -49 -393 -116.5t-418 -171.5z" />
<glyph unicode="=" horiz-adv-x="1118" d="M10 580q313 -104 583.5 -144.5t516.5 -40.5q-4 72 -9 139.5t-11 133.5q-233 39 -489.5 93t-547.5 126q-2 -39 -10 -76t-17.5 -75t-14.5 -76.5t-1 -79.5zM66 1118q283 -53 530 -106.5t487 -108.5q-4 53 -13 107.5t-19 103.5q-217 98 -443.5 161.5t-474.5 115.5 q-23 -66 -37 -135.5t-30 -137.5z" />
<glyph unicode="&#x3e;" horiz-adv-x="1095" d="M8 694q51 -104 107.5 -206.5t115.5 -206.5q264 88 477 180t379 203q-180 236 -366 454.5t-395 429.5q-49 -29 -112.5 -44t-119.5 -48q123 -150 249 -295t255 -299q-129 -47 -276.5 -88t-313.5 -80z" />
<glyph unicode="?" horiz-adv-x="1392" d="M27 1423q104 -35 203.5 -65.5t199.5 -59.5q4 59 29.5 106.5t97.5 63.5q47 18 108.5 9t127.5 -31q43 -16 90 -38t89 -48.5t72.5 -60t40.5 -76.5q2 -53 -36.5 -73t-85.5 -22q-74 -4 -146 -11t-129 -36q-47 -23 -77.5 -60.5t-48 -84.5t-25 -100.5t-9.5 -108.5 q117 -29 226.5 -55.5t220.5 -55.5q-16 86 25.5 146.5t113.5 81.5q59 4 118.5 10t119.5 16q59 6 78.5 56.5t9.5 109.5q-16 86 -72.5 169t-134.5 161q-74 82 -175.5 155.5t-205.5 110.5q-147 61 -286.5 81t-262.5 -11q-117 -29 -192.5 -97.5t-83.5 -181.5zM519 303 q5 -84 9 -176q123 -33 240 -56.5t233 -35.5q-8 86 -10 164.5t-6 156.5q-117 29 -231.5 55.5t-231.5 61.5q-8 -86 -3 -170z" />
<glyph unicode="@" horiz-adv-x="1712" d="M23 1313q16 150 115.5 239.5t238.5 124.5t300 16.5t322 -100.5q121 -49 231.5 -136t201.5 -187q84 -96 139 -202.5t78 -209.5q12 -88 -5.5 -165t-70.5 -132q-47 -55 -127 -71.5t-178 16.5q-74 20 -148 74l-10 8l-20 20q-10 6 -13.5 11.5t-13.5 13.5q-2 16 2 30.5t4 36.5 q-16 -4 -28.5 -12t-28.5 -14q-37 -2 -76 1t-80 19q-72 18 -133 63.5t-105.5 104t-67 123t-11.5 119.5q4 59 30.5 103t79.5 67q94 41 221 -12q39 -12 73 -33t69 -49q16 -12 28.5 -23.5t22.5 -28.5v2l6 21v18q45 -4 87 -21.5t79 -21.5q10 -66 8 -127t-2 -125q2 -23 5 -47 t11.5 -48.5t24.5 -47t45 -41.5q33 -12 59.5 0t36.5 39q16 39 19.5 76t3.5 82q-4 72 -46 146.5t-102 146.5q-66 68 -144.5 126t-168.5 89q-111 49 -218.5 62t-203.5 -11q-94 -27 -152.5 -97.5t-64.5 -177.5q-16 -96 22 -211.5t130 -220.5q92 -127 224 -213t273 -127 q100 -27 196.5 -46t182.5 -13q78 4 136.5 39t97.5 86q31 -51 49 -101.5t47 -101.5q-55 -66 -120.5 -109.5t-160.5 -60.5q-51 -10 -106 -10q-53 0 -110.5 8t-118 20.5t-121.5 26.5q-102 25 -207 71t-202 110.5t-185 145.5t-158 173q-129 172 -175 347t-17 329zM725 1030 q0 -53 42 -98t99 -68q31 -10 57.5 -9t46 13.5t30 32.5t8.5 49q-6 41 -46 80t-92 55q-51 18 -96 5t-49 -60z" />
<glyph unicode="A" horiz-adv-x="1159" d="M8 195q70 -27 140.5 -37.5t144.5 -20.5q35 86 78 180.5t92 206.5q59 4 119.5 8.5t128.5 8.5q6 -135 6 -256q0 -59 1 -116.5t3 -113.5h15q150 0 319 19q31 162 48 359.5t26 437t14.5 523t11.5 617.5q-197 -35 -370 -96.5t-330 -118.5q-94 -291 -166 -529.5t-126 -434 t-91 -352t-64 -285.5zM510 780q47 117 99.5 249t119.5 282q0 -137 2 -259t6 -235q-61 -12 -117.5 -19t-109.5 -18z" />
<glyph unicode="B" horiz-adv-x="1409" d="M8 1483q39 39 82 69.5t88 59.5q84 55 176 97t197 73q147 47 304 56q24 1 47 1q133 0 261 -43q53 -16 101.5 -48t82 -77t49.5 -103q9 -36 9 -75q0 -25 -4 -53q-14 -86 -59.5 -159t-106.5 -131t-132 -100t-134 -67q-88 -43 -172 -65.5t-168 -49.5q39 4 77.5 5t77.5 4 q28 2 57 2q83 1 165 -13q110 -18 217 -65q96 -53 131 -147q20 -53 20 -104q0 -40 -12 -79q-27 -104 -100.5 -184t-174.5 -127q-105 -46 -215 -58q-61 -7 -121 -6q-48 0 -96 4q-115 6 -221 28t-205 71q-72 236 -125 551t-96 733zM389 1284q4 -37 6 -78t6 -76l9 3l30 -11 q43 4 87 18.5t89 35.5q18 12 40 24t40.5 27.5t31.5 36t15 49.5q-2 29 -17 44t-36.5 20t-45 4t-42.5 -3q-45 -12 -84 -24.5t-82 -30.5q-6 -4 -11 -11t-11 -12q-10 -4 -14.5 -7t-10.5 -9zM428 524q4 -43 6 -86t6 -82l9 -4l20 -4q4 0 8 -3t15 -3q39 -7 79 -7q16 0 32 1 q56 4 116 10q25 4 51.5 9t50 15.5t41 26.5t23.5 41q-2 35 -23.5 58.5t-54.5 38t-70 20.5t-69 8q-24 1 -48 1t-48 -1q-48 -2 -93 -12q-16 -4 -25.5 -11.5t-25.5 -15.5z" />
<glyph unicode="C" horiz-adv-x="1677" d="M10 991q-1 -23 -1 -45q0 -130 30 -246q23 -119 84 -221t149 -180q94 -86 210 -136t245 -73q60 -10 121 -10q47 0 95 6q110 14 214.5 57t199.5 112t171 159q-111 41 -217.5 77.5t-206.5 83.5q-20 -55 -61.5 -97t-94.5 -70q-54 -28 -114 -40q-41 -8 -81 -8q-19 0 -38 2 q-68 10 -134.5 36t-111.5 73q-55 49 -83 113.5t-32 132.5q-7 48 -7 98q0 25 2 51q5 76 46 144q43 78 118 115.5t167 48.5q42 5 84 5q98 0 197 -26q66 -31 111.5 -86t68.5 -121q123 31 253 68t279 76q-4 186 -90 337.5t-233 262.5q-80 61 -173.5 95t-190.5 46q-58 7 -117 7 q-39 0 -79 -3q-100 -8 -192 -35q-92 -25 -172 -75t-145.5 -116.5t-115.5 -146.5t-81 -162q-68 -154 -74 -309z" />
<glyph unicode="D" horiz-adv-x="1587" d="M8 1438q18 23 30.5 49t41.5 43q61 72 148 121t182 88q104 33 218 49q73 10 145 10q41 0 82 -3q114 -9 221.5 -48t199.5 -115q98 -66 164.5 -153.5t102.5 -190t39 -212.5v-21q0 -100 -26 -199q-53 -190 -156.5 -340.5t-260.5 -243.5q-113 -74 -239 -106.5t-247 -42.5 q-37 -2 -73 -2q-54 0 -107 4q-88 6 -172 35q-25 10 -48.5 20t-39.5 27q-61 231 -112.5 531t-92.5 700zM377 1161q10 -207 23.5 -381t19.5 -325q16 -4 32.5 -6.5t34.5 -10.5q18 -1 35 -2q120 0 234 60q90 47 138 137t58 194q4 24 4 48q0 21 -3 43q-7 46 -27.5 86t-51 75 t-71.5 60q-73 45 -149 53q-38 4 -76.5 4t-77.5 -4q-35 -4 -64.5 -12.5t-58.5 -18.5z" />
<glyph unicode="E" horiz-adv-x="1452" d="M8 1473q131 82 290 160.5t341 140t385 98.5t424 39q-43 -166 -78 -315.5t-82 -290.5q-248 -35 -461 -79t-399 -83q-3 -62 -3 -122v-29.5v-29.5q0 -58 -3 -112q147 10 303 30.5t342 43.5q-33 -90 -55.5 -171t-48.5 -155q-150 -20 -284 -30.5t-257 -22.5q0 -49 3 -95.5 t3 -91.5q145 0 307 -1h18q154 0 328 16q-20 -78 -43.5 -148.5t-50.5 -134.5h-41q-210 0 -395 18q-203 20 -381 87q-53 238 -93 549t-69 729z" />
<glyph unicode="F" horiz-adv-x="1449" d="M8 1468q131 86 290 165t341 139.5t385 97.5t422 37q-41 -166 -78 -317.5t-80 -289.5q-248 -33 -461 -73.5t-399 -83.5q-2 -39 -2 -77t2 -74q1 -21 1 -42q0 -51 -7 -100q145 8 303 32.5t342 41.5q-63 -174 -102 -326q-152 -20 -284 -33.5t-259 -19.5q10 -115 20.5 -216.5 t16.5 -195.5q-78 10 -152 20.5t-141 43.5q-51 233 -90 544.5t-68 726.5z" />
<glyph unicode="G" horiz-adv-x="1777" d="M12 1052q-2 -35 -2 -69q0 -131 31 -254q27 -129 87 -238.5t153 -195.5q86 -86 197.5 -145.5t246.5 -77.5q66 -13 132 -13q69 0 139 15q137 28 266 100q147 82 266 212t178 304q18 39 25.5 75t11.5 79q10 23 12 44t2 42q-334 -43 -607 -67.5t-509 -51.5 q-10 -88 -16.5 -166t-16.5 -149q106 4 218 7t241 7q-23 -33 -42 -64.5t-54 -60.5q-53 -55 -128 -77q-51 -14 -108 -14q-26 0 -53 3q-72 10 -137.5 46t-108.5 95q-49 63 -76.5 138t-37.5 153q-11 70 -11 138q0 21 1 43q5 89 46 184q41 98 131.5 159.5t200.5 77.5q32 5 63 5 q38 0 75 -7q67 -12 125.5 -43t104.5 -78t72 -108q147 45 303 92t343 106q-45 168 -143.5 306.5t-233.5 226.5t-301 115q-57 10 -115 10q-113 0 -233 -35q-111 -29 -209.5 -81t-180 -122.5t-148.5 -154.5t-112 -177q-78 -166 -88 -334z" />
<glyph unicode="H" horiz-adv-x="1773" d="M8 1483q39 -420 82 -734.5t100 -549.5q57 -29 117 -40.5t123 -27.5q-1 69 -1 144v76v80q0 82 -1 173q104 10 216 11t235 6q-27 -156 -47.5 -290t-43.5 -251q92 -4 188 -7q19 -1 39 -1q79 0 163 10q63 150 132.5 336t143.5 418.5t152.5 515t162.5 624.5 q-174 -4 -344 -38.5t-331 -84.5q-49 -248 -88 -453.5t-74 -385.5q-141 -16 -266 -34.5t-242 -35.5q0 160 -4 343q-2 92 -2 192t2 209q-117 -43 -215.5 -96.5t-196.5 -108.5z" />
<glyph unicode="I" horiz-adv-x="546" d="M8 1649q0 -510 11.5 -876.5t25.5 -627.5q23 -23 52.5 -33t60.5 -14q61 -10 106 -16q12 -2 24 -2q31 0 56 12q23 141 45.5 314.5t47 384t51 464.5t55.5 557q-56 23 -115 23q-12 0 -22 -1q-70 -5 -139.5 -31.5t-136.5 -67.5t-122 -86z" />
<glyph unicode="J" horiz-adv-x="1206" d="M8 264q18 -18 33.5 -32.5t38.5 -30.5q41 -35 85 -59.5t97 -37.5q76 -17 150 -17q104 0 202 34q78 33 138.5 90t83.5 139q37 135 81 294t92 347.5t97 408.5t96 476q-26 1 -51 1q-124 0 -243 -17q-144 -19 -279 -64q-51 -418 -89 -733t-65 -557q-2 -33 -13 -62.5t-40 -50.5 q-35 -29 -80 -35q-22 -3 -45 -3l-45 3q-84 4 -146 62q-10 10 -19 19.5t-21 25.5q-16 -53 -28.5 -104.5t-29.5 -96.5z" />
<glyph unicode="K" horiz-adv-x="1605" d="M8 1579q84 57 173 117.5t196 109.5q0 -244 3 -442.5t11 -378.5q154 188 365 422.5t491 538.5q96 -96 177.5 -198t177.5 -192q-319 -254 -554 -451.5t-417 -340.5q141 -166 276 -316.5t258 -293.5q-84 -33 -162.5 -58.5t-152.5 -48.5q-111 111 -228.5 222.5t-230.5 236.5 q3 -67 3 -127q0 -29 -1 -59v-29q0 -72 8 -141q-53 6 -104 15t-102 30q-66 252 -110 588.5t-77 795.5z" />
<glyph unicode="L" horiz-adv-x="1101" d="M8 1577q98 86 209 156.5t244 136.5q-16 -502 -24.5 -870.5t-12.5 -634.5q150 0 317 -3h48q146 0 309 15q-35 -74 -61.5 -141.5t-53.5 -131.5q-113 -8 -220 -8q-117 0 -227 10q-210 18 -393 82q-23 125 -42 270.5t-35.5 316.5t-31 371t-26.5 431z" />
<glyph unicode="M" horiz-adv-x="1816" d="M8 1559q0 -442 19.5 -767t60.5 -563q49 -16 97 -22t102 -17q6 111 20.5 236t34.5 272q82 -168 165 -315t161 -283q94 150 203.5 346.5t242.5 460.5q20 -268 40 -484t24 -396q71 -8 143 -8q22 0 44 1q95 3 206 7q59 170 98 378.5t64.5 462.5t44 555t37.5 656 q-223 -66 -417 -118t-372 -122q-117 -264 -209 -474t-164 -384q-49 174 -99 363.5t-112 410.5q-123 -47 -226 -100t-208 -96z" />
<glyph unicode="N" horiz-adv-x="1826" d="M8 1524q41 -426 94.5 -743.5t120.5 -559.5q53 -23 113.5 -33t122.5 -20q-12 135 -26.5 294t-31.5 345q111 -211 225.5 -386t213.5 -341q58 -3 117 -3q132 0 276 15q68 150 140.5 339.5t147 424t150.5 520t152 627.5q-193 -16 -365 -54t-338 -98q-59 -389 -101 -688 t-79 -540q-111 252 -252 523t-315 585q-104 -47 -191.5 -96.5t-173.5 -110.5z" />
<glyph unicode="O" horiz-adv-x="1847" d="M15 1012q-5 -47 -5 -94q0 -102 23 -199q29 -129 94.5 -240.5t159.5 -197.5q94 -78 208.5 -134.5t237.5 -74.5q73 -14 146 -14q69 0 139 12q144 26 280 100q162 78 296.5 211t197.5 317q39 110 48 222q3 34 3 68q-1 78 -15 156q-20 112 -68 217t-124 198 q-78 100 -180 172.5t-218 111.5t-242 42q-9 0 -19 1q-117 0 -234 -35q-115 -29 -212 -84t-178 -126.5t-144.5 -155.5t-108.5 -172q-70 -149 -85 -301zM358 700q-4 33 -5 67q1 46 9 95q14 84 66 150q49 72 128 118t177 52q33 6 65 6q68 0 132 -27q94 -39 166 -106 q66 -72 94 -161q18 -57 18 -115q0 -34 -6 -68q-16 -82 -60 -153t-116 -116q-66 -41 -140 -59q-48 -12 -98 -12q-27 0 -55 4q-68 6 -134.5 29.5t-119.5 70.5q-51 43 -80.5 101.5t-40.5 123.5z" />
<glyph unicode="P" horiz-adv-x="1529" d="M8 1483q41 33 77 72.5t85 68.5q94 72 205.5 131.5t240.5 95.5q86 23 178 34q60 7 119 7q32 0 64 -2q90 -6 174 -35.5t156 -89.5q129 -90 185 -232q34 -86 34 -182q0 -64 -15 -132q-16 -72 -53 -133.5t-85 -113.5t-104.5 -96.5t-111.5 -76.5q-123 -82 -249 -127t-242 -72 q-72 -20 -142 -32q-52 -9 -104 -8q-18 0 -35 1q8 -111 10 -207t6 -184q-109 4 -206 33q-59 240 -102.5 551t-84.5 729zM369 1292q2 -55 3 -107t1 -104v-188l12 -2l6 -8h25q72 4 142.5 29.5t141.5 64.5q37 18 77 44t74 59.5t58.5 75.5t30.5 91v9q0 53 -22 87 q-24 37 -64.5 56.5t-88.5 23.5q-16 1 -31 1q-31 0 -60 -5q-115 -18 -228 -76q-23 -10 -42 -24t-35 -27z" />
<glyph unicode="Q" horiz-adv-x="1832" d="M13 1000q-4 -42 -4 -84q0 -106 24 -207q27 -129 87 -243t154 -202q182 -160 433 -201q82 -12 165 -12h24q95 2 189 27q35 -49 71 -93t65 -91q76 27 152.5 55t164.5 59q-39 47 -68.5 98.5t-72.5 104.5q141 86 239.5 216t145.5 286q49 140 49 280q0 77 -15 155 q-42 218 -192 398q-74 100 -176 172t-219 111t-244 41h-12q-121 0 -240 -37q-109 -29 -207 -81t-180 -120.5t-145.5 -153.5t-102.5 -180q-72 -147 -85 -298zM344 717q-3 25 -3 50q0 49 13 97q19 74 70 133q47 72 126 119t171 51q30 5 59 5q69 0 134 -26q94 -38 163 -99 q72 -72 99 -162q16 -56 16 -111q0 -34 -6 -67q-6 -88 -55.5 -159t-120.5 -114q-108 -72 -234 -72q-27 0 -55 3q-72 4 -138.5 30.5t-113.5 73.5q-55 49 -87 114.5t-38 133.5z" />
<glyph unicode="R" horiz-adv-x="1658" d="M8 1483q49 45 99.5 87t109.5 79q137 98 298 176t347 121q82 16 163 23q44 4 87 3q37 0 73 -2q79 -6 154.5 -27.5t143.5 -64.5q106 -84 147 -212q24 -75 24 -160q0 -60 -12 -124q-16 -88 -58 -168.5t-97 -152.5t-121 -132.5t-131 -105.5q-106 -78 -222 -135 q-108 -53 -216 -53h-15q121 -109 241 -213.5t239 -206.5q-72 -45 -143.5 -82t-131.5 -74q-143 127 -300 246t-304 256q10 -111 13 -205t16 -182q-51 0 -102.5 9.5t-100.5 25.5q-68 233 -115 545.5t-86 728.5zM362 1280q0 -111 1.5 -207t7.5 -184l14 -8h27q68 4 138.5 30.5 t137.5 61.5q35 18 74 42.5t73.5 58.5t59.5 75t33 94q0 55 -27 92t-67 57q-38 19 -88 23q-16 1 -33 1q-32 0 -60 -5q-57 -16 -113.5 -31.5t-111.5 -44.5q-18 -14 -33.5 -27.5t-32.5 -27.5z" />
<glyph unicode="S" horiz-adv-x="2011" d="M14 1111q-4 -32 -4 -64q0 -49 10 -99q16 -80 68.5 -144.5t122.5 -92.5q86 -43 168 -64.5t174 -54.5q27 -10 57.5 -19.5t58 -19.5t51 -26.5t40.5 -43.5q0 -18 -12.5 -31.5t-28.5 -23.5q-23 -6 -38 -15.5t-38 -15.5q-47 -12 -97 -21q-30 -5 -60 -6l-40 3q-92 10 -170.5 52 t-138.5 114q-20 -51 -36.5 -101.5t-32.5 -95.5q94 -92 210.5 -154.5t251.5 -85.5q116 -24 241 -24q156 0 325 37q72 14 145.5 40.5t138 66.5t116.5 93.5t81 118.5q8 27 8 51q0 25 -9 49q-17 46 -55 83.5t-89.5 68.5t-100.5 57q-147 59 -295.5 102.5t-292.5 78.5 q-43 12 -84 21t-79.5 21.5t-73.5 31t-66 51.5q16 47 57.5 69.5t82.5 46.5q72 27 145.5 53.5t159.5 30.5q44 5 86 5q114 0 223 -35q149 -48 260 -152q53 59 117.5 116.5t136.5 117t147.5 123t151.5 135.5q-78 106 -182.5 190t-226.5 136q-122 53 -262 67q-43 4 -87 4 q-99 0 -202 -23q-242 -47 -438.5 -155.5t-346.5 -251.5q-66 -53 -118 -120t-86 -140.5t-44 -154.5z" />
<glyph unicode="T" horiz-adv-x="1468" d="M8 1487q6 -94 13.5 -185.5t13.5 -177.5q72 20 146.5 42t160.5 44q-2 -154 -2 -291q0 -171 3 -316q5 -261 15 -466q72 -14 146 -21t155 -16q12 111 22.5 239t24 275.5t32 317.5t44.5 364q129 23 265.5 50.5t285.5 44.5q33 129 63.5 261.5t67.5 282.5q-221 -2 -427 -39.5 t-391 -99t-346 -141.5t-292 -168z" />
<glyph unicode="U" horiz-adv-x="1619" d="M8 1442q72 61 156 109t170 104q16 -393 32.5 -694.5t36.5 -536.5q6 -31 24.5 -56.5t45.5 -44t58.5 -28.5t64.5 -12q10 -1 19 -1q30 0 58 10q36 13 63.5 36.5t44 56.5t18.5 68q18 125 36.5 273t40 321.5t49 372t66.5 425.5q145 57 300 102t325 68q-43 -242 -90 -451.5 t-92 -393t-87 -343t-75 -297.5q-37 -117 -101.5 -214t-162.5 -162q-78 -59 -174 -86q-53 -15 -107 -15q-45 0 -92 10q-88 10 -166 47t-143 89q-55 49 -104.5 107.5t-65.5 125.5q0 4 -2 11.5t-4 13.5q-84 391 -142 985z" />
<glyph unicode="V" horiz-adv-x="1896" d="M8 1434q111 -418 220.5 -734.5t213.5 -562.5q86 -18 170 -30.5t179 -24.5q90 131 196.5 305t239.5 402.5t296.5 520t368.5 658.5q-172 -23 -332.5 -73t-310.5 -103q-121 -252 -216 -465t-173 -391t-141.5 -324.5t-118.5 -265.5q-59 246 -135 553t-160 703 q-86 -37 -158.5 -78t-138.5 -90z" />
<glyph unicode="W" horiz-adv-x="2934" d="M8 1438q129 -406 252 -713t246 -547q57 -10 115.5 -17t123.5 -18q29 82 63 171t77 194q55 -113 111.5 -215.5t109.5 -202.5q98 -10 191.5 -14t203.5 -15q111 145 252 340t317.5 454t390.5 592t470 757q-109 -12 -214.5 -36t-208 -50.5t-200.5 -51t-190 -38.5 q-133 -252 -246 -467t-207 -398.5t-172 -337t-141 -282.5q-92 256 -205 546.5t-254 641.5q-117 -332 -202 -584t-134 -457q-66 193 -145.5 406t-163.5 473q-31 -23 -61.5 -38t-61.5 -29.5t-60.5 -29t-56.5 -34.5z" />
<glyph unicode="X" horiz-adv-x="2054" d="M8 1530q135 -215 264 -397.5t242 -360.5q-86 -178 -165 -315.5t-126 -255.5q66 -23 134.5 -31t140.5 -18q55 66 123.5 137t146.5 164q80 -106 152.5 -203.5t144.5 -196.5q105 -10 211 -11h43q88 0 186 3q-92 174 -205.5 350t-230.5 385q88 111 194.5 240t229.5 282.5 t262 333t295 389.5q-104 -10 -208.5 -31.5t-205 -48t-197 -54t-184.5 -48.5q-141 -215 -262 -389t-225 -324q-100 137 -204.5 283t-221.5 299q-92 -43 -177 -87t-157 -95z" />
<glyph unicode="Y" horiz-adv-x="2183" d="M8 1511q150 -233 293 -428.5t274 -382.5q3 -108 3 -205q0 -49 -1 -95q-1 -55 -1 -108q0 -79 2 -153q78 -10 157.5 -14t171.5 -8q23 129 49.5 275.5t53.5 326.5q98 115 219 253t265 304t315 364.5t370 434.5q-211 -23 -398.5 -56.5t-371.5 -79.5q-193 -276 -345.5 -489 t-272.5 -387q-104 156 -214 312.5t-227 336.5q-94 -53 -181 -100t-161 -101z" />
<glyph unicode="Z" horiz-adv-x="1495" d="M8 1087q3 60 3 123q0 31 -1 63.5t-1 65.5q0 67 3 140q133 92 296 174t350.5 143.5t396.5 95.5q198 33 411 33h25q-35 -154 -72 -293t-76 -266q-137 -164 -249.5 -307.5t-207.5 -267t-179 -227t-164 -185.5q154 4 323 14t359 33q-33 -84 -69 -154.5t-64 -138.5 q-170 -15 -325 -15q-83 0 -163 4q-226 12 -422 79q-6 43 -10 84t-8 84q88 164 199.5 392t281.5 517q-182 -49 -340 -95t-297 -96z" />
<glyph unicode="[" horiz-adv-x="677" d="M8 201q10 383 43 716.5t74 636.5q59 43 125.5 83t134.5 73t136.5 54.5t131.5 27.5q4 -51 5 -103.5t-3 -105.5q-72 -27 -133 -53.5t-125 -52.5q-12 -217 -19 -447.5t-20 -490.5q76 31 155 56.5t157 76.5q-4 -72 -8.5 -150t-8.5 -155q-78 -47 -164 -88t-171 -66t-165.5 -30 t-144.5 18z" />
<glyph unicode="\" horiz-adv-x="1423" d="M8 1427q80 -152 184.5 -308t233.5 -328.5t280.5 -363.5t321.5 -409q100 29 195.5 79.5t189.5 109.5q-344 446 -623.5 785t-521.5 579q-66 -35 -131 -73t-129 -71z" />
<glyph unicode="]" horiz-adv-x="745" d="M8 215q10 78 11 152.5t18 154.5q76 16 153.5 40t161.5 52q18 240 33.5 456t38.5 417q-94 -41 -181 -82t-177 -88q16 59 24 113.5t21 111.5q70 49 145.5 93t155.5 78t158.5 56.5t154.5 28.5q16 -293 10 -638t-18 -750q-88 -47 -181.5 -90.5t-185.5 -73t-179 -39.5t-163 8z " />
<glyph unicode="^" horiz-adv-x="1241" d="M8 1020q43 -27 82 -54.5t80 -58.5q92 131 182 256t183 254q98 -49 205.5 -98t230.5 -107q63 92 128.5 177.5t131.5 177.5q-199 53 -374 95t-349 62q-135 -172 -253 -345t-247 -359z" />
<glyph unicode="_" horiz-adv-x="2150" d="M8 -686q14 -12 15 -35v-43q0 -23 4 -39t20 -22q442 66 940.5 153.5t1076.5 204.5q20 33 45 58.5t33 66.5q-16 8 -25.5 21.5t-14.5 29t-11 29.5t-16 24q-27 20 -43.5 26.5t-22.5 23.5q-553 -104 -1031 -204t-902 -200q-18 -20 -41 -39.5t-27 -54.5z" />
<glyph unicode="`" horiz-adv-x="868" d="M6 1843q68 -35 149 -68.5t163.5 -69.5t160.5 -72t139 -74q51 59 105.5 115.5t103.5 117.5q-123 94 -247.5 175t-255.5 147q-23 -27 -67 -62t-93 -72.5t-93 -73.5t-65 -63z" />
<glyph unicode="a" horiz-adv-x="1703" d="M8 324q166 -43 320.5 -55.5t302.5 -22.5q47 150 92 278.5t94 251.5q37 -2 73 -3t71 -1q70 0 147 -6q59 -143 113.5 -290.5t113.5 -307.5q100 12 192.5 26.5t174.5 41.5q-135 354 -294 663t-312 590q-111 23 -220.5 38t-226.5 32q-160 -240 -317.5 -541t-323.5 -694z M819 1004q31 78 57.5 150.5t59.5 137.5q23 -72 55.5 -147.5t65.5 -149.5q-24 -1 -47 -1q-34 0 -70 2q-58 3 -121 8z" />
<glyph unicode="b" horiz-adv-x="1638" d="M10 1344q6 146 21 280q41 3 86 3h23q58 -1 110 -5q92 -4 180 -11t178 -22q121 -25 237 -56.5t222 -84.5q39 -16 77 -36.5t69.5 -44.5t54 -48.5t30.5 -48.5q8 -21 8 -39q0 -15 -6 -29q-12 -28 -41.5 -48.5t-72.5 -34t-92 -21.5q-39 -4 -78 -7.5t-80 -3.5h-168 q43 -6 86 -10t82 -8q111 -23 216 -50.5t202 -74.5q104 -47 172.5 -123.5t91.5 -148.5q17 -55 17 -107q1 -39 -9 -77q-22 -88 -100 -146q-45 -35 -106.5 -60.5t-132 -42t-149.5 -24.5t-159 -8q-29 -1 -58 -1q-179 0 -368 22q-219 24 -436 112q-47 186 -72 362t-33 336 q-5 92 -5 178q0 65 3 128zM469 1409q4 -23 6 -44.5t10 -47.5h4l39 -12q77 -13 158 -13h31q18 2 36.5 4t34 5.5t25.5 11.5t10 22q-10 20 -36.5 34.5t-59.5 24t-66.5 13.5t-58.5 4q-16 0 -35.5 1t-42.5 3q-10 0 -14 -1t-14 -3h-17q-4 0 -6 -1t-4 -1zM530 807 q10 -49 15.5 -103.5t15.5 -107.5l14 2l31 -10q25 -6 41 -6q47 -6 91 -10.5t85 -4.5q43 0 84 2t82 6q31 6 63.5 11.5t58.5 15.5t41 26.5t13 43.5q-14 35 -48 60.5t-75 43t-87 27.5t-85 16q-93 16 -180 16q-42 0 -82 -4q-18 0 -36.5 -7t-41.5 -17z" />
<glyph unicode="c" horiz-adv-x="1943" d="M10 1081q6 -141 96.5 -286.5t270.5 -274.5q92 -68 199.5 -123t221 -96t229.5 -66.5t224 -33.5q57 -6 110 -6q91 -1 170 17q124 28 212 86t138.5 140t60.5 174q-111 45 -220.5 84t-220.5 86v-12q-1 -42 -25 -76q-28 -39 -78 -63.5t-120 -34.5q-35 -5 -71.5 -5t-73.5 5 q-98 16 -200 51t-179 101q-92 61 -137.5 134.5t-55.5 145.5q-1 15 -1 30q0 44 8 88q12 58 69 99q49 41 133 46q20 1 40 1q65 0 136 -12q66 -14 129.5 -32.5t130.5 -41.5q61 -29 111.5 -67.5t91.5 -79.5q53 -2 101 -2q36 0 71 1q80 3 168 7q-68 86 -164 168t-213 149 q-129 74 -268 122t-289 77q-104 22 -200 21q-59 0 -113 -8q-146 -22 -246 -81q-138 -66 -194 -180q-52 -106 -52 -234v-18z" />
<glyph unicode="d" horiz-adv-x="1669" d="M9 1044q1 -308 57 -684q47 -33 99 -50t105 -34q193 -45 371 -46h16q169 0 328 20q180 29 328.5 87t240.5 150q45 41 71 95q26 56 34 116q4 31 4 63q1 29 -3 61q-8 64 -28 126q-43 119 -149.5 230.5t-261.5 203.5q-156 94 -336 148.5t-361 87.5q-94 16 -189 24 q-39 3 -77 3q-56 0 -111 -7q-29 6 -49 -5t-47 -17q-42 -258 -42 -558v-14zM485 1356q33 0 67 -2t75 -8q86 -23 162.5 -42.5t154.5 -62.5q86 -43 139.5 -109.5t69.5 -123.5q6 -30 6 -59q1 -46 -15 -90q-26 -71 -118 -109q-78 -26 -172 -38q-48 -6 -99 -6q-49 0 -100 5 q-31 12 -59.5 16t-56.5 14q-10 166 -30 318.5t-24 296.5z" />
<glyph unicode="e" horiz-adv-x="1445" d="M14 1016q-5 114 -5 221q0 182 14 346q291 -4 570.5 -40t553.5 -126q16 -49 28.5 -102t22.5 -107q-168 27 -339 43.5t-353 34.5q0 -47 4 -94t4 -96q168 -23 324.5 -35t306.5 -31q10 -51 13 -107.5t11 -113.5q-68 -2 -136 -2q-85 0 -169 3q-151 5 -319 9q10 -55 20 -108.5 t15 -112.5q216 -10 414 -15q66 -2 131 -2q129 0 251 7q23 -78 36 -164t30 -180q-145 -14 -305 -22q-73 -3 -148 -3q-90 0 -183 5q-171 9 -352.5 36t-365.5 80q-60 369 -74 676z" />
<glyph unicode="f" horiz-adv-x="1204" d="M16 1018q-4 101 -4 198q0 194 13 369q289 -2 568.5 -38t553.5 -122q10 -53 26.5 -105t26.5 -103q-172 23 -345 42t-355 35q0 -45 10 -96q7 -36 7 -70q0 -13 -1 -26q166 -23 318.5 -35t310.5 -29q4 -51 9 -108.5t13 -118.5q-145 4 -299.5 6t-316.5 12q33 -137 64.5 -277 t58.5 -290q-141 10 -289.5 21.5t-298.5 66.5q-61 362 -70 668z" />
<glyph unicode="g" horiz-adv-x="1994" d="M10 1124v16q0 140 68 250q72 115 221 179q133 53 302 63q34 2 68 2q137 0 283 -32q121 -23 237 -66t221.5 -101.5t196.5 -128t162 -143.5q-49 -2 -96 -2h-96h-188q-35 37 -83.5 72t-104.5 62.5t-117.5 48t-122.5 28.5q-53 12 -107 16q-18 1 -36 1q-33 0 -64 -5 q-47 -6 -86 -20t-64 -39q-61 -53 -78 -121q-10 -43 -10 -89q0 -27 4 -56q10 -84 54 -171t122 -169q35 -39 84 -73t104.5 -61.5t115 -45t116.5 -23.5q43 -6 83 -6q69 0 129 18q95 27 138 88q23 29 28 59t15 62q-129 10 -263 16.5t-279 10.5q3 55 3 104q0 25 -1 48.5t-1 46.5 q0 47 3 92q244 -18 472 -42t445 -40q10 -10 17.5 -23.5t9.5 -23.5q33 -50 43 -99q34 -88 34 -170q0 -38 -8 -75q-22 -115 -106 -213q-45 -51 -108.5 -94.5t-143.5 -71t-174 -37.5q-43 -5 -88 -5q-55 0 -113 7q-121 6 -240.5 34.5t-233 76t-218 109t-192.5 132.5 q-170 139 -265 298q-92 153 -92 294v12z" />
<glyph unicode="h" horiz-adv-x="1695" d="M9 1040q-1 -32 -1 -64q0 -292 41 -636q135 -47 268.5 -64.5t268.5 -39.5q-12 186 -19 346.5t-16 320.5q147 -12 287.5 -24.5t277.5 -28.5q25 -150 51.5 -310.5t49.5 -340.5q129 8 248.5 15t226.5 38q-59 332 -130 612.5t-163 538.5q-92 29 -185.5 50.5t-185.5 37.5 q10 -86 19.5 -175t19.5 -183q-129 14 -259 26t-271 33q-5 104 -11 202q-5 75 -4 145v44q-123 18 -237.5 25.5t-239.5 17.5q-31 -268 -36 -586z" />
<glyph unicode="i" horiz-adv-x="677" d="M8 1552q29 2 60 2q67 0 144 -9q112 -13 214 -62q10 -39 17.5 -77t17.5 -79l-438 39q-4 47 -7.5 93t-7.5 93zM39 1200l461 -47q88 -420 174 -946q-44 -26 -108 -26h-13q-72 3 -176 7q-57 10 -115.5 22.5t-101.5 47.5q-39 268 -69 499.5t-52 442.5z" />
<glyph unicode="j" horiz-adv-x="1214" d="M8 463q35 -33 69 -58.5t79 -52.5q166 -123 370 -155q75 -8 145 -8q79 0 151 10q136 18 237 75q92 47 129 126q24 50 24 104q0 31 -8 63q-51 240 -91.5 451.5t-108.5 406.5q-86 29 -174.5 49.5t-176.5 36.5q23 -174 44.5 -358t47.5 -399q1 -11 1 -21q0 -24 -6 -46 q-9 -32 -38 -54q-41 -35 -106 -40q-20 -1 -40 -1q-47 0 -97 8q-61 6 -129 29.5t-115 62.5q-20 12 -37.5 26.5t-36.5 31.5q-31 -66 -62.5 -138.5t-70.5 -148.5z" />
<glyph unicode="k" horiz-adv-x="1617" d="M10 1061q-1 -29 -1 -59q0 -308 57 -666q117 -35 230.5 -45t229.5 -25q-23 143 -25.5 270.5t-8.5 249.5q190 -160 400 -313.5t421 -320.5q78 47 153.5 93t147.5 95q-211 168 -415 333t-402 331q160 78 300 146.5t281 129.5q-78 49 -146.5 103.5t-146.5 101.5 q-147 -55 -296.5 -118.5t-305.5 -141.5q-16 111 -22 212t-10 201q-100 10 -196.5 14.5t-201.5 10.5q-37 -270 -43 -602z" />
<glyph unicode="l" horiz-adv-x="1427" d="M9 1032v-39q0 -303 44 -671q188 -53 374.5 -79t362.5 -30q38 -1 75 -1q135 0 261 12q160 14 299 42q-12 86 -21.5 164t-19.5 154q-69 -2 -140 -2q-120 0 -244 6q-200 10 -422 16q-29 289 -52.5 534.5t-44.5 469.5q-113 10 -221 15q-60 3 -122 3q-49 0 -99 -2 q-27 -274 -30 -592z" />
<glyph unicode="m" horiz-adv-x="2387" d="M8 391q135 -27 257 -38t245 -21q43 193 91 360.5t89 323.5q129 -193 281.5 -390.5t312.5 -414.5q94 236 155.5 440.5t110.5 390.5q111 -205 232 -418.5t243 -459.5h19q84 0 162 16q88 18 180 31q-68 172 -150 335t-169 316.5t-178 298t-177 279.5q-104 20 -206.5 38.5 t-207.5 28.5q-53 -78 -104 -159.5t-104 -173.5q-66 117 -129.5 228t-122.5 216q-123 23 -239 31t-245 30q-119 -256 -211 -574.5t-135 -713.5z" />
<glyph unicode="n" horiz-adv-x="1734" d="M9 1076q3 -312 71 -691q135 -35 261 -52.5t257 -27.5q-29 217 -58.5 410.5t-52.5 380.5q166 -217 368 -437.5t411 -461.5q129 10 244.5 24.5t220.5 36.5q-49 332 -127.5 612.5t-182.5 540.5q-178 51 -370 80q27 -150 59.5 -306.5t67.5 -334.5q-180 209 -357.5 398.5 t-351.5 373.5q-104 16 -210.5 24.5t-213.5 8.5q-36 -247 -36 -534v-45z" />
<glyph unicode="o" horiz-adv-x="2088" d="M10 1124v-6q0 -152 96 -314q98 -164 289 -308q96 -68 205 -126.5t223.5 -102.5t232.5 -71.5t232 -33.5q67 -7 128 -7q152 -1 274 41q170 58 264 169q94 93 122 211q10 41 9 85q0 80 -33 168q-47 129 -149.5 245t-243.5 220q-143 100 -315.5 180t-352.5 109 q-143 30 -275 30q-48 1 -92 -3q-174 -14 -309 -74q-149 -58 -229 -164q-76 -100 -76 -234v-14zM598 1024q-1 14 -1 28q1 54 19 106q24 66 99 102q59 35 149 42q26 2 53 2q65 0 132 -12q98 -16 188 -58t168 -93q72 -53 125 -115.5t69 -128.5q8 -34 8 -66q0 -30 -7 -58 q-15 -58 -72 -97q-56 -36 -144 -56q-49 -11 -101 -12q-44 0 -91 8q-104 12 -209.5 47t-191.5 97q-92 59 -139.5 128.5t-53.5 135.5z" />
<glyph unicode="p" horiz-adv-x="1439" d="M9 1046q1 -157 15.5 -329t47.5 -359q113 -29 226.5 -39t223.5 -10q-12 147 -17 282.5t-22 266.5q87 -8 167 -8h32q94 2 188 12q129 6 239 27.5t196 71.5q66 27 105 75q25 30 25 69q0 22 -8 48q-29 72 -101.5 140.5t-164.5 119.5q-117 72 -243.5 113t-255.5 67 q-106 23 -211 31q-70 5 -138 5q-34 0 -67 -1q-31 2 -61 2q-23 0 -45 -1q-30 -2 -60 -2q-21 0 -41 1q-12 -133 -21 -278q-9 -132 -9 -274v-30zM451 1417q23 4 44 7t44 3q49 -4 101 -6t108 -12q37 -10 78.5 -22.5t78.5 -30t63.5 -38.5t32.5 -50t-6 -48.5t-36.5 -32.5 t-56.5 -21.5t-64 -14.5q-72 -10 -152 -12h-27q-68 0 -145 8l-29 4l-10 8l-14 4q0 68 -2 131.5t-8 122.5z" />
<glyph unicode="q" horiz-adv-x="2299" d="M10 1104q-1 -16 -1 -32q0 -145 82 -298q91 -170 284 -317q88 -72 193.5 -128.5t219 -97.5t231.5 -64.5t232 -29.5q61 -6 120 -6q87 0 170 13q140 20 241 73q72 -72 146.5 -140.5t144.5 -139.5q63 57 115.5 115.5t107.5 111.5q-72 61 -138.5 123.5t-138.5 124.5 q61 86 63 196q1 6 1 12q0 103 -41 207q-47 123 -147.5 239t-237.5 214q-141 104 -312 181t-350 112q-94 16 -188 23q-47 3 -93 3t-90 -3q-89 -7 -170 -24.5t-145 -49.5q-150 -61 -224.5 -172t-74.5 -246zM586 1028v15q0 57 26 107q31 56 103 89q61 33 147 42q29 3 59 3 q61 0 128 -12q92 -10 184 -51t166 -91q78 -53 128 -117t66 -130q17 -39 17 -75q0 -26 -8 -50q-21 -60 -78 -94q-99 -74 -260 -74q-38 0 -80 4q-111 12 -215.5 52t-192.5 99q-92 66 -136 142t-54 141z" />
<glyph unicode="r" horiz-adv-x="1693" d="M10 1051q2 315 39 577q66 6 133.5 7t132.5 1q143 -4 276.5 -18t272.5 -47q111 -27 211.5 -59.5t194.5 -84.5q82 -47 133 -105.5t80 -115.5q18 -37 18 -73q0 -51 -32.5 -95.5t-84.5 -72.5q-66 -45 -156 -75q-58 -19 -132 -19q-42 0 -88 6q174 -115 341 -228.5t341 -226.5 q-43 -61 -96.5 -117.5t-104.5 -118.5q-252 178 -508 339t-498 333q16 -131 21.5 -264t25.5 -283q-106 0 -218.5 12.5t-235.5 41.5q-66 360 -66 668v18zM461 1417q0 -119 6 -254l20 -10l29 -6q71 -8 134 -8q19 0 38 1q80 3 150 13q35 6 67.5 13.5t59 19.5t42 30.5t15.5 45.5 q-10 27 -40 51t-69 43.5t-82 33t-79 19.5q-53 10 -108.5 14t-115.5 4q-16 0 -36.5 -1t-30.5 -9z" />
<glyph unicode="s" horiz-adv-x="2070" d="M8 612q100 -82 218 -152.5t245 -124.5t262 -89t273 -45q127 -14 240 -14q108 1 204 13q198 26 365 85q63 25 115 60.5t86 80.5q34 44 46 100q4 21 4 43q0 36 -12 74q-18 45 -54 81t-80 66.5t-95 57t-103 55.5q-147 61 -289.5 112.5t-295.5 100.5q-45 16 -92.5 29.5 t-93.5 30t-88 37t-77 49.5q8 14 24.5 21t37 10t43 4t43.5 6q72 0 137.5 -2.5t140.5 -18.5q129 -23 252 -74t234 -123q35 49 81 82t85 70q-141 100 -300 179t-339 118q-166 37 -324 46q-57 3 -114 3q-101 0 -203 -10q-80 -4 -156 -21.5t-136 -49.5t-94 -78q-31 -41 -30 -94 v-13q6 -72 81 -144.5t189 -117.5q129 -55 260 -96t267 -85q39 -14 79.5 -26t79.5 -26.5t73 -34t58 -48.5q4 -23 -8 -34t-28 -21q-23 -6 -44.5 -16.5t-48.5 -14.5q-72 -16 -148 -23q-32 -3 -65 -3q-47 0 -98 6q-78 8 -155.5 30.5t-149.5 55.5t-135.5 76t-112.5 92 q-59 -66 -122.5 -134.5t-131.5 -140.5z" />
<glyph unicode="t" horiz-adv-x="1214" d="M8 1397q100 -12 197.5 -20.5t189.5 -18.5q12 -242 28.5 -513.5t47.5 -594.5q147 -20 279 -24q84 -2 165 -2q46 0 91 1q-47 309 -98.5 572.5t-84.5 502.5q98 -16 193.5 -26t193.5 -27q-10 45 -20.5 91.5t-20.5 95.5q-285 86 -567.5 123.5t-576.5 44.5q-4 -49 -8.5 -101.5 t-8.5 -103.5z" />
<glyph unicode="u" horiz-adv-x="1503" d="M10 1212q2 204 19 392q100 -2 193 -8.5t192 -6.5q4 -205 26.5 -422t55.5 -471q8 -41 39.5 -75.5t77.5 -61.5t99.5 -43t104.5 -18q18 -2 34 -2q39 0 71 10q46 14 77 41.5t45 65.5q9 26 9 54q0 12 -2 25q-35 221 -71 421t-46 376q170 -11 336 -62q61 -166 110.5 -337.5 t98.5 -362.5q20 -76 20 -148q-1 -34 -5 -67q-14 -104 -79 -188q-61 -92 -181 -144q-89 -39 -210 -40q-41 0 -86 5q-154 12 -305.5 70.5t-290.5 146.5q-55 41 -106.5 86.5t-93.5 92.5t-71.5 97t-41.5 99q2 8 2 19q0 6 -6 16q-15 216 -15 405v35z" />
<glyph unicode="v" horiz-adv-x="1482" d="M8 1614q70 -305 196 -647t316 -750q174 -16 334 -19t320 -3q123 356 189.5 660t115.5 560q-86 16 -164 26.5t-164 18.5q-86 -184 -168 -404t-184 -474q-123 291 -223.5 538.5t-182.5 483.5q-99 6 -193 9q-56 2 -114 2q-39 0 -78 -1z" />
<glyph unicode="w" horiz-adv-x="2183" d="M8 1741q35 -307 140.5 -661.5t291.5 -774.5q143 -16 279.5 -22.5t277.5 -16.5q47 143 99.5 273.5t99.5 253.5q104 -141 217 -281.5t225 -290.5q94 -4 180 -4q43 0 83 1q122 3 245 7q23 329 30 609q1 49 1 97q0 228 -27 439q-78 16 -149.5 27.5t-153.5 32.5 q-27 -143 -54.5 -305t-45.5 -349q-166 217 -325.5 413.5t-325.5 389.5q-104 -117 -208 -250t-208 -293q-72 184 -149.5 349t-131.5 325q-98 4 -195.5 16.5t-195.5 14.5z" />
<glyph unicode="x" horiz-adv-x="2093" d="M8 336q86 106 175 202.5t176 184.5t169 170t152 162q-158 168 -310.5 321.5t-291.5 306.5q111 -8 211 -16t205 -20q121 -100 228 -196.5t224 -199.5q78 59 148.5 114.5t130.5 102.5q102 -16 201.5 -31.5t201.5 -43.5q-61 -104 -143 -207t-172 -219q184 -180 379.5 -363.5 t398.5 -384.5q-111 -17 -227 -31q-89 -10 -189 -11q-30 0 -61 1q-141 139 -275.5 268t-275.5 259q-94 -106 -196.5 -211t-209.5 -228q-156 10 -318.5 20.5t-330.5 49.5z" />
<glyph unicode="y" horiz-adv-x="1667" d="M8 1700q154 -174 327 -344t359 -357q10 -174 11.5 -355t19.5 -392q98 -1 194 -1h97q143 1 284 5q-16 190 -31.5 358t-41.5 328q119 131 229.5 241.5t208.5 221.5q-100 23 -194.5 45.5t-188.5 40.5q-78 -66 -166 -128.5t-180 -135.5q-123 117 -244 223t-237 217 q-111 10 -220.5 19.5t-226.5 13.5z" />
<glyph unicode="z" horiz-adv-x="1587" d="M8 1384q23 51 36 106.5t36 104.5q299 -4 592 -44t575 -132q16 -49 25.5 -94t19.5 -94q-59 -66 -114.5 -139.5t-113.5 -151.5t-124 -160t-145 -162q110 -2 215 -2q91 0 177 2q185 4 359 13q16 -78 17 -156t20 -170q-147 -25 -317 -41t-355 -16q-184 0 -381.5 21.5 t-402.5 70.5q-6 76 -6 149t6 142q92 98 175 192.5t161 182.5t152.5 167.5t152.5 149.5q-184 18 -371.5 34.5t-388.5 26.5z" />
<glyph unicode="{" horiz-adv-x="669" d="M8 737q18 12 29.5 26.5t28.5 31.5q23 33 39 66.5t18 76.5q-4 111 -7 226.5t-10 244.5q25 119 91.5 187.5t149.5 91t167 4t145 -73.5q-4 -61 -9 -120.5t-9 -119.5q-23 6 -49.5 12.5t-54 7.5t-54 -6.5t-51.5 -29.5q-29 -20 -41 -60t-16 -81q-4 -68 -2 -134.5t0 -132.5 q-8 -82 -64 -139l-32.5 -32.5t-32.5 -28.5q16 -16 32.5 -27.5t32.5 -28.5q23 -27 43.5 -51t20.5 -61q2 -18 2 -39v-39q0 -18 1 -37.5t1 -38.5q0 -61 31 -110q29 -12 61.5 -7.5t65.5 15.5q-2 -43 -3.5 -84t-1.5 -84q-68 -37 -142.5 -47.5t-139.5 4.5q-33 16 -61.5 39.5 t-28.5 70.5q-4 78 -8.5 161t-8.5 171q-10 35 -25.5 63.5t-41.5 49.5q-16 16 -32.5 28.5t-33.5 34.5z" />
<glyph unicode="|" horiz-adv-x="227" d="M8 1681q14 59 47 94t74 58q37 -16 54.5 -63.5t33.5 -98.5q-10 -584 -17.5 -1033.5t-19.5 -793.5q-4 -29 -24.5 -50t-46.5 -38q-29 -6 -41.5 10.5t-22.5 38.5q-10 346 -19.5 808t-17.5 1068z" />
<glyph unicode="}" horiz-adv-x="610" d="M8 1690q104 35 214 21.5t200 -87.5q43 -33 69.5 -93.5t28.5 -125.5q-6 -117 -8 -222.5t-6 -209.5q4 -37 15 -70t34 -49q10 -16 21.5 -30.5t23.5 -24.5l-26.5 -26.5t-26.5 -31.5q-16 -29 -37 -58.5t-21 -66.5q-4 -84 -5 -160.5t-9 -154.5q-16 -68 -65.5 -118t-113 -79.5 t-131 -36t-118.5 16.5q0 35 -2 72t-6 75q47 -4 99 3.5t95 39.5q23 23 35.5 49.5t10.5 55.5q0 53 -1.5 102t1.5 103q2 41 20 74.5t41 62.5l30.5 30.5t30.5 26.5q-6 6 -15 15.5t-30 25.5l-16 15q-20 29 -40.5 57.5t-25.5 71.5q-4 49 -8 99t-8 103q-2 45 -7 91.5t-32 78.5 q-43 33 -93 39t-99 0q-2 80 -8.5 156t-10.5 160z" />
<glyph unicode="~" horiz-adv-x="1318" d="M18 1081q4 -23 8.5 -42t12.5 -35l12 -43q53 -59 111.5 -108.5t107.5 -100.5q-16 57 -11 128.5t30.5 133t71 103.5t108.5 42q37 -10 66.5 -33.5t55 -52.5t49.5 -60.5t46 -58.5q47 -59 102.5 -105t122.5 -42q72 8 139.5 55t120.5 119q55 78 93.5 181t46.5 216 q-29 66 -58.5 138.5t-62.5 150.5q-10 -86 -41 -151.5t-72 -118.5q-41 -49 -91 -85t-107 -36q-31 6 -59.5 29.5t-55.5 55.5t-50.5 69.5t-45.5 74.5q-25 39 -50.5 81t-54 77t-62.5 59.5t-77 28.5q-51 2 -95 -13.5t-83 -44t-72 -67.5t-63 -82q-66 -94 -88.5 -217t-4.5 -246z " />
<glyph unicode="&#xad;" d="M17 886q-15 -91 1 -196q252 -90 477.5 -149.5t436.5 -100.5q10 88 8 177.5t-25 181.5q-399 156 -860 264q-23 -86 -38 -177z" />
<glyph unicode="&#x2000;" horiz-adv-x="1102" />
<glyph unicode="&#x2001;" horiz-adv-x="2204" />
<glyph unicode="&#x2002;" horiz-adv-x="1102" />
<glyph unicode="&#x2003;" horiz-adv-x="2204" />
<glyph unicode="&#x2004;" horiz-adv-x="734" />
<glyph unicode="&#x2005;" horiz-adv-x="551" />
<glyph unicode="&#x2006;" horiz-adv-x="367" />
<glyph unicode="&#x2007;" horiz-adv-x="367" />
<glyph unicode="&#x2008;" horiz-adv-x="275" />
<glyph unicode="&#x2009;" horiz-adv-x="440" />
<glyph unicode="&#x200a;" horiz-adv-x="122" />
<glyph unicode="&#x2010;" d="M17 886q-15 -91 1 -196q252 -90 477.5 -149.5t436.5 -100.5q10 88 8 177.5t-25 181.5q-399 156 -860 264q-23 -86 -38 -177z" />
<glyph unicode="&#x2011;" d="M17 886q-15 -91 1 -196q252 -90 477.5 -149.5t436.5 -100.5q10 88 8 177.5t-25 181.5q-399 156 -860 264q-23 -86 -38 -177z" />
<glyph unicode="&#x2012;" d="M17 886q-15 -91 1 -196q252 -90 477.5 -149.5t436.5 -100.5q10 88 8 177.5t-25 181.5q-399 156 -860 264q-23 -86 -38 -177z" />
<glyph unicode="&#x2013;" horiz-adv-x="1041" d="M16.5 886q-16.5 -91 1.5 -196q277 -90 525.5 -149.5t480.5 -100.5q11 88 8.5 177.5t-27.5 181.5q-439 156 -946 264q-26 -86 -42.5 -177z" />
<glyph unicode="&#x2014;" horiz-adv-x="2065" d="M25 886q-33 -91 2 -196q555 -90 1051 -149.5t961 -100.5q22 88 17.5 177.5t-55.5 181.5q-878 156 -1892 264q-51 -86 -84 -177z" />
<glyph unicode="&#x201a;" horiz-adv-x="368" d="M8 -254q59 20 117.5 48t116.5 56q33 106 60 212t56 223q-55 10 -117.5 -7.5t-123.5 -27.5q-39 -141 -62.5 -261t-46.5 -243z" />
<glyph unicode="&#x202f;" horiz-adv-x="440" />
<glyph unicode="&#x205f;" horiz-adv-x="551" />
<glyph unicode="&#x25fc;" horiz-adv-x="1679" d="M0 0v1679h1679v-1679h-1679z" />
</font>
</defs>
</svg>
